<svg xmlns="http://www.w3.org/2000/svg" version="1.1" xmlns:xlink="http://www.w3.org/1999/xlink" xmlns:svgjs="http://svgjs.com/svgjs" width="1440" height="560" preserveAspectRatio="none" viewBox="0 0 1440 560"><g mask="url(&quot;#SvgjsMask2040&quot;)" fill="none"><rect width="1440" height="560" x="0" y="0" fill="#0e2a47"></rect><use xlink:href="#SvgjsG2052" transform="translate(0, 0)" fill="#0f457b"></use><use xlink:href="#SvgjsG2052" transform="translate(1029, 0)" fill="#0f457b"></use></g><defs><mask id="SvgjsMask2040"><rect width="1440" height="560" fill="#ffffff"></rect></mask><g id="SvgjsG2050"><path d="M7.74 4.33L12.93 1.7l-1.29 5.68 3.84 4.07-5.69 0.77-2.82 5.15L4.76 12.16-0.83 11.27l4.32-3.98L2.86 1.59z"></path></g><g id="SvgjsG2044"><path d="M-0.2 10.04l-0.93-0.73C-1.78 8.8-2.03 7.84-1.39 7.02c0 0 4.6-5.89 4.62-5.91 0.57-0.73 1.61-0.81 2.27-0.29l0.93 0.73-6.63 8.49z m12.49-3.89L13.25 4.93c0.35-0.44 0.18-1.02-0.31-1.39 0 0-1.81-1.42-1.8-1.41-0.47-0.37-1.09-0.4-1.43 0.04l-0.95 1.22L7.05 2.06l-6.63 8.49 6.96 5.43L14.01 7.49l-1.72-1.34z m-0.64-0.5L9.38 3.87l0.98-1.25 2.27 1.78-0.98 1.25z m-3.64 10.8l0.93 0.73c0.64 0.5 1.64 0.51 2.28-0.31 0 0 4.6-5.89 4.62-5.91 0.57-0.73 0.4-1.76-0.26-2.27l-0.94-0.73-6.63 8.49z"></path></g><g id="SvgjsG2049"><path d="M11.97 14.77l-2.87-7.28L9.52 6.95c0.47-0.61 0.02-1.38 0.02-1.38-0.26-0.54 0.12-0.96 0.12-0.96 0.41-0.53 1.02-0.33 1.23-0.17 0.35 0.28 0.55 0.74 0.23 1.22-0.49 0.75 0.44 1.19 0.89 0.63C12.43 5.76 12.67 4.44 11.56 3.57 10.36 2.64 9.1 3.54 8.81 3.91c-0.22 0.28-0.38 0.57-0.44 1-0.1 0.73 0.43 1.27 0.17 1.6l-0.26 0.34L0.46 5.8C-0.32 5.7-0.93 6.29-1.13 6.78c-0.19 0.48-0.17 1.25 0.54 1.81l10.03 7.83c0.79 0.62 1.51 0.45 1.92 0.15 0.43-0.31 0.92-0.94 0.6-1.8z m-1.83 0.78L0.11 7.72c-0.34-0.24-0.18-0.86 0.3-0.81L8.03 7.94l2.83 7.11c0.14 0.48-0.37 0.77-0.72 0.5z"></path></g><g id="SvgjsG2045"><path d="M11.34 6.96c-0.72 0.92-2.04 1.08-2.96 0.36-0.92-0.72-1.08-2.04-0.36-2.96 0.72-0.92 2.04-1.08 2.96-0.36 0.92 0.72 1.08 2.04 0.36 2.96z"></path><path d="M12.83 1.63c0.74 0.58 1.7 1.83 1.8 3.08L12.37 5.74a2.73 2.73 0 0 0-1.05-2.17 2.73 2.73 0 0 0-2.34-0.5L9.37 0.66C10.75 0.49 12.07 1.02 12.83 1.63z m-1.56 1.46l0.52 0.4L12.12 3.06l0.43 0.34L12.96 2.88l-0.43-0.34 0.33-0.43-0.51-0.4-0.34 0.43-0.43-0.34L11.18 2.32l0.43 0.34-0.34 0.43z m-7.4 5.51l0.42 0.33L2.06 10.54l4.75 3.71 1.02-2.56 0.42 0.34-1.01 2.55 1.39 1.09L10.14 11.77c0.26-0.64 0.32-2.06-0.78-2.97l-2.59-2.02c-1.16-0.89-2.55-0.48-3.12-0.08L0.22 9.1l1.41 1.11 2.24-1.61zM-2.31 8.2l12.43 9.7L9.2 19.09-3.23 9.38z"></path></g><g id="SvgjsG2041"><path d="M11.38 6.02c0.52 0.4 1.27 0.31 1.68-0.22 0.41-0.52 0.32-1.28-0.2-1.68-0.52-0.41-1.27-0.31-1.68 0.21-0.41 0.52-0.32 1.28 0.2 1.69m-3.93 10.28L9.39 10.96 12.05 7.56c0.35-0.45-0.11-0.77-0.11-0.77L10.15 5.39s-0.07-0.07-0.32-0.06l-1.52-0.2-0.23-1.95c-0.01-0.35-0.3-0.63-0.65-0.61-0.35 0.01-0.62 0.33-0.61 0.68l0.29 2.49c0.02 0.17 0.09 0.34 0.24 0.46a0.65 0.65 0 0 0 0.36 0.13l1.31 0.21-1.94 2.49L2.3 12.26a0.89 0.89 0 0 0-0.18 1.25c0.29 0.39 0.85 0.47 1.24 0.16L7.5 10.9l-1.68 4.71c-0.19 0.46 0.01 0.98 0.47 1.16 0.45 0.19 0.97-0.02 1.16-0.47"></path><path d="M6.2 3.54a0.16 0.16 0 0 0 0.18 0.14l0.02-0.01c0.09-0.01 0.15-0.09 0.14-0.18l-0.05-0.49a0.16 0.16 0 0 0-0.17-0.14l-0.03 0c-0.09 0.01-0.15 0.09-0.14 0.18l0.05 0.5zM11.29 2.38l-2.97 0.5 0.03 0.35 3.01-0.16 2.05-0.18c0.09-0.02 0.17-0.06 0.24-0.14 0.13-0.17 0.1-0.41-0.06-0.54-0.08-0.06-0.17-0.09-0.27-0.08L11.29 2.38z"></path></g><g id="SvgjsG2051"><path d="M13.38 2.05C11.21 0.36 7.94 0.42 6.12 1.89c-0.41 0.33-1.32 1.29-1.33 1.29L1.83 4.92A0.49 0.49 0 0 0 1.68 5.04a0.49 0.49 0 0 0 0.09 0.69l0.64 0.5-1.05 1.34c-0.81 1.04-0.63 2.55 0.41 3.36l0.75 0.59L1.38 12.98l5.11 3.99L9.66 12.91c1.8-0.01 3.58-0.81 4.77-2.34C16.49 7.93 16.02 4.12 13.38 2.05z m-8.16 3c-0.29-0.23-0.34-0.66-0.11-0.95a0.68 0.68 0 0 1 0.95-0.12c0.3 0.23 0.35 0.66 0.12 0.96a0.68 0.68 0 0 1-0.96 0.11z"></path></g><g id="SvgjsG2043"><path d="M9.64 5.07c1.01 0.79 2.47 0.6 3.27-0.42C13.7 3.63 13.53 2.17 12.53 1.38S10.06 0.78 9.26 1.8c-0.79 1.02-0.63 2.48 0.38 3.27z m1.43 1.84c0.81 0.68 0.63 1.63 0.63 1.63l-0.23 5.83a1.33 1.33 0 0 1-0.28 0.73c-0.45 0.58-1.29 0.69-1.86 0.24-0.14-0.11-0.24-0.24-0.32-0.38l-1.27-1.73-1.28 1.64L0.82 10.47 2.1 8.83l-1.98-0.81a1.31 1.31 0 0 1-0.44-0.22C-0.89 7.35-0.99 6.51-0.54 5.93c0.17-0.22 0.39-0.37 0.64-0.44l5.61-1.63s0.88-0.4 1.73 0.21L11.07 6.91zM4.54 11.53l2.65 0.93-0.03-0.04c-1.12-1.57 0.96-3.06 2.07-1.5l0.15 0.22 1.71-2.19-3.55-1.27-2.09-3.13L3.74 6.74l0.25 0.08c1.79 0.7 0.84 3.08-0.95 2.38l-0.05-0.02 1.55 2.35zM8.43 18.49c0.14 0.11 0.35 0.09 0.46-0.06a0.33 0.33 0 0 0-0.05-0.47L-2.54 9.07c-0.14-0.11-0.35-0.09-0.47 0.06-0.11 0.15-0.09 0.35 0.06 0.47l11.38 8.89z"></path></g><g id="SvgjsG2048"><path d="M9.69-0.83s-2.64 3.75 0.77 5.92S13.17 2.35 9.69-0.83m-5.85 14.32a2.32 2.32 0 0 1-2.11-0.4c-0.5-0.39-0.81-1.02-0.88-1.6-0.1-1.28 0.31-3.63 0.31-3.63C1.45 6.47 1.79 5.48 2.41 4.7c1.31-1.68 3.8-2.07 5.47-0.76 0.83 0.65 1.31 1.56 1.45 2.52a3.83 3.83 0 0 1 2.79 0.79c1.68 1.31 1.9 3.82 0.6 5.5-0.61 0.79-1.48 1.36-2.77 1.97 0 0-2.18 0.97-3.44 1.19-0.59 0.07-1.27-0.08-1.78-0.48a2.32 2.32 0 0 1-0.89-1.93" fill-rule="evenodd"></path></g><g id="SvgjsG2047"><path d="M14.4 5.24L12.55 3.8c-0.33-0.26-0.7 0.24-0.38 0.49l1.84 1.44-0.19 0.25L11.98 4.54c-0.33-0.26-0.71 0.24-0.38 0.49l1.84 1.44-0.2 0.25L11.4 5.29c-0.34-0.26-0.71 0.24-0.39 0.49l1.84 1.44-0.19 0.24L10.82 6.03c-0.33-0.26-0.71 0.24-0.38 0.49l1.84 1.43-0.19 0.25L10.25 6.76c-0.33-0.25-0.71 0.24-0.38 0.49l1.83 1.44-0.19 0.25L9.67 7.51c-0.33-0.26-0.71 0.23-0.38 0.49l1.83 1.43-0.19 0.25L9.1 8.24c-0.33-0.26-0.71 0.23-0.39 0.49l1.84 1.44-0.19 0.24L8.52 8.98c-0.33-0.25-0.71 0.24-0.39 0.49l1.84 1.44-3.72 4.76c-0.57 0.73 0.55 1.58 1.11 0.87L16.08 5.37c0.26-0.33 0.31-0.97-0.15-1.31L13.72 2.31c-0.33-0.26-0.7 0.25-0.39 0.5l1.84 1.44-0.19 0.25L13.14 3.05c-0.33-0.26-0.7 0.24-0.39 0.5l1.85 1.44-0.2 0.25zM4.74 13.21c-0.38 0.35-0.81 1.19-0.72 1.67 0.09 0.51 0.71 0.44 0.79 0.04 0.07-0.4 0-0.7 0.68-1.25l-0.75-0.46z"></path><path d="M5.99 10.4l2.53-3.25L12.09 1.33C12.18 1.17 12.12 1.07 12.04 1c-0.08-0.07-0.19-0.1-0.33 0.04l-4.77 4.88-2.54 3.24C3.73 7.69 2.16 7.94 1.51 8.77 0.93 9.52 1 10.56 1.78 11.18c0.78 0.61 1.85 0.34 2.38-0.33L6.71 7.58l0.25 0.2-2.55 3.26C3.8 11.82 3.98 12.88 4.66 13.41c0.84 0.66 1.84 0.48 2.42-0.27 0.66-0.85 0.5-2.44-1.09-2.74z m-3.69 0.08c-0.37-0.29-0.43-0.82-0.14-1.19 0.29-0.36 0.82-0.43 1.18-0.14a0.84 0.84 0 0 1 0.15 1.19 0.85 0.85 0 0 1-1.19 0.14z m2.94 2.29c-0.37-0.28-0.43-0.82-0.14-1.18a0.84 0.84 0 0 1 1.18-0.15c0.37 0.29 0.44 0.82 0.15 1.19a0.84 0.84 0 0 1-1.19 0.14z"></path></g><g id="SvgjsG2046"><path d="M8.29 12.86c-2.89 0.35-5.51-1.7-5.87-4.58-0.35-2.89 1.7-5.51 4.58-5.86 1.37-0.17 3.4-0.1 5.45 1.49 3.74 2.92 5.68 2.85 5.68 2.85-3.51 4.5-6.95 5.75-9.84 6.1z"></path><path d="M2 7.92L2.34 6.4l7.76 0.52z"></path><path d="M10.1 6.92l0.19 1.62-11.51 1.41-0.2-1.61z"></path></g><g><path d="M8.1 8.38l-0.32 0.41c0.43 0.25 0.66-0.13 0.32-0.41l0 0z m-0.02-0.81L8.36 7.21c-0.33-0.17-0.56 0.14-0.28 0.36z"></path><path d="M9.31 6.42c-0.89-0.69-2.17-0.54-2.87 0.35-0.7 0.89-0.54 2.17 0.35 2.87 0.89 0.7 2.17 0.54 2.87-0.36 0.69-0.89 0.54-2.17-0.35-2.86l0 0z m-1.86 2.78l-0.22 0.29-0.4-0.32 0.23-0.29c-0.2-0.21-0.45-0.76-0.11-1.25l0.42 0.33c-0.07 0.14-0.15 0.32 0 0.52l0.37-0.48c-0.23-0.24-0.52-0.65-0.19-1.08 0.37-0.47 1.01-0.21 1.13-0.12l0.22-0.29 0.4 0.31-0.23 0.29c0.25 0.22 0.47 0.75 0.14 1.17l-0.42-0.32c0.09-0.13 0.09-0.33-0.03-0.44l-0.34 0.43c0.29 0.28 0.57 0.69 0.24 1.13-0.29 0.37-0.88 0.35-1.21 0.12l0 0z"></path><path d="M-0.72 6.17l12.6 9.85L16.77 9.77 4.16-0.08l-4.88 6.25z m2.11-0.26L4.42 2.04l10.23 7.99L11.62 13.91 1.39 5.91z"></path></g><g id="SvgjsG2042"><path d="M3.07 14.3l0 0c-1.68-1.32-2.75-3.21-3.01-5.33C-0.2 6.85 0.38 4.75 1.7 3.07 3.01 1.39 4.9 0.32 7.02 0.06 9.14-0.2 11.24 0.38 12.92 1.69l0.01 0.01C14.61 3.01 15.68 4.9 15.94 7.02c0.26 2.12-0.32 4.21-1.63 5.9-1.32 1.68-3.21 2.75-5.34 3.02-2.12 0.26-4.22-0.32-5.9-1.64z m8.72-11.16c-1.3-1.01-2.91-1.46-4.54-1.26-1.63 0.2-3.09 1.03-4.1 2.32-1.02 1.3-1.46 2.91-1.27 4.55 0.2 1.63 1.02 3.09 2.32 4.1 2.68 2.09 6.56 1.61 8.66-1.06 2.09-2.68 1.61-6.55-1.07-8.64l0-0.01z"></path><path d="M9.07 7.75L10.18 6.34c0.38 0.34 0.38 0.99 0.1 1.42l1.33 1.05c1.07-1.37 0.39-3.07-0.42-3.79l0.72-0.93L10.63 3.1l-0.72 0.92c-0.38-0.29-2.44-1.13-3.64 0.4-1.07 1.36-0.14 2.69 0.61 3.47l-1.2 1.55c-0.48-0.66-0.22-1.22 0-1.68l-1.36-1.06c-1.11 1.6-0.32 3.37 0.33 4.06l-0.74 0.94 1.29 1.01 0.73-0.93c1.06 0.74 2.96 0.81 3.9-0.4 1.08-1.39 0.18-2.72-0.76-3.63zM7.97 6.52c-0.9-0.72-0.14-1.73 0.91-1.17l-0.91 1.17z m-0.99 3.94L8.02 9.13c1.1 0.91 0.35 2.13-1.04 1.33z"></path></g><g id="SvgjsG2052"><use xlink:href="#SvgjsG2041" transform="translate(0, 0) scale(2.1)" fill="#0f457b"></use><use xlink:href="#SvgjsG2042" transform="translate(0, 102.9) scale(2.1)" fill="#0f457b"></use><use xlink:href="#SvgjsG2043" transform="translate(0, 205.8) scale(2.1)" fill="#0f457b"></use><use xlink:href="#SvgjsG2043" transform="translate(0, 308.70000000000005) scale(2.1)" fill="#0f457b"></use><use xlink:href="#SvgjsG2044" transform="translate(0, 411.6) scale(2.1)" fill="#0f457b"></use><use xlink:href="#SvgjsG2045" transform="translate(0, 514.5) scale(2.1)" fill="#0f457b"></use><use xlink:href="#SvgjsG2046" transform="translate(102.9, 0) scale(2.1)" fill="#0f457b"></use><use xlink:href="#SvgjsG2047" transform="translate(102.9, 102.9) scale(2.1)" fill="#0f457b"></use><use xlink:href="#SvgjsG2047" transform="translate(102.9, 205.8) scale(2.1)" fill="#0f457b"></use><use xlink:href="#SvgjsG2045" transform="translate(102.9, 308.70000000000005) scale(2.1)" fill="#0f457b"></use><use xlink:href="#SvgjsG2043" transform="translate(102.9, 411.6) scale(2.1)" fill="#0f457b"></use><use xlink:href="#SvgjsG2047" transform="translate(102.9, 514.5) scale(2.1)" fill="#0f457b"></use><use xlink:href="#SvgjsG2048" transform="translate(205.8, 0) scale(2.1)" fill="#0f457b"></use><use xlink:href="#SvgjsG2044" transform="translate(205.8, 102.9) scale(2.1)" fill="#0f457b"></use><use xlink:href="#SvgjsG2047" transform="translate(205.8, 205.8) scale(2.1)" fill="#0f457b"></use><use xlink:href="#SvgjsG2044" transform="translate(205.8, 308.70000000000005) scale(2.1)" fill="#0f457b"></use><use xlink:href="#SvgjsG2041" transform="translate(205.8, 411.6) scale(2.1)" fill="#0f457b"></use><use xlink:href="#SvgjsG2049" transform="translate(205.8, 514.5) scale(2.1)" fill="#0f457b"></use><use xlink:href="#SvgjsG2041" transform="translate(308.70000000000005, 0) scale(2.1)" fill="#0f457b"></use><use xlink:href="#SvgjsG2049" transform="translate(308.70000000000005, 102.9) scale(2.1)" fill="#0f457b"></use><use xlink:href="#SvgjsG2046" transform="translate(308.70000000000005, 205.8) scale(2.1)" fill="#0f457b"></use><use xlink:href="#SvgjsG2048" transform="translate(308.70000000000005, 308.70000000000005) scale(2.1)" fill="#0f457b"></use><use xlink:href="#SvgjsG2043" transform="translate(308.70000000000005, 411.6) scale(2.1)" fill="#0f457b"></use><use xlink:href="#SvgjsG2045" transform="translate(308.70000000000005, 514.5) scale(2.1)" fill="#0f457b"></use><use xlink:href="#SvgjsG2042" transform="translate(411.6, 0) scale(2.1)" fill="#0f457b"></use><use xlink:href="#SvgjsG2043" transform="translate(411.6, 102.9) scale(2.1)" fill="#0f457b"></use><use xlink:href="#SvgjsG2045" transform="translate(411.6, 205.8) scale(2.1)" fill="#0f457b"></use><use xlink:href="#SvgjsG2048" transform="translate(411.6, 308.70000000000005) scale(2.1)" fill="#0f457b"></use><use xlink:href="#SvgjsG2048" transform="translate(411.6, 411.6) scale(2.1)" fill="#0f457b"></use><use xlink:href="#SvgjsG2041" transform="translate(411.6, 514.5) scale(2.1)" fill="#0f457b"></use><use xlink:href="#SvgjsG2048" transform="translate(514.5, 0) scale(2.1)" fill="#0f457b"></use><use xlink:href="#SvgjsG2041" transform="translate(514.5, 102.9) scale(2.1)" fill="#0f457b"></use><use xlink:href="#SvgjsG2044" transform="translate(514.5, 205.8) scale(2.1)" fill="#0f457b"></use><use xlink:href="#SvgjsG2048" transform="translate(514.5, 308.70000000000005) scale(2.1)" fill="#0f457b"></use><use xlink:href="#SvgjsG2047" transform="translate(514.5, 411.6) scale(2.1)" fill="#0f457b"></use><use xlink:href="#SvgjsG2042" transform="translate(514.5, 514.5) scale(2.1)" fill="#0f457b"></use><use xlink:href="#SvgjsG2050" transform="translate(617.4000000000001, 0) scale(2.1)" fill="#0f457b"></use><use xlink:href="#SvgjsG2042" transform="translate(617.4000000000001, 102.9) scale(2.1)" fill="#0f457b"></use><use xlink:href="#SvgjsG2048" transform="translate(617.4000000000001, 205.8) scale(2.1)" fill="#0f457b"></use><use xlink:href="#SvgjsG2045" transform="translate(617.4000000000001, 308.70000000000005) scale(2.1)" fill="#0f457b"></use><use xlink:href="#SvgjsG2042" transform="translate(617.4000000000001, 411.6) scale(2.1)" fill="#0f457b"></use><use xlink:href="#SvgjsG2048" transform="translate(617.4000000000001, 514.5) scale(2.1)" fill="#0f457b"></use><use xlink:href="#SvgjsG2041" transform="translate(720.3000000000001, 0) scale(2.1)" fill="#0f457b"></use><use xlink:href="#SvgjsG2045" transform="translate(720.3000000000001, 102.9) scale(2.1)" fill="#0f457b"></use><use xlink:href="#SvgjsG2049" transform="translate(720.3000000000001, 205.8) scale(2.1)" fill="#0f457b"></use><use xlink:href="#SvgjsG2048" transform="translate(720.3000000000001, 308.70000000000005) scale(2.1)" fill="#0f457b"></use><use xlink:href="#SvgjsG2049" transform="translate(720.3000000000001, 411.6) scale(2.1)" fill="#0f457b"></use><use xlink:href="#SvgjsG2048" transform="translate(720.3000000000001, 514.5) scale(2.1)" fill="#0f457b"></use><use xlink:href="#SvgjsG2051" transform="translate(823.2, 0) scale(2.1)" fill="#0f457b"></use><use xlink:href="#SvgjsG2049" transform="translate(823.2, 102.9) scale(2.1)" fill="#0f457b"></use><use xlink:href="#SvgjsG2048" transform="translate(823.2, 205.8) scale(2.1)" fill="#0f457b"></use><use xlink:href="#SvgjsG2049" transform="translate(823.2, 308.70000000000005) scale(2.1)" fill="#0f457b"></use><use xlink:href="#SvgjsG2050" transform="translate(823.2, 411.6) scale(2.1)" fill="#0f457b"></use><use xlink:href="#SvgjsG2045" transform="translate(823.2, 514.5) scale(2.1)" fill="#0f457b"></use><use xlink:href="#SvgjsG2041" transform="translate(926.1, 0) scale(2.1)" fill="#0f457b"></use><use xlink:href="#SvgjsG2046" transform="translate(926.1, 102.9) scale(2.1)" fill="#0f457b"></use><use xlink:href="#SvgjsG2051" transform="translate(926.1, 205.8) scale(2.1)" fill="#0f457b"></use><use xlink:href="#SvgjsG2048" transform="translate(926.1, 308.70000000000005) scale(2.1)" fill="#0f457b"></use><use xlink:href="#SvgjsG2049" transform="translate(926.1, 411.6) scale(2.1)" fill="#0f457b"></use><use xlink:href="#SvgjsG2041" transform="translate(926.1, 514.5) scale(2.1)" fill="#0f457b"></use></g></defs></svg>