<svg xmlns="http://www.w3.org/2000/svg" version="1.1" xmlns:xlink="http://www.w3.org/1999/xlink" xmlns:svgjs="http://svgjs.com/svgjs" width="1440" height="560" preserveAspectRatio="none" viewBox="0 0 1440 560"><g mask="url(&quot;#SvgjsMask1661&quot;)" fill="none"><rect width="1440" height="560" x="0" y="0" fill="rgba(252, 226, 42, 1)"></rect><use xlink:href="#SvgjsG1676" transform="translate(0, 0)" fill="rgba(122, 168, 116, 1)"></use><use xlink:href="#SvgjsG1676" transform="translate(893, 0)" fill="rgba(122, 168, 116, 1)"></use></g><defs><mask id="SvgjsMask1661"><rect width="1440" height="560" fill="#ffffff"></rect></mask><g id="SvgjsG1674"><path d="M-0.2 10.04l-0.93-0.73C-1.78 8.8-2.03 7.84-1.39 7.02c0 0 4.6-5.89 4.62-5.91 0.57-0.73 1.61-0.81 2.27-0.29l0.93 0.73-6.63 8.49z m12.49-3.89L13.25 4.93c0.35-0.44 0.18-1.02-0.31-1.39 0 0-1.81-1.42-1.8-1.41-0.47-0.37-1.09-0.4-1.43 0.04l-0.95 1.22L7.05 2.06l-6.63 8.49 6.96 5.43L14.01 7.49l-1.72-1.34z m-0.64-0.5L9.38 3.87l0.98-1.25 2.27 1.78-0.98 1.25z m-3.64 10.8l0.93 0.73c0.64 0.5 1.64 0.51 2.28-0.31 0 0 4.6-5.89 4.62-5.91 0.57-0.73 0.4-1.76-0.26-2.27l-0.94-0.73-6.63 8.49z"></path></g><g id="SvgjsG1665"><path d="M11.97 14.77l-2.87-7.28L9.52 6.95c0.47-0.61 0.02-1.38 0.02-1.38-0.26-0.54 0.12-0.96 0.12-0.96 0.41-0.53 1.02-0.33 1.23-0.17 0.35 0.28 0.55 0.74 0.23 1.22-0.49 0.75 0.44 1.19 0.89 0.63C12.43 5.76 12.67 4.44 11.56 3.57 10.36 2.64 9.1 3.54 8.81 3.91c-0.22 0.28-0.38 0.57-0.44 1-0.1 0.73 0.43 1.27 0.17 1.6l-0.26 0.34L0.46 5.8C-0.32 5.7-0.93 6.29-1.13 6.78c-0.19 0.48-0.17 1.25 0.54 1.81l10.03 7.83c0.79 0.62 1.51 0.45 1.92 0.15 0.43-0.31 0.92-0.94 0.6-1.8z m-1.83 0.78L0.11 7.72c-0.34-0.24-0.18-0.86 0.3-0.81L8.03 7.94l2.83 7.11c0.14 0.48-0.37 0.77-0.72 0.5z"></path></g><g id="SvgjsG1664"><path d="M11.38 6.02c0.52 0.4 1.27 0.31 1.68-0.22 0.41-0.52 0.32-1.28-0.2-1.68-0.52-0.41-1.27-0.31-1.68 0.21-0.41 0.52-0.32 1.28 0.2 1.69m-3.93 10.28L9.39 10.96 12.05 7.56c0.35-0.45-0.11-0.77-0.11-0.77L10.15 5.39s-0.07-0.07-0.32-0.06l-1.52-0.2-0.23-1.95c-0.01-0.35-0.3-0.63-0.65-0.61-0.35 0.01-0.62 0.33-0.61 0.68l0.29 2.49c0.02 0.17 0.09 0.34 0.24 0.46a0.65 0.65 0 0 0 0.36 0.13l1.31 0.21-1.94 2.49L2.3 12.26a0.89 0.89 0 0 0-0.18 1.25c0.29 0.39 0.85 0.47 1.24 0.16L7.5 10.9l-1.68 4.71c-0.19 0.46 0.01 0.98 0.47 1.16 0.45 0.19 0.97-0.02 1.16-0.47"></path><path d="M6.2 3.54a0.16 0.16 0 0 0 0.18 0.14l0.02-0.01c0.09-0.01 0.15-0.09 0.14-0.18l-0.05-0.49a0.16 0.16 0 0 0-0.17-0.14l-0.03 0c-0.09 0.01-0.15 0.09-0.14 0.18l0.05 0.5zM11.29 2.38l-2.97 0.5 0.03 0.35 3.01-0.16 2.05-0.18c0.09-0.02 0.17-0.06 0.24-0.14 0.13-0.17 0.1-0.41-0.06-0.54-0.08-0.06-0.17-0.09-0.27-0.08L11.29 2.38z"></path></g><g id="SvgjsG1675"><path d="M9.64 5.07c1.01 0.79 2.47 0.6 3.27-0.42C13.7 3.63 13.53 2.17 12.53 1.38S10.06 0.78 9.26 1.8c-0.79 1.02-0.63 2.48 0.38 3.27z m1.43 1.84c0.81 0.68 0.63 1.63 0.63 1.63l-0.23 5.83a1.33 1.33 0 0 1-0.28 0.73c-0.45 0.58-1.29 0.69-1.86 0.24-0.14-0.11-0.24-0.24-0.32-0.38l-1.27-1.73-1.28 1.64L0.82 10.47 2.1 8.83l-1.98-0.81a1.31 1.31 0 0 1-0.44-0.22C-0.89 7.35-0.99 6.51-0.54 5.93c0.17-0.22 0.39-0.37 0.64-0.44l5.61-1.63s0.88-0.4 1.73 0.21L11.07 6.91zM4.54 11.53l2.65 0.93-0.03-0.04c-1.12-1.57 0.96-3.06 2.07-1.5l0.15 0.22 1.71-2.19-3.55-1.27-2.09-3.13L3.74 6.74l0.25 0.08c1.79 0.7 0.84 3.08-0.95 2.38l-0.05-0.02 1.55 2.35zM8.43 18.49c0.14 0.11 0.35 0.09 0.46-0.06a0.33 0.33 0 0 0-0.05-0.47L-2.54 9.07c-0.14-0.11-0.35-0.09-0.47 0.06-0.11 0.15-0.09 0.35 0.06 0.47l11.38 8.89z"></path></g><g id="SvgjsG1667"><path d="M8.29 12.86c-2.89 0.35-5.51-1.7-5.87-4.58-0.35-2.89 1.7-5.51 4.58-5.86 1.37-0.17 3.4-0.1 5.45 1.49 3.74 2.92 5.68 2.85 5.68 2.85-3.51 4.5-6.95 5.75-9.84 6.1z"></path><path d="M2 7.92L2.34 6.4l7.76 0.52z"></path><path d="M10.1 6.92l0.19 1.62-11.51 1.41-0.2-1.61z"></path></g><g id="SvgjsG1670"><path d="M-1.52 9.83l11.45 8.95 0.93-1.19L0.6 9.57 4.5 4.58l13.89 3.38L19.36 6.72 2.13 2.52l-0.97 1.24 1.73 0.43z"></path><path d="M12.16 10.05l-0.5 0.64-1.04-0.82-0.57 2.01 1.57 1.22-0.5 0.64L9.81 12.71l-0.67 2.35-0.77-0.6 0.67-2.35L6.69 10.27l-2.12 1.22-0.77-0.6 2.12-1.21L4.61 8.65l0.49-0.63 1.58 1.22 1.8-1.04-1.05-0.82 0.5-0.64 4.23 3.31z m-2.88 1.23L9.85 9.27l-0.6-0.47-1.81 1.04 1.84 1.43z"></path></g><g id="SvgjsG1662"><path d="M2.08 2.6c-0.01 0.01-0.01 0.03-0.02 0.03l0.06-0.06c-0.01 0.01-0.02 0.02-0.04 0.03z"></path><path d="M6.11 4.13a0.54 0.54 0 1 0 0.84 0.66 0.54 0.54 0 1 0-0.84-0.66"></path><path d="M9.54 10.21zM9.79 15.37c-0.56-0.44-0.74-1.59-0.92-2.81a78.84 78.84 0 0 0-0.06-0.4l0.56-1.22a0.57 0.57 0 0 0-0.94-0.63c-0.3-1.07-0.8-2.07-1.74-2.81l3.17-4.05L8.34-0.19l-3.72-0.46-7.13 9.13 0.5 0.4L-1.48 8.2l1.69 1.32-0.52 0.68 0.5 0.39L0.72 9.92l2.03 1.58-0.53 0.68 0.51 0.39L5.9 8.52c1.19 0.93 1.45 2.61 1.7 4.24 0.23 1.48 0.44 2.88 1.4 3.63l0.17 0.13-0.53 0.67 0.51 0.4L9.68 16.92l0.5 0.39 0.8-1.01-1.19-0.93zM0.48 9.18L-1.21 7.86l0.53-0.67 1.69 1.32-0.53 0.67z m0.79-1.01L-0.42 6.85l0.53-0.68 1.69 1.32-0.53 0.68z m0.79-1.02L0.37 5.83l0.53-0.67 1.69 1.32-0.53 0.67z m4.12-0.04L5.66 6.7l0.47-1.02a0.57 0.57 0 0 0-1.04-0.48l-0.36 0.77L1.96 3.81 4.86 0.09l4.23 3.3-2.91 3.72z"></path></g><g id="SvgjsG1663"><path d="M9.69-0.83s-2.64 3.75 0.77 5.92S13.17 2.35 9.69-0.83m-5.85 14.32a2.32 2.32 0 0 1-2.11-0.4c-0.5-0.39-0.81-1.02-0.88-1.6-0.1-1.28 0.31-3.63 0.31-3.63C1.45 6.47 1.79 5.48 2.41 4.7c1.31-1.68 3.8-2.07 5.47-0.76 0.83 0.65 1.31 1.56 1.45 2.52a3.83 3.83 0 0 1 2.79 0.79c1.68 1.31 1.9 3.82 0.6 5.5-0.61 0.79-1.48 1.36-2.77 1.97 0 0-2.18 0.97-3.44 1.19-0.59 0.07-1.27-0.08-1.78-0.48a2.32 2.32 0 0 1-0.89-1.93" fill-rule="evenodd"></path></g><g id="SvgjsG1668"><path d="M2.06 4.42c1.51-0.31 3.46 0.16 4.53 1.33 1.46-1.59 2.5-3.32 4.57-4.22C8.41-0.34 4.07 2.71 2.06 4.42M13.66 8.7c1.06-0.22 2.62 0.46 2.82 1.61C16.65 6.43 15.69 3.12 11.73 1.74c1.86 2.65 1.79 6.27 1.93 6.96"></path><path d="M13.09 8.42C13.16 6.56 11.96 2.55 11.28 2.21c-0.73-0.37-3.7 3.08-4.24 3.89 0.92-0.41 1.91-0.49 2.83-0.31l-3.07 9.56 0.44 0.2 3.09-9.64c1.17 0.38 2.2 1.22 2.76 2.51"></path></g><g id="SvgjsG1671"><path d="M13.96 5.9L8.62 1.73C5.27-0.88 3.8 1.49 3.8 1.49l11.56 9.03S17.31 8.52 13.96 5.9zM1.99 10.22l5.34 4.17c3.35 2.62 4.83 0.23 4.83 0.23L0.6 5.59s-1.95 2.01 1.39 4.63z m10.49 2.95a1.26 1.26 0 0 0 1.77-0.22c0.42-0.54 0.33-1.33-0.22-1.76L3.43 2.91C2.88 2.48 2.09 2.57 1.66 3.12a1.26 1.26 0 0 0 0.22 1.76l10.6 8.29z" fill-rule="evenodd"></path></g><g id="SvgjsG1669"><path d="M0.84 7.38L-0.21 6.56l-1.62 2.06C-2.32 9.26-2.16 10.22-1.46 10.76l9.19 7.18c0.7 0.55 1.67 0.47 2.16-0.16L11.51 15.71l-1.05-0.82-1.45 1.85c-0.18 0.23-0.54 0.26-0.79 0.06L-0.47 10c-0.26-0.2-0.32-0.55-0.14-0.78L0.84 7.38z"></path><path d="M8.1 15.27l1.27-1.62L4.14 5.76l-1.27 1.63z m-2.33-8.23c-0.03-0.46-0.19-3.59 2.71-3.94C10.89 2.82 11.98 1.84 11.95 0.93c0 0 2.35 4.12-2.27 5.83-0.79 0.29-2.17 0.27-2.78 1.99l-1.13-1.71z m1.78 2.11c0.14-0.33 0.28-1.2 2.23-1.61 1.04-0.22 1.98-1 2.31-1.32 0 0 0.99 2.43-2.76 3.55l-1.78-0.62z m0.08 0.68l3.7 1.31-1.27 1.63-0.63-0.23zM4.61 11.21l-3.69-1.31 1.27-1.63 0.62 0.23z"></path></g><g id="SvgjsG1672"><path d="M12.2 3.54L10.35 2.09c-0.34-0.26-0.71 0.24-0.39 0.5l1.86 1.45-0.2 0.25L9.76 2.84c-0.33-0.26-0.71 0.24-0.38 0.5l1.85 1.44-0.2 0.26L9.17 3.59c-0.33-0.26-0.71 0.25-0.38 0.5l1.85 1.45-0.19 0.25L8.59 4.34c-0.33-0.25-0.71 0.25-0.39 0.5l1.86 1.45-0.2 0.25L8.01 5.09c-0.33-0.26-0.71 0.24-0.39 0.49l1.86 1.45-0.2 0.25L7.43 5.83c-0.33-0.25-0.72 0.24-0.39 0.49l1.86 1.45-0.2 0.26L6.84 6.58c-0.33-0.26-0.71 0.24-0.38 0.49l1.85 1.45L8.12 8.77 6.26 7.32c-0.33-0.26-0.71 0.24-0.38 0.49l1.85 1.45-3.76 4.82c-0.57 0.73 0.56 1.6 1.12 0.88L13.9 3.69C14.16 3.35 14.22 2.71 13.76 2.35L11.52 0.6c-0.34-0.26-0.71 0.24-0.39 0.49l1.85 1.46-0.19 0.24L10.93 1.34c-0.33-0.26-0.71 0.24-0.38 0.5l1.85 1.45-0.2 0.25z" fill-rule="evenodd"></path></g><g id="SvgjsG1673"><path d="M14.56 12.6L11.26 10.02 12.74 6.29l1.75 1.37L15.22 6.73l-7.77-6.06-0.72 0.93 1.82 1.42-3.25 2.34L1.95 2.74l-0.61 0.79 3.1 2.43-4.15 2.97 1.34 1.05 4.15-2.98 3.71 2.9-1.89 4.74L9 15.73l1.86-4.75L13.94 13.39l0.62-0.79z m-7.92-6.19L9.9 4.07l1.47 1.15-1.51 3.71L6.64 6.41z" fill-rule="evenodd"></path></g><g id="SvgjsG1666"><path d="M12.65 1.48l0.56 0.44-1.67 2.14L10.97 3.62 12.65 1.48z m-8.18 10.4l0.57 0.44-1.68 2.14-0.56-0.44 1.67-2.14z m8.03-1.07L14.64 12.49l-0.44 0.56L12.06 11.38l0.44-0.57zM2.06 2.6l2.15 1.68-0.44 0.56L1.62 3.17 2.06 2.6zM4.94 0.61l0.65-0.28 1.06 2.5-0.65 0.28L4.94 0.61z m4.03-0.53l0.72 0.07-0.29 2.71-0.71-0.08 0.28-2.7zM7.01 13.1l0.7 0.1-0.37 2.69-0.71-0.1 0.38-2.69z m2.81-0.22l0.66-0.28 1.06 2.5-0.66 0.28-1.06-2.5zM0.79 11.27l-0.28-0.66 2.51-1.06 0.28 0.66L0.79 11.27zM0.16 6.95L0.24 6.24l2.7 0.28-0.07 0.71-2.71-0.28zM13.17 9.01l0.1-0.71 2.69 0.37-0.1 0.71-2.69-0.37zM12.99 6.28l-0.28-0.66 2.5-1.06 0.28 0.66-2.5 1.06z m-8.44-1.02c1.5-1.92 4.28-2.26 6.2-0.77 1.92 1.5 2.26 4.28 0.76 6.21S7.23 12.96 5.31 11.46c-1.92-1.5-2.27-4.28-0.76-6.2"></path></g><g id="SvgjsG1676"><use xlink:href="#SvgjsG1662" transform="translate(0, 0) scale(1.9)" fill="rgba(199, 128, 250, 1)"></use><use xlink:href="#SvgjsG1663" transform="translate(0, 89.3) scale(1.9)" fill="rgba(122, 168, 116, 1)"></use><use xlink:href="#SvgjsG1664" transform="translate(0, 178.6) scale(1.9)" fill="rgba(190, 240, 203, 1)"></use><use xlink:href="#SvgjsG1665" transform="translate(0, 267.9) scale(1.9)" fill="rgba(251, 241, 211, 1)"></use><use xlink:href="#SvgjsG1666" transform="translate(0, 357.2) scale(1.9)" fill="rgba(227, 172, 249, 1)"></use><use xlink:href="#SvgjsG1667" transform="translate(0, 446.5) scale(1.9)" fill="rgba(199, 128, 250, 1)"></use><use xlink:href="#SvgjsG1668" transform="translate(0, 535.8) scale(1.9)" fill="rgba(190, 240, 203, 1)"></use><use xlink:href="#SvgjsG1662" transform="translate(89.3, 0) scale(1.9)" fill="rgba(199, 128, 250, 1)"></use><use xlink:href="#SvgjsG1669" transform="translate(89.3, 89.3) scale(1.9)" fill="rgba(250, 218, 157, 1)"></use><use xlink:href="#SvgjsG1670" transform="translate(89.3, 178.6) scale(1.9)" fill="rgba(251, 241, 211, 1)"></use><use xlink:href="#SvgjsG1663" transform="translate(89.3, 267.9) scale(1.9)" fill="rgba(250, 218, 157, 1)"></use><use xlink:href="#SvgjsG1667" transform="translate(89.3, 357.2) scale(1.9)" fill="rgba(250, 218, 157, 1)"></use><use xlink:href="#SvgjsG1664" transform="translate(89.3, 446.5) scale(1.9)" fill="rgba(251, 241, 211, 1)"></use><use xlink:href="#SvgjsG1663" transform="translate(89.3, 535.8) scale(1.9)" fill="rgba(122, 168, 116, 1)"></use><use xlink:href="#SvgjsG1671" transform="translate(178.6, 0) scale(1.9)" fill="rgba(251, 241, 211, 1)"></use><use xlink:href="#SvgjsG1662" transform="translate(178.6, 89.3) scale(1.9)" fill="rgba(251, 241, 211, 1)"></use><use xlink:href="#SvgjsG1672" transform="translate(178.6, 178.6) scale(1.9)" fill="rgba(227, 172, 249, 1)"></use><use xlink:href="#SvgjsG1672" transform="translate(178.6, 267.9) scale(1.9)" fill="rgba(190, 240, 203, 1)"></use><use xlink:href="#SvgjsG1673" transform="translate(178.6, 357.2) scale(1.9)" fill="rgba(251, 241, 211, 1)"></use><use xlink:href="#SvgjsG1673" transform="translate(178.6, 446.5) scale(1.9)" fill="rgba(250, 218, 157, 1)"></use><use xlink:href="#SvgjsG1669" transform="translate(178.6, 535.8) scale(1.9)" fill="rgba(190, 240, 203, 1)"></use><use xlink:href="#SvgjsG1664" transform="translate(267.9, 0) scale(1.9)" fill="rgba(199, 128, 250, 1)"></use><use xlink:href="#SvgjsG1673" transform="translate(267.9, 89.3) scale(1.9)" fill="rgba(250, 218, 157, 1)"></use><use xlink:href="#SvgjsG1665" transform="translate(267.9, 178.6) scale(1.9)" fill="rgba(250, 218, 157, 1)"></use><use xlink:href="#SvgjsG1663" transform="translate(267.9, 267.9) scale(1.9)" fill="rgba(199, 128, 250, 1)"></use><use xlink:href="#SvgjsG1674" transform="translate(267.9, 357.2) scale(1.9)" fill="rgba(251, 241, 211, 1)"></use><use xlink:href="#SvgjsG1674" transform="translate(267.9, 446.5) scale(1.9)" fill="rgba(122, 168, 116, 1)"></use><use xlink:href="#SvgjsG1668" transform="translate(267.9, 535.8) scale(1.9)" fill="rgba(250, 218, 157, 1)"></use><use xlink:href="#SvgjsG1665" transform="translate(357.2, 0) scale(1.9)" fill="rgba(122, 168, 116, 1)"></use><use xlink:href="#SvgjsG1671" transform="translate(357.2, 89.3) scale(1.9)" fill="rgba(251, 241, 211, 1)"></use><use xlink:href="#SvgjsG1664" transform="translate(357.2, 178.6) scale(1.9)" fill="rgba(250, 218, 157, 1)"></use><use xlink:href="#SvgjsG1672" transform="translate(357.2, 267.9) scale(1.9)" fill="rgba(250, 218, 157, 1)"></use><use xlink:href="#SvgjsG1666" transform="translate(357.2, 357.2) scale(1.9)" fill="rgba(199, 128, 250, 1)"></use><use xlink:href="#SvgjsG1670" transform="translate(357.2, 446.5) scale(1.9)" fill="rgba(251, 241, 211, 1)"></use><use xlink:href="#SvgjsG1675" transform="translate(357.2, 535.8) scale(1.9)" fill="rgba(199, 128, 250, 1)"></use><use xlink:href="#SvgjsG1674" transform="translate(446.5, 0) scale(1.9)" fill="rgba(199, 128, 250, 1)"></use><use xlink:href="#SvgjsG1663" transform="translate(446.5, 89.3) scale(1.9)" fill="rgba(250, 218, 157, 1)"></use><use xlink:href="#SvgjsG1665" transform="translate(446.5, 178.6) scale(1.9)" fill="rgba(251, 241, 211, 1)"></use><use xlink:href="#SvgjsG1673" transform="translate(446.5, 267.9) scale(1.9)" fill="rgba(251, 241, 211, 1)"></use><use xlink:href="#SvgjsG1675" transform="translate(446.5, 357.2) scale(1.9)" fill="rgba(190, 240, 203, 1)"></use><use xlink:href="#SvgjsG1670" transform="translate(446.5, 446.5) scale(1.9)" fill="rgba(199, 128, 250, 1)"></use><use xlink:href="#SvgjsG1671" transform="translate(446.5, 535.8) scale(1.9)" fill="rgba(122, 168, 116, 1)"></use><use xlink:href="#SvgjsG1675" transform="translate(535.8, 0) scale(1.9)" fill="rgba(199, 128, 250, 1)"></use><use xlink:href="#SvgjsG1663" transform="translate(535.8, 89.3) scale(1.9)" fill="rgba(227, 172, 249, 1)"></use><use xlink:href="#SvgjsG1662" transform="translate(535.8, 178.6) scale(1.9)" fill="rgba(251, 241, 211, 1)"></use><use xlink:href="#SvgjsG1671" transform="translate(535.8, 267.9) scale(1.9)" fill="rgba(227, 172, 249, 1)"></use><use xlink:href="#SvgjsG1664" transform="translate(535.8, 357.2) scale(1.9)" fill="rgba(122, 168, 116, 1)"></use><use xlink:href="#SvgjsG1673" transform="translate(535.8, 446.5) scale(1.9)" fill="rgba(250, 218, 157, 1)"></use><use xlink:href="#SvgjsG1672" transform="translate(535.8, 535.8) scale(1.9)" fill="rgba(122, 168, 116, 1)"></use><use xlink:href="#SvgjsG1672" transform="translate(625.1, 0) scale(1.9)" fill="rgba(199, 128, 250, 1)"></use><use xlink:href="#SvgjsG1670" transform="translate(625.1, 89.3) scale(1.9)" fill="rgba(251, 241, 211, 1)"></use><use xlink:href="#SvgjsG1674" transform="translate(625.1, 178.6) scale(1.9)" fill="rgba(250, 218, 157, 1)"></use><use xlink:href="#SvgjsG1671" transform="translate(625.1, 267.9) scale(1.9)" fill="rgba(227, 172, 249, 1)"></use><use xlink:href="#SvgjsG1671" transform="translate(625.1, 357.2) scale(1.9)" fill="rgba(250, 218, 157, 1)"></use><use xlink:href="#SvgjsG1666" transform="translate(625.1, 446.5) scale(1.9)" fill="rgba(227, 172, 249, 1)"></use><use xlink:href="#SvgjsG1666" transform="translate(625.1, 535.8) scale(1.9)" fill="rgba(250, 218, 157, 1)"></use><use xlink:href="#SvgjsG1665" transform="translate(714.4, 0) scale(1.9)" fill="rgba(122, 168, 116, 1)"></use><use xlink:href="#SvgjsG1663" transform="translate(714.4, 89.3) scale(1.9)" fill="rgba(122, 168, 116, 1)"></use><use xlink:href="#SvgjsG1667" transform="translate(714.4, 178.6) scale(1.9)" fill="rgba(227, 172, 249, 1)"></use><use xlink:href="#SvgjsG1668" transform="translate(714.4, 267.9) scale(1.9)" fill="rgba(250, 218, 157, 1)"></use><use xlink:href="#SvgjsG1668" transform="translate(714.4, 357.2) scale(1.9)" fill="rgba(251, 241, 211, 1)"></use><use xlink:href="#SvgjsG1665" transform="translate(714.4, 446.5) scale(1.9)" fill="rgba(250, 218, 157, 1)"></use><use xlink:href="#SvgjsG1674" transform="translate(714.4, 535.8) scale(1.9)" fill="rgba(250, 218, 157, 1)"></use><use xlink:href="#SvgjsG1672" transform="translate(803.6999999999999, 0) scale(1.9)" fill="rgba(251, 241, 211, 1)"></use><use xlink:href="#SvgjsG1669" transform="translate(803.6999999999999, 89.3) scale(1.9)" fill="rgba(122, 168, 116, 1)"></use><use xlink:href="#SvgjsG1664" transform="translate(803.6999999999999, 178.6) scale(1.9)" fill="rgba(250, 218, 157, 1)"></use><use xlink:href="#SvgjsG1673" transform="translate(803.6999999999999, 267.9) scale(1.9)" fill="rgba(122, 168, 116, 1)"></use><use xlink:href="#SvgjsG1665" transform="translate(803.6999999999999, 357.2) scale(1.9)" fill="rgba(190, 240, 203, 1)"></use><use xlink:href="#SvgjsG1675" transform="translate(803.6999999999999, 446.5) scale(1.9)" fill="rgba(190, 240, 203, 1)"></use><use xlink:href="#SvgjsG1664" transform="translate(803.6999999999999, 535.8) scale(1.9)" fill="rgba(190, 240, 203, 1)"></use></g></defs></svg>