<svg xmlns="http://www.w3.org/2000/svg" version="1.1" viewBox="-5.0 -10.0 110.0 135.0">
 <path d="m73.023 78.219c0.29297 0.29297 0.6875 0.45703 1.1055 0.45703 0.41406 0 0.8125-0.16406 1.1055-0.45703l9.75-9.75c0.60938-0.60938 0.60938-1.5977 0-2.2109-0.60938-0.60937-1.5977-0.60937-2.2109 0l-8.6445 8.6445-5.5391-5.5391c-0.60938-0.60938-1.5977-0.60938-2.2109 0-0.60938 0.60938-0.60938 1.5977 0 2.2109z"/>
 <path d="m3.6094 66.016v13.672c0 0.86328 0.69922 1.5625 1.5625 1.5625h49.531c1.0781 2.4297 2.5078 4.6562 4.3125 6.5625 3.7344 3.9492 8.7578 6.9727 14.934 8.9883 0.16016 0.050781 0.32031 0.078125 0.48438 0.078125 0.16406 0 0.32812-0.027344 0.48438-0.078125 6.1719-2.0156 11.195-5.0391 14.934-8.9883 4.2148-4.4531 6.5352-10.574 6.5352-17.234v-16.652c0-0.46484-0.20703-0.90625-0.56641-1.2031-0.35937-0.29688-0.82812-0.42188-1.2891-0.32812-12.738 2.4492-19.012-2.7422-19.066-2.7891-0.58594-0.50781-1.4609-0.50781-2.0508-0.007813-0.019531 0.015625-0.74219 0.60156-2.1406 1.2852-4.7148-7.5547-12.711-12.449-21.555-13.266 5.1875-3.3359 8.6367-9.1445 8.6367-15.754 0-10.328-8.4023-18.734-18.734-18.734-10.328 0-18.734 8.4023-18.734 18.734 0 6.6094 3.4492 12.418 8.6328 15.754-14.512 1.3359-25.918 13.559-25.918 28.402zm70.824-13.312c2.3125 1.5 8.5234 4.5859 18.828 3.0703v14.805c0 5.8555-2.0156 11.215-5.6797 15.086-3.2773 3.4648-7.6992 6.1562-13.148 8.0039-5.4492-1.8477-9.8711-4.5391-13.148-8.0039-1.7695-1.8711-3.1445-4.0938-4.1055-6.5469-0.011719-0.027344-0.023438-0.050782-0.03125-0.078126-1.0078-2.6055-1.543-5.4688-1.543-8.4648v-14.805c10.305 1.5156 16.512-1.5703 18.828-3.0703zm-50.418-30.844c0-8.6055 7-15.609 15.609-15.609 8.6055 0 15.609 7 15.609 15.609 0 8.6055-7 15.609-15.609 15.609-8.6055 0-15.609-7-15.609-15.609zm8.1445 18.742h14.934c8.5859 0 16.547 4.332 21.211 11.418-3.1641 0.94531-7.8047 1.5547-13.965 0.36719-0.46484-0.089844-0.93359 0.03125-1.2891 0.32812-0.35938 0.29688-0.56641 0.73828-0.56641 1.2031v16.652c0 2.625 0.375 5.1602 1.0703 7.5469l-46.82 0.007812v-12.109c0-14.012 11.406-25.414 25.43-25.414z"/>
</svg>