<svg xmlns="http://www.w3.org/2000/svg" version="1.1" viewBox="-5.0 -10.0 110.0 135.0">
 <path d="m96.5 58.172c-0.015625-0.03125-0.019531-0.0625-0.035156-0.089844l-10.406-19.125c-0.27344-0.50391-0.80078-0.81641-1.375-0.81641h-16.812v-9.7188c0-0.86328-0.69922-1.5625-1.5625-1.5625h-22.328v-8.5469c0-0.44531-0.19141-0.875-0.52734-1.168-0.33594-0.29688-0.78125-0.4375-1.2227-0.38281-11.84 1.4258-17.645-3.0117-17.695-3.0508-0.57031-0.45703-1.3828-0.45703-1.9531-0.007813-0.058593 0.046875-5.8828 4.4844-17.715 3.0586-0.44531-0.054688-0.89063 0.085937-1.2227 0.38281-0.33594 0.29688-0.52734 0.72266-0.52734 1.168v14.527c0 7.3086 3.0703 14.082 8.4297 18.586 0.082031 0.066407 0.17188 0.125 0.25391 0.1875v26.309c0 0.86328 0.69922 1.5625 1.5625 1.5625h8.9648c0.74219 4.0625 4.3008 7.1523 8.5742 7.1523 4.2734 0 7.832-3.0898 8.5742-7.1523h26.828c0.011718 0 0.019531-0.007813 0.03125-0.007813h4.6562c0.74219 4.0625 4.3008 7.1562 8.5742 7.1562 4.2734 0 7.8398-3.0977 8.5781-7.168h6.9453c0.86328 0 1.5625-0.69922 1.5625-1.5625v-19.078c0-0.1875-0.042969-0.36719-0.10938-0.53906-0.015625-0.039062-0.027344-0.078125-0.046875-0.11719zm-4.0352-0.90625h-16.605v-10.312h10.992zm-86.215-24.426v-12.797c9.4492 0.76172 15.152-1.9297 17.312-3.2344 2.1523 1.3047 7.8516 3.9922 17.301 3.2344v12.797c0 6.3828-2.6641 12.285-7.3125 16.188-2.7578 2.3086-6.1172 4.0703-9.9883 5.2422-3.875-1.1719-7.2383-2.9297-9.9961-5.2383-4.6484-3.9062-7.3164-9.8086-7.3164-16.191zm24.664 50.672c-3.0859 0-5.5977-2.5117-5.5977-5.5977 0-3.0859 2.5117-5.5977 5.5977-5.5977 3.0859 0 5.5977 2.5117 5.5977 5.5977 0 3.0859-2.5117 5.5977-5.5977 5.5977zm33.836-7.1523h-25.262c-0.73438-4.0703-4.2969-7.1719-8.5781-7.1719-4.2773 0-7.8398 3.1016-8.5781 7.1719h-7.3984v-22.555c2.4531 1.5039 5.1758 2.7266 8.1914 3.5938 0.14062 0.039062 0.28906 0.0625 0.42969 0.0625 0.14844 0 0.29297-0.019532 0.43359-0.0625 4.4727-1.2891 8.3633-3.3008 11.562-5.9766 5.3594-4.5039 8.4297-11.277 8.4297-18.586v-2.8555h20.766v46.375zm14.824 7.1523c-3.0781 0-5.5781-2.4961-5.5938-5.5664 0-0.011718 0.007812-0.019531 0.007812-0.03125 0-0.011718-0.007812-0.019531-0.007812-0.03125 0.015625-3.0742 2.5195-5.5703 5.5938-5.5703 3.0781 0 5.5938 2.5078 5.5977 5.5898v0.003906 0.007812c0 3.0859-2.5117 5.5977-5.5977 5.5977zm8.5742-7.168c-0.74219-4.0625-4.3008-7.1562-8.5742-7.1562-4.2734 0-7.8359 3.0977-8.5781 7.1641h-3.125v-35.086h15.883l1.3945 2.5625h-10.855c-0.86328 0-1.5625 0.69922-1.5625 1.5625v13.438c0 0.86328 0.69922 1.5625 1.5625 1.5625h19.234v15.953h-5.3828z"/>
 <path d="m76.102 61.805h-1.8047c-0.86328 0-1.5625 0.69922-1.5625 1.5625 0 0.86328 0.69922 1.5625 1.5625 1.5625h1.8047c0.86328 0 1.5625-0.69922 1.5625-1.5625 0-0.86328-0.69922-1.5625-1.5625-1.5625z"/>
</svg>