<svg xmlns="http://www.w3.org/2000/svg" version="1.1" viewBox="-5.0 -10.0 110.0 135.0">
 <path fill="#55595c" d="m19.672 91.109c-5.8281-0.91016-10.309-5.9688-10.309-12.039v-2.2695c0-1.5508 1.2617-2.8086 2.8086-2.8086h7.5v17.121zm7.7695-36.281h13.898c1.0312 0 1.8711 0.83984 1.8711 1.8711v1.5391c0 1.0312-0.83984 1.8711-1.8711 1.8711h-13.898c-1.0312 0-1.8711-0.83984-1.8711-1.8711v-1.5391c0-1.0312 0.83984-1.8711 1.8711-1.8711zm31.23 0h13.898c1.0312 0 1.8711 0.83984 1.8711 1.8711v1.5391c0 1.0312-0.83984 1.8711-1.8711 1.8711h-13.898c-1.0312 0-1.8711-0.83984-1.8711-1.8711v-1.5391c0-1.0312 0.83984-1.8711 1.8711-1.8711zm-33.383 40.172h49.41c2.0703 0 3.75-1.6797 3.75-3.75v-40.211c-1.1914 0.42969-2.4805 0.67188-3.8203 0.67188h-3.6016v1.25h1.5195c2.0703 0 3.75 1.6797 3.75 3.75v1.5391c0 2.0703-1.6797 3.75-3.75 3.75h-1.5195v0.83984c0 2.9883-2.4414 5.4219-5.4219 5.4219s-5.4219-2.4414-5.4219-5.4219v-0.83984h-1.5195c-2.0703 0-3.75-1.6797-3.75-3.75v-1.5391c0-2.0703 1.6797-3.75 3.75-3.75h1.5195v-1.25h-20.391v1.25h1.5195c2.0703 0 3.75 1.6797 3.75 3.75v1.5391c0 2.0703-1.6797 3.75-3.75 3.75h-1.5195v0.83984c0 2.9883-2.4414 5.4219-5.4219 5.4219-2.9805 0-5.4219-2.4414-5.4219-5.4219v-0.83984h-1.5195c-2.0703 0-3.75-1.6797-3.75-3.75v-1.5391c0-2.0703 1.6797-3.75 3.75-3.75h1.5195v-1.25h-3.6016c-1.3398 0-2.6211-0.23828-3.8203-0.67188v40.211c0 2.0703 1.6797 3.75 3.75 3.75zm40.762-23.238c0.76953 0 1.3984 0.62891 1.3984 1.3984 0 0.76953-0.62891 1.3984-1.3984 1.3984h-32.09c-0.76953 0-1.3984-0.62891-1.3984-1.3984 0-0.76953 0.62891-1.3984 1.3984-1.3984zm-30.859 4.668h29.609v6.5898c0 2.5781-2.1094 4.6914-4.6914 4.6914h-20.238c-2.5781 0-4.6914-2.1094-4.6914-4.6914v-6.5898zm31.488-0.058594v6.6484c0 3.6211-2.9492 6.5586-6.5586 6.5586h-20.238c-3.6211 0-6.5586-2.9492-6.5586-6.5586v-6.6484c-1.5312-0.30078-2.6406-1.6484-2.6406-3.2109 0-1.8008 1.4688-3.2812 3.2812-3.2812h32.09c1.8008 0 3.2812 1.4688 3.2812 3.2812 0 1.5586-1.1094 2.9102-2.6406 3.2109zm-33.969-43.34h3.3516c1.0312 0 1.8711 0.83984 1.8711 1.8711v18.059h-7.1016v-18.059c0-1.0312 0.83984-1.8711 1.8711-1.8711zm5.2188 28.969v0.83984c0 1.9492-1.6016 3.5508-3.5508 3.5508-1.9492 0-3.5508-1.6016-3.5508-3.5508v-0.83984zm26.012-28.969h3.3516c1.0312 0 1.8711 0.83984 1.8711 1.8711v18.059h-7.1016v-18.059c0-1.0312 0.83984-1.8711 1.8711-1.8711zm5.2305 28.969v0.83984c0 1.9492-1.6016 3.5508-3.5508 3.5508-1.9492 0-3.5508-1.6016-3.5508-3.5508v-0.83984zm-48.5-40.969c-2.5781 0-4.6914 2.1094-4.6914 4.6914v14.738c0 5.1602 4.2109 9.3711 9.3711 9.3711h3.6016v-14.93c0-2.0703 1.6797-3.75 3.75-3.75h3.3516c2.0703 0 3.75 1.6797 3.75 3.75v14.93h20.391v-14.93c0-2.0703 1.6797-3.75 3.75-3.75h3.3516c2.0703 0 3.75 1.6797 3.75 3.75v14.93h3.6016c5.1602 0 9.3711-4.2109 9.3711-9.3711v-14.738c0-2.5781-2.1094-4.6914-4.6914-4.6914zm57.789-1.8711v-10.41c0-2.0703-1.6797-3.75-3.75-3.75h-10.711c-2.0703 0-3.75 1.6797-3.75 3.75v10.41zm-38.711 0v-10.41c0-2.0703-1.6797-3.75-3.75-3.75h-10.711c-2.0703 0-3.75 1.6797-3.75 3.75v10.41zm14.238 0v-2.0781c0-2.1914-1.8008-3.9883-3.9883-3.9883-2.1914 0-3.9883 1.8008-3.9883 3.9883v2.0781h-1.8789v-2.0781c0-3.2305 2.6406-5.8594 5.8594-5.8594s5.8594 2.6406 5.8594 5.8594v2.0781h-1.8789zm26.34 71.949c5.8281-0.91016 10.309-5.9688 10.309-12.039v-2.2695c0-1.5508-1.2617-2.8086-2.8086-2.8086h-7.5v17.121z" fill-rule="evenodd"/>
</svg>