<svg xmlns="http://www.w3.org/2000/svg" xmlns:xlink="http://www.w3.org/1999/xlink" version="1.1" x="0px" y="0px" viewBox="0 0 488.033 610.03125" style="enable-background:new 0 0 488.033 488.025;" xml:space="preserve"><g><path fill="#55595c" d="M225.463,229.63c-0.689,1.095-0.925,2.406-0.666,3.693c0.441,2.193,2.268,3.783,4.345,3.783   c0.295,0,0.591-0.032,0.88-0.096c10.339-2.25,20.615-3.391,30.55-3.391c22.549,0,44.096,5.829,64.04,17.324   c0.646,0.373,1.37,0.57,2.096,0.57c1.593-0.001,3.075-0.925,3.867-2.413c1.233-2.316,0.426-5.34-1.764-6.601   c-21.263-12.257-44.2-18.472-68.179-18.472c-10.531,0-21.42,1.208-32.363,3.59C227.116,227.868,226.12,228.583,225.463,229.63z"/><path fill="#55595c" d="M247.004,190.62c0.286,0,0.572-0.03,0.854-0.089c10.484-2.201,20.8-3.317,30.661-3.317   c20.738,0,40.122,4.901,57.611,14.566c0.627,0.346,1.327,0.53,2.024,0.53c1.626-0.001,3.122-0.954,3.906-2.487   c0.592-1.158,0.714-2.489,0.343-3.749c-0.361-1.227-1.148-2.229-2.213-2.817c-18.768-10.373-39.501-15.632-61.626-15.632   c-10.438,0-21.341,1.178-32.404,3.501c-1.153,0.242-2.154,0.949-2.82,1.992c-0.694,1.088-0.938,2.397-0.688,3.688   C243.08,189.016,244.911,190.621,247.004,190.62z"/><path fill="#55595c" d="M236.951,193.359c-7.713-1.565-15.656-2.368-23.645-2.368c-7.785,0-15.805,0.757-23.902,2.23   c-1.773,4.534-3.621,8.969-5.531,13.265c2.615-0.292,5.224-0.501,7.825-0.603c16.44-0.645,32.071,2.406,46.539,9.054   c1.678-5.47,3.292-11.154,4.835-16.986C240.615,197.104,238.471,195.494,236.951,193.359z"/><path fill="#55595c" d="M251.329,197.999c-1.675,6.441-3.438,12.723-5.278,18.752c4.909-0.472,9.78-0.724,14.581-0.724   c20.626,0,40.517,4.336,59.31,12.911c2.257-7.581,4.306-15.391,6.12-23.327c-14.638-6.903-30.598-10.397-47.543-10.397   C269.78,195.214,260.64,196.159,251.329,197.999z"/><path fill="#55595c" d="M236.67,243.85c-1.774,4.534-3.621,8.969-5.531,13.265c2.615-0.292,5.224-0.501,7.825-0.603   c23.159-0.904,44.787,5.559,63.38,18.817c2.52-5.357,4.923-10.85,7.16-16.396c0.754-1.869,1.497-3.782,2.232-5.707   c-16.17-7.696-33.335-11.606-51.163-11.606C252.788,241.62,244.768,242.376,236.67,243.85z"/><path fill="#55595c" d="M171.867,311.365c-0.602,1.151-0.735,2.481-0.377,3.745c0.568,1.999,2.318,3.395,4.256,3.395   c0.411,0,0.82-0.062,1.217-0.184c9.809-3.012,19.66-4.539,29.285-4.539c24.182,0,46.007,9.408,63.116,27.206   c0.847,0.881,1.916,1.347,3.093,1.347c1.176,0,2.244-0.465,3.09-1.346c0.878-0.912,1.36-2.135,1.36-3.445s-0.482-2.533-1.359-3.444   c-18.817-19.576-42.749-29.923-69.205-29.923c-10.464,0-21.168,1.658-31.814,4.928   C173.393,309.454,172.448,310.256,171.867,311.365z"/><path fill="#55595c" d="M231.161,348.527c8.338,5.249,19.162,3.655,25.733-3.795c0.735-0.834,1.471-1.68,2.203-2.53   c-14.814-13.37-32.954-20.421-52.85-20.421c-8.599,0-17.42,1.347-26.231,3.984c-2.907,2.348-5.843,4.576-8.8,6.695   C193.138,331.876,213.245,337.25,231.161,348.527z"/><path fill="#55595c" d="M215.539,286.524c-2.149,3.308-4.421,6.54-6.795,9.682c24.769,0.543,47.394,9.504,66.049,26.082   c5.579-7.758,10.82-15.874,15.646-24.205c-14.68-11.2-31.982-16.711-50.617-15.981   C231.816,282.418,223.659,283.912,215.539,286.524z"/><path fill="#55595c" d="M216.954,234.901c-0.044-0.22-0.068-0.441-0.101-0.661c-7.771-2.16-15.929-3.099-24.296-2.767   c-8.007,0.316-16.164,1.81-24.283,4.422c-2.152,3.312-4.427,6.548-6.804,9.693c18.576,0.401,35.833,5.476,51.359,15.101   c2.947-0.821,5.899-1.529,8.85-2.113c2.04-4.37,4.026-8.905,5.929-13.58C222.397,244.323,218.038,240.292,216.954,234.901z"/><path fill="#55595c" d="M209.2,280.028c0.41-0.016,0.817-0.094,1.212-0.232c9.688-3.395,19.478-5.308,29.096-5.688   c1.214-0.048,2.423-0.071,3.626-0.071c22.756,0,43.587,8.523,60.442,24.778c0.876,0.845,1.94,1.268,3.132,1.221   c1.178-0.046,2.231-0.555,3.047-1.471c0.847-0.949,1.286-2.193,1.238-3.502c-0.048-1.307-0.572-2.507-1.479-3.38   c-19.515-18.82-43.782-28.221-70.237-27.175c-10.456,0.412-21.092,2.49-31.613,6.177c-1.127,0.395-2.045,1.237-2.586,2.371   c-0.561,1.176-0.646,2.511-0.242,3.759C205.474,278.782,207.276,280.119,209.2,280.028z"/><path fill="#55595c" d="M298.463,350.538c0-5.143-3.953-9.327-8.812-9.327c-4.859,0-8.813,4.184-8.813,9.327s3.953,9.327,8.813,9.327   C294.51,359.866,298.463,355.682,298.463,350.538z"/><path fill="#55595c" d="M284.157,426.861c9.771-1.488,18.269-3.789,25.846-6.582c-4.124-6.588-13.209-19.905-23.702-27.75   c-14.437-10.794-44.694-15.424-58.414-11.507c-5.897,1.684-10.527,4.24-15.428,6.946c-7.398,4.084-15.048,8.308-27.081,9.451   c-19.376,1.846-74.731-9.102-99.363-21.237c-7.778,3.998-14.394,8.114-19.278,12.809c-4.328,4.16-7.984,8.741-10.926,13.591   c12.324-0.502,36.885-0.25,48.504,8.636c5.119,3.914,8.567,8.381,11.709,12.813C131.143,425.354,236.328,434.148,284.157,426.861z    M226.244,401.714c0-2.209,1.791-4,4-4h38.083c2.209,0,4,1.791,4,4s-1.791,4-4,4h-38.083   C228.035,405.714,226.244,403.923,226.244,401.714z"/><path fill="#55595c" d="M361.272,262.834c-2.914,5.163-8.329,8.651-14.53,8.651c-7.682,0-14.162-5.344-16.162-12.611   c-1.231,0.414-2.533,0.639-3.869,0.639h-0.002c-2.128,0-4.235-0.567-6.094-1.64c-0.571-0.329-1.148-0.638-1.722-0.958   c-0.65,1.689-1.307,3.365-1.97,5.008c-2.514,6.237-5.239,12.405-8.101,18.4c2.128,1.771,4.211,3.636,6.245,5.597   c1.438,1.385,2.504,3.069,3.164,4.92c1.978-0.844,4.141-1.316,6.412-1.316c9.271,0,16.813,7.773,16.813,17.327   s-7.542,17.327-16.813,17.327c-8.91,0-16.203-7.187-16.758-16.228c-0.286,0.031-0.571,0.066-0.862,0.078   c-0.163,0.006-0.327,0.009-0.49,0.009c-3.176,0-6.181-1.22-8.51-3.466c-0.449-0.433-0.912-0.837-1.367-1.258   c-4.95,8.453-10.323,16.678-16.025,24.544c0.228,0.233,0.458,0.461,0.685,0.696c1.503,1.563,2.559,3.458,3.121,5.52   c1.643-0.554,3.394-0.864,5.214-0.864c9.27,0,16.812,7.773,16.812,17.327s-7.542,17.327-16.812,17.327   c-9.271,0-16.813-7.773-16.813-17.327c0-0.076,0.01-0.149,0.011-0.225c-0.131,0.004-0.261,0.02-0.393,0.02   c-2.768,0-5.386-0.932-7.542-2.629c-0.672,0.778-1.345,1.554-2.019,2.319c-5.55,6.292-13.278,9.591-21.104,9.591   c-5.117,0-10.274-1.411-14.893-4.317c-20.333-12.797-43.803-17.362-69.762-13.595c-16.172,9.756-32.503,16.956-47.494,23.552   c-4.962,2.183-9.728,4.284-14.239,6.37c25.367,10.387,72.526,19.417,89.217,17.828c10.378-0.986,16.98-4.631,23.97-8.491   c5.077-2.802,10.326-5.701,17.098-7.634c15.829-4.518,48.531,0.18,65.402,12.792c12.328,9.217,22.447,24.553,26.442,31.105   c12.03-5.341,21.652-11.835,30.604-17.876c11.38-7.681,21.208-14.314,32.967-16.335c11.443-1.969,20.547-0.772,28.473,1.269   c28.004-12.481,50.737-25.578,67.646-38.98C443.412,305.529,404.437,277.807,361.272,262.834z"/><path fill="#55595c" d="M439.311,391.448c13.982-0.352,36.794-15.74,43.539-20.509c-0.636-4.052-1.297-8.187-1.964-12.357   c-0.282-1.762-0.566-3.538-0.851-5.328c-15.531,11.989-34.936,23.373-58.923,34.562   C427.461,389.892,433.083,391.597,439.311,391.448z"/><path fill="#55595c" d="M417.318,394.992c-9.904-3.256-20.146-6.623-34.858-4.092c-10.064,1.73-19.231,7.917-29.848,15.082   c-15.81,10.67-35.484,23.95-67.25,28.789c-14.345,2.185-33.396,2.985-53.577,2.985c-42.555,0.001-90.177-3.553-109.561-5.162   c4.568,5.744,10.341,11.034,21.127,15.285c23.308,9.185,146.272,8.474,172.836-3.651c10.722-4.895,19.732-11.148,28.446-17.195   c12.487-8.666,24.281-16.851,38.327-18.524c13.345-1.593,21.771,1.023,29.924,3.552c6.221,1.929,12.097,3.75,20.418,3.936   c16.164,0.335,44.967-18.264,52.728-23.488c-0.535-4.039-1.152-8.321-1.822-12.767c-9.673,6.566-30.283,19.342-44.695,19.705   C431.48,399.648,424.602,397.386,417.318,394.992z"/><path fill="#55595c" d="M214.781,97.651c-1.458,8.109-2.916,15.627-4.414,22.767c7.106-0.944,14.109-1.422,20.932-1.422   c9.241,0,18.354,0.88,27.147,2.617c0.381-2.354,0.755-4.68,1.119-6.944c1.068-6.652,2.064-12.849,3.042-18.545   c-6.659-1.264-13.419-1.911-20.15-1.911C233.376,94.213,224.07,95.377,214.781,97.651z"/><path fill="#55595c" d="M254.282,133.555c-0.652,1.118-0.848,2.438-0.548,3.716c0.499,2.134,2.271,3.624,4.311,3.624   c0.343,0,0.687-0.043,1.021-0.128c10.271-2.604,20.584-3.924,30.657-3.924c19.588,0,38.843,4.959,57.231,14.739   c0.61,0.325,1.289,0.496,1.965,0.496c1.654,0,3.163-0.979,3.938-2.555c1.159-2.357,0.259-5.349-1.965-6.533   c-19.64-10.444-40.204-15.74-61.121-15.74c-10.762,0-21.776,1.41-32.739,4.19C255.886,131.73,254.909,132.481,254.282,133.555z"/><path fill="#55595c" d="M262.046,148.28c-1.458,8.109-2.916,15.627-4.414,22.767c7.106-0.944,14.109-1.422,20.932-1.422   c18.499,0,36.089,3.484,52.481,10.347c1.347-8.328,2.48-16.887,3.381-25.561c-14.522-6.346-29.518-9.568-44.703-9.568   C280.642,144.842,271.336,146.006,262.046,148.28z"/><path fill="#55595c" d="M204.064,147.371c-1.675,6.441-3.438,12.723-5.278,18.752c4.91-0.472,9.78-0.724,14.581-0.724   c12.33,0,24.516,1.583,36.293,4.687c1.452-6.883,2.864-14.112,4.277-21.902c-1.317-0.471-2.537-1.162-3.616-2.039   c-6.188-1.023-12.591-1.56-19.067-1.56C222.514,144.585,213.375,145.53,204.064,147.371z"/><path fill="#55595c" d="M336.483,127.763c0.273-5.432,0.469-10.956,0.582-16.487c0.196-9.58,5.076-18.268,13.053-23.24   c3.998-2.492,9.086-5.217,14.875-7.344c-0.652-4.806-3.059-14.894-11.953-22.189c-6.88-5.644-27.571-9.787-47.417-6.963   c-12.666,1.804-21.962,6.184-26.177,12.332c-4.729,6.899-7.931,26.832-11.983,52.066c-0.28,1.745-0.565,3.519-0.854,5.318   c7.769-1.322,15.522-2.005,23.162-2.005C305.626,119.25,321.268,122.117,336.483,127.763z"/><path fill="#55595c" d="M128.481,267.875c0.411,0,0.82-0.062,1.217-0.184c9.809-3.012,19.66-4.539,29.285-4.539   c13.558,0,26.321,2.936,38.046,8.716c0.206-0.769,0.48-1.525,0.829-2.257c1.103-2.315,2.82-4.19,4.948-5.448   c-13.387-7.04-28.055-10.616-43.729-10.616c-10.464,0-21.168,1.658-31.814,4.928c-1.136,0.349-2.081,1.152-2.661,2.26   c-0.602,1.151-0.735,2.481-0.377,3.745C124.793,266.478,126.543,267.875,128.481,267.875z"/><path fill="#55595c" d="M181.876,186.477c0.295,0,0.591-0.032,0.88-0.096c10.337-2.25,20.613-3.39,30.55-3.39c7.168,0,14.306,0.608,21.296,1.793   c0.166-2.109,0.836-4.156,1.996-5.971c0.715-1.12,1.584-2.097,2.567-2.918c-8.453-1.646-17.085-2.496-25.799-2.496   c-10.529,0-21.418,1.208-32.363,3.59c-1.152,0.25-2.148,0.965-2.806,2.012c-0.689,1.095-0.925,2.406-0.666,3.693   C177.973,184.887,179.799,186.477,181.876,186.477z"/><path fill="#55595c" d="M161.935,229.399c0.411-0.016,0.818-0.094,1.21-0.232c9.69-3.396,19.479-5.309,29.098-5.688   c8.906-0.351,17.605,0.602,25.924,2.822c0.163-0.314,0.333-0.625,0.524-0.928c1.81-2.881,4.607-4.861,7.878-5.573   c0.562-0.122,1.122-0.228,1.684-0.344c-11.42-4.199-23.562-6.077-36.24-5.579c-10.455,0.412-21.092,2.49-31.614,6.177   c-1.126,0.395-2.044,1.237-2.585,2.371c-0.561,1.176-0.646,2.511-0.242,3.759C158.208,228.153,159.988,229.483,161.935,229.399z"/><path fill="#55595c" d="M210.779,90.266c0.343,0,0.687-0.043,1.021-0.128c10.27-2.604,20.584-3.924,30.657-3.924c7.202,0,14.435,0.69,21.559,2.037   c0.629-3.354,1.263-6.486,1.915-9.382c-7.733-1.488-15.594-2.247-23.426-2.247c-10.762,0-21.776,1.41-32.739,4.19   c-1.146,0.291-2.122,1.042-2.75,2.116c-0.652,1.117-0.848,2.438-0.548,3.715C206.967,88.776,208.74,90.266,210.779,90.266z"/><path fill="#55595c" d="M199.74,139.991c0.285,0,0.571-0.03,0.853-0.089c10.484-2.201,20.8-3.317,30.661-3.317c4.859,0,9.685,0.28,14.423,0.823   c-0.278-2.739,0.297-5.488,1.698-7.889c0.297-0.508,0.634-0.979,0.988-1.433c-5.598-0.717-11.301-1.091-17.063-1.091   c-10.438,0-21.341,1.178-32.404,3.501c-1.153,0.242-2.154,0.949-2.82,1.992c-0.694,1.088-0.938,2.397-0.688,3.688   C195.815,138.387,197.646,139.992,199.74,139.991z"/><path fill="#55595c" d="M183.896,297.898c0.239,0.151,0.485,0.293,0.731,0.434c4.585-0.9,9.164-1.517,13.718-1.852   c2.404-2.921,4.713-5.95,6.918-9.063c-2.935-0.971-5.455-3.046-7.013-5.819c-11.892-6.926-25.095-10.446-39.268-10.446   c-8.599,0-17.42,1.347-26.231,3.984c-2.906,2.347-5.842,4.576-8.799,6.694C145.873,281.247,165.979,286.622,183.896,297.898z"/><path fill="#55595c" d="M64.083,380.657c-0.124-0.178-0.255-0.357-0.379-0.535c-3.372-4.829-6.557-9.389-11.515-13.18   c-10.086-7.713-36.018-7.604-47.842-6.758c-3.34,8.014-4.824,16.504-4.214,24.916c0.932,12.851,6.756,24.292,15.581,30.604   c2.931,2.097,9.474,5.246,24.047,8.757c1.892-15.062,9.359-29.635,21.429-41.24C62.105,382.343,63.08,381.494,64.083,380.657z"/><path fill="#55595c" d="M333.454,306.853c0-5.143-3.953-9.327-8.813-9.327c-4.858,0-8.812,4.184-8.812,9.327s3.953,9.327,8.812,9.327   C329.501,316.18,333.454,311.996,333.454,306.853z"/><path fill="#55595c" d="M487.105,401.401c-11.182,7.275-36.709,22.597-53.392,22.599c-0.199,0-0.394-0.002-0.59-0.006   c-9.442-0.21-16.137-2.286-22.61-4.293c-7.691-2.385-14.956-4.639-26.606-3.25c-12.068,1.438-22.563,8.721-34.713,17.154   c-8.584,5.957-18.313,12.708-29.686,17.9c-15.073,6.881-56.409,9.965-90.067,10.558c-4.131,0.073-8.445,0.112-12.852,0.112   c-29.467,0-63.213-1.747-76.173-6.854c-16.954-6.682-23.59-16.184-29.445-24.568c-3.373-4.829-6.558-9.39-11.516-13.182   c-10.084-7.712-36.017-7.602-47.842-6.757c-3.34,8.014-4.823,16.504-4.213,24.916c0.932,12.851,6.756,24.292,15.581,30.604   c7.352,5.259,28.075,10.667,56.857,14.837c0.816,0.119,1.421-0.212,1.789-0.509c0.598-0.483,0.973-1.224,1.028-2.034   c0.201-2.925,1.515-5.578,3.699-7.47c2.109-1.828,4.793-2.722,7.546-2.516l5.301,0.395c5.768,0.429,10.129,5.589,9.722,11.501   c-0.156,2.276,1.43,4.289,3.535,4.487c3.015,0.284,6.041,0.551,9.066,0.801c0.694,0.057,1.374-0.174,1.917-0.653   c0.618-0.545,0.979-1.321,1.018-2.187c0.132-2.986,1.404-5.726,3.582-7.713c2.104-1.918,4.813-2.893,7.624-2.767l4.688,0.224   c6.009,0.287,10.675,5.533,10.402,11.694c-0.04,0.917,0.267,1.78,0.865,2.43c0.521,0.566,1.209,0.894,1.938,0.921   c2.6,0.1,5.168,0.184,7.699,0.25c0.815,0.018,1.39-0.369,1.729-0.699c0.56-0.545,0.868-1.298,0.868-2.119   c0-5.965,4.734-10.817,10.554-10.817h5.371c5.739,0,10.408,4.785,10.408,10.667c0,0.782,0.309,1.523,0.847,2.034   c0.33,0.312,0.886,0.675,1.663,0.634c2.793-0.146,5.714-0.328,8.682-0.542c0.632-0.045,1.05-0.39,1.289-0.671   c0.397-0.466,0.585-1.077,0.528-1.72c-0.49-5.575,3.538-10.531,8.979-11.048l6.468-0.616c2.599-0.249,5.138,0.544,7.16,2.227   c2.09,1.739,3.374,4.21,3.615,6.957c0.073,0.833,0.523,1.313,0.784,1.526c0.27,0.218,0.713,0.466,1.311,0.393   c2.729-0.33,5.441-0.671,8.124-1.021c1.189-0.156,2.063-1.364,1.945-2.693c-0.504-5.734,3.638-10.832,9.232-11.365l6.606-0.628   c2.482-0.235,4.923,0.521,6.86,2.133c2.001,1.666,3.229,4.029,3.46,6.657c0.061,0.685,0.432,1.068,0.647,1.236   c0.216,0.169,0.576,0.351,1.039,0.278c11.776-1.91,21.729-3.728,28.004-4.917c4.244-0.804,7.7-4.114,8.804-8.433   c1.129-4.415,2.596-8.349,4.361-11.692c3.942-7.47,18.24-21.18,30.806-24.819c5.221-1.511,9.725-1.21,13.388,0.894   c7.384,4.241,7.804,11.748,8.141,17.78c0.363,6.492,0.789,10.279,5.321,12.605c4.326,2.224,20.203-0.352,39.276-8.509   c19.684-8.418,34.759-19.19,39.342-28.112C488.482,420.489,488.279,412.338,487.105,401.401z"/><path fill="#55595c" d="M57.049,360.587c5.945,4.545,9.641,9.837,13.214,14.955c0.082,0.117,0.168,0.236,0.25,0.353   c9.711-6.429,22.112-11.892,35.909-17.963c7.745-3.408,15.859-6.986,24.104-10.987c-23.566-0.729-69.844-10.586-91.781-21.392   c-7.776,3.997-14.392,8.113-19.275,12.808c-4.328,4.161-7.984,8.742-10.926,13.592C20.869,351.451,45.429,351.703,57.049,360.587z"/><path fill="#55595c" d="M137.356,338.825c7.721-0.734,13.221-2.988,17.172-4.899c4.807-2.952,9.58-6.15,14.282-9.623   c-2.361-1.635-4.183-4.079-5.015-7.007c-0.921-3.243-0.571-6.666,0.984-9.64c1.577-3.015,4.205-5.217,7.398-6.199   c0.416-0.128,0.833-0.237,1.249-0.36c-18.857-10.036-40.193-13.414-63.555-10.023c-16.172,9.756-32.503,16.956-47.494,23.552   c-4.962,2.183-9.728,4.284-14.239,6.37C73.507,331.383,120.671,340.41,137.356,338.825z"/><path fill="#55595c" d="M267.902,71.097c1.461-5.039,3.065-9.004,4.947-11.749c4.941-7.209,13.329-11.296,21.539-13.617   c2.195-3.364,5.092-6.22,8.465-8.323c3.998-2.492,9.086-5.217,14.875-7.344c-0.652-4.806-3.059-14.894-11.953-22.189   c-6.88-5.644-27.571-9.787-47.417-6.963c-12.666,1.804-21.962,6.184-26.177,12.332c-4.729,6.899-7.931,26.832-11.983,52.066   c-0.28,1.745-0.565,3.519-0.854,5.318c7.769-1.323,15.522-2.005,23.162-2.005C250.998,68.621,259.523,69.454,267.902,71.097z"/><path fill="#55595c" d="M358.115,52.317c10.316,8.463,13.596,19.638,14.638,26.054c3.817-0.883,7.827-1.425,11.958-1.425   c8.221,0,18.493,3.219,29.031,8.279c-0.472-2.123-0.867-3.021-1.074-3.38c-10.877-18.766-53.119-47.528-75.223-47.528   c-11.037,0-21.338,4.548-28.546,8.785C328.31,41.257,349.273,45.064,358.115,52.317z"/><path fill="#55595c" d="M369.237,171.143c-7.42,0-13.722-4.986-15.946-11.875c-1.372,0.525-2.847,0.809-4.372,0.809   c-1.981,0-3.96-0.496-5.722-1.433c-0.371-0.198-0.745-0.381-1.117-0.574c-0.947,8.607-2.116,17.091-3.493,25.341   c1.839,0.909,3.667,1.846,5.472,2.844c2.071,1.144,3.737,2.835,4.881,4.882c2.594-1.69,5.657-2.683,8.946-2.683   c9.271,0,16.813,7.773,16.813,17.327c0,0.732-0.059,1.448-0.145,2.157c35.229,14.591,67.002,35.159,94.626,61.25   c-0.069-0.893-0.143-1.786-0.208-2.679c-1.219-16.888-2.072-33.538-2.773-49.196c-23.167-23.215-50.34-40.912-82.913-54.005   C380.279,168.02,375.108,171.143,369.237,171.143z"/><path fill="#55595c" d="M357.887,223.108c-7.916,0-14.554-5.676-16.33-13.281c-1.089,0.316-2.231,0.483-3.4,0.484h-0.002   c-1.625,0-3.239-0.346-4.742-0.983c-1.845,7.892-3.919,15.655-6.193,23.19c1.872,0.979,3.736,1.985,5.584,3.05   c1.862,1.072,3.352,2.575,4.42,4.321c2.708-1.925,5.985-3.059,9.517-3.059c9.271,0,16.813,7.773,16.813,17.327   c0,0.333-0.031,0.658-0.049,0.987c41.938,14.467,79.99,40.518,113.317,77.556c-2.504-16.509-4.881-33.819-6.58-51.332   c-28.318-28.376-61.409-50.525-98.42-65.904C368.798,220.073,363.68,223.108,357.887,223.108z"/><path fill="#55595c" d="M355.554,254.158c0-5.143-3.953-9.327-8.813-9.327c-4.858,0-8.812,4.184-8.812,9.327s3.953,9.327,8.812,9.327   C351.601,263.485,355.554,259.301,355.554,254.158z"/><path fill="#55595c" d="M366.699,205.781c0-5.143-3.953-9.327-8.813-9.327c-4.858,0-8.812,4.184-8.812,9.327s3.953,9.327,8.812,9.327   C362.746,215.108,366.699,210.924,366.699,205.781z"/><path fill="#55595c" d="M412.909,68.782c-0.076-8.474-1.828-20.089-9.878-26.602c-8.543-6.912-18.881-4.322-25.261-1.533   C391.403,48.706,404.403,59.066,412.909,68.782z"/><path fill="#55595c" d="M378.049,153.816c0-5.143-3.953-9.327-8.813-9.327c-4.858,0-8.812,4.184-8.812,9.327s3.953,9.327,8.812,9.327   C374.096,163.143,378.049,158.959,378.049,153.816z"/><path fill="#55595c" d="M460.175,119.411c-0.076-8.474-1.828-20.089-9.877-26.602c-8.544-6.914-18.135-3.744-23.82-0.666   C439.582,100.072,451.97,110.039,460.175,119.411z"/><path fill="#55595c" d="M384.71,84.946c-11.995,0-23.13,5.372-30.359,9.878c-5.675,3.537-9.146,9.749-9.287,16.615   c-0.135,6.555-0.389,13.094-0.744,19.494c3.468,1.522,6.914,3.176,10.329,4.993c1.859,0.989,3.371,2.405,4.489,4.069   c2.816-2.191,6.307-3.508,10.099-3.508c9.271,0,16.813,7.773,16.813,17.327c0,0.655-0.043,1.299-0.112,1.934   c30.9,12.378,57.113,28.787,79.76,49.953c-0.131-3.1-0.258-6.156-0.382-9.15c-1.259-30.351-2.448-59.02-5.382-64.079   C449.056,113.708,406.814,84.946,384.71,84.946z"/></g></svg>