<svg xmlns="http://www.w3.org/2000/svg" version="1.1" viewBox="-5.0 -10.0 110.0 135.0">
 <path fill="#a3a6a9" d="m11.219 17.93 3.5391 1.6016 1.5195-3.3398-3.6797-1.6719c-0.25-0.10938-0.5-0.16016-0.76172-0.16016-0.26172 0-0.5 0.050781-0.73828 0.14844-0.48047 0.19922-0.83984 0.60156-1.0195 1.1094-0.058594 0.17187-0.078125 0.35156-0.078125 0.51953 0 0.73047 0.46875 1.4609 1.2188 1.7891z"/>
 <path fill="#a3a6a9" d="m30.25 26.781-6.4492-0.44922-2.5312-5.6016c-0.51953-1.1406-1.4297-2.0391-2.5586-2.5508l-0.89063-0.39844-0.83984 1.8711 0.87891 0.39844c0.69141 0.30859 1.2305 0.85156 1.5391 1.5391l10.109 22.32 6.7617-0.25-5.9688-16.719c-0.019531-0.050781-0.03125-0.10156-0.039062-0.14844z"/>
 <path fill="#a3a6a9" d="m47.191 43.262-4.0508-15.488s-0.011719-0.070313-0.011719-0.10156l-10.672-0.73828 5.9492 16.648 8.7812-0.32031z"/>
 <path fill="#a3a6a9" d="m45.34 63.02 6.7305-1.1289-4.3516-16.578-8.5898 0.30859 6.1914 17.32s0.019532 0.050782 0.019532 0.078125z"/>
 <path fill="#a3a6a9" d="m45.262 27.828 4.0273 15.363 8.8711-0.32031-2.3984-14.293v-0.027344z"/>
 <path fill="#a3a6a9" d="m61.109 60.371-2.5977-15.461-8.6836 0.30859 4.2734 16.32z"/>
 <path fill="#a3a6a9" d="m57.871 28.699 2.3672 14.102 8.9414-0.32031-0.98047-13.059z"/>
 <path fill="#a3a6a9" d="m60.57 44.84 2.5586 15.18 7.2617-1.2188v-0.011719l-1.0625-14.258z"/>
 <path fill="#a3a6a9" d="m71.379 44.461 1.0508 14 7.5312-1.2695s-0.011719-0.058594-0.011719-0.089844l0.25-12.949-8.8086 0.32031z"/>
 <path fill="#a3a6a9" d="m80.449 30.27-10.18-0.71094 0.96094 12.852 9-0.32031z"/>
 <path fill="#a3a6a9" d="m67.578 79.91c0 3.1719 2.5703 5.7383 5.7383 5.7383 3.1719 0 5.7383-2.5703 5.7383-5.7383 0-1.4219-0.5-2.6992-1.3398-3.6992h5.2695c0.57031 0 1.0312-0.46094 1.0312-1.0312 0-0.57031-0.44922-1.0312-1.0312-1.0312h-48.539c-0.69141 0-0.94922-0.51953-1.0312-0.69141-0.058593-0.14844-0.25-0.71875 0.25-1.1992l8.7617-8.7617 0.87109-0.14062-6.3203-17.68-6.5703 0.23828 7.1484 15.781c0.39062 0.85938 1.1094 1.5 1.9609 1.8203l-7.3008 7.2891c-0.91016 0.92187-1.1797 2.25-0.67969 3.4492 0.48828 1.1992 1.6094 1.9492 2.9102 1.9492h4.3086c-0.85156 1.0117-1.3516 2.2891-1.3516 3.6992 0 3.1719 2.5703 5.7383 5.7383 5.7383 3.1719 0 5.75-2.5703 5.75-5.7383 0-1.4219-0.51172-2.6992-1.3516-3.6992h21.379c-0.85156 1.0117-1.3516 2.2891-1.3516 3.6992z"/>
 <path fill="#a3a6a9" d="m87.91 53.289 1.0508-9.4688-6.7109 0.25-0.23828 12.781 3.0195-0.51172c1.5312-0.26172 2.7188-1.5117 2.8789-3.0508z"/>
 <path fill="#a3a6a9" d="m89.191 31.949c-0.62109-0.73828-1.4805-1.1797-2.4297-1.2383l-4.2617-0.30078-0.21875 11.609 6.8906-0.26172 0.80078-7.1992c0.10156-0.94922-0.17188-1.8906-0.78906-2.6211z"/>
</svg>