<svg xmlns="http://www.w3.org/2000/svg" version="1.1" viewBox="-5.0 -10.0 110.0 135.0">
 <path d="m15.312 91.844h40.414c3.3125 2.4062 7.1562 4.2969 11.516 5.5508 0.14062 0.039063 0.28516 0.0625 0.42969 0.0625s0.29297-0.019531 0.43359-0.0625c5.125-1.4766 9.582-3.7812 13.242-6.8438 6.1211-5.1445 9.6328-12.891 9.6328-21.242v-16.746c0-0.44531-0.19141-0.875-0.52344-1.168-0.33594-0.29688-0.77734-0.43359-1.2227-0.38281-5.6562 0.68359-10.109 0.20312-13.422-0.59375v-34.074c0-2.9023-2.3555-5.2656-5.25-5.2656h-11.262c-0.44531-1.7656-2.0312-3.0859-3.9375-3.0859h-7.4648c-0.023438-1.2891-0.53516-2.5-1.4531-3.4141-0.9375-0.9375-2.1797-1.4531-3.5039-1.4531-2.6992 0-4.8984 2.1758-4.9453 4.8672h-7.4766c-1.9023 0-3.4922 1.3203-3.9375 3.0859h-11.273c-2.8867 0-5.2344 2.3633-5.2344 5.2656v70.281c0 2.8789 2.3477 5.2188 5.2344 5.2188zm72.547-37.551v15.016c0 7.4297-3.1055 14.301-8.5156 18.848-3.2227 2.6953-7.1445 4.75-11.668 6.1094-4.5273-1.3594-8.457-3.4102-11.676-6.1055-5.4141-4.5508-8.5195-11.422-8.5195-18.852v-15.016c11.188 0.96094 17.828-2.2812 20.195-3.7461 2.3672 1.4648 8.9961 4.7109 20.184 3.7461zm-58.285-42.23c0-0.52344 0.42188-0.94531 0.94531-0.94531h9.0391c0.86328 0 1.5625-0.69922 1.5625-1.5625v-1.4727c0-1.0078 0.81641-1.832 1.8203-1.832 0.48828 0 0.94531 0.19141 1.293 0.53906 0.34766 0.34766 0.53906 0.80469 0.53906 1.293v1.4727c0 0.86328 0.69922 1.5625 1.5625 1.5625h9.0273c0.52344 0 0.94531 0.42187 0.94531 0.94531v5.9609h-26.738v-5.9609zm-16.371 4.2812c0-1.1797 0.94531-2.1406 2.1094-2.1406h11.137v5.3867c0 0.86328 0.69922 1.5625 1.5625 1.5625h29.863c0.86328 0 1.5625-0.69922 1.5625-1.5625v-5.3867h11.125c1.1719 0 2.125 0.96094 2.125 2.1406v33.133c-2.668-0.99219-4.0078-2.0156-4.0312-2.0391-0.56641-0.45703-1.3828-0.45703-1.9531-0.003906-0.066406 0.050781-6.8242 5.2344-20.598 3.5742-0.44531-0.054687-0.89062 0.085938-1.2227 0.38281-0.33594 0.29688-0.52344 0.72266-0.52344 1.168v16.746c0 7.418 2.7812 14.344 7.6914 19.41l-36.738 0.003906c-1.1641 0-2.1094-0.9375-2.1094-2.0938z"/>
 <path d="m22.57 33.332h40.742c0.86328 0 1.5625-0.69922 1.5625-1.5625s-0.69922-1.5625-1.5625-1.5625h-40.742c-0.86328 0-1.5625 0.69922-1.5625 1.5625s0.69922 1.5625 1.5625 1.5625z"/>
 <path d="m22.57 43.75h40.742c0.86328 0 1.5625-0.69922 1.5625-1.5625s-0.69922-1.5625-1.5625-1.5625h-40.742c-0.86328 0-1.5625 0.69922-1.5625 1.5625s0.69922 1.5625 1.5625 1.5625z"/>
 <path d="m22.57 54.168h16.23c0.86328 0 1.5625-0.69922 1.5625-1.5625s-0.69922-1.5625-1.5625-1.5625h-16.23c-0.86328 0-1.5625 0.69922-1.5625 1.5625s0.69922 1.5625 1.5625 1.5625z"/>
 <path d="m22.57 64.582h16.23c0.86328 0 1.5625-0.69922 1.5625-1.5625s-0.69922-1.5625-1.5625-1.5625h-16.23c-0.86328 0-1.5625 0.69922-1.5625 1.5625s0.69922 1.5625 1.5625 1.5625z"/>
 <path d="m22.57 75h16.23c0.86328 0 1.5625-0.69922 1.5625-1.5625s-0.69922-1.5625-1.5625-1.5625h-16.23c-0.86328 0-1.5625 0.69922-1.5625 1.5625s0.69922 1.5625 1.5625 1.5625z"/>
 <path d="m61.453 69.641c-0.60938-0.60938-1.5977-0.60938-2.2109 0-0.60938 0.60938-0.60938 1.5977 0 2.2109l5.4375 5.4375c0.30469 0.30469 0.70312 0.45703 1.1055 0.45703 0.39844 0 0.80078-0.15234 1.1055-0.45703l9.2031-9.2031c0.60938-0.60938 0.60938-1.5977 0-2.2109-0.60938-0.60938-1.5977-0.60938-2.2109 0l-8.0977 8.0977z"/>
</svg>