<svg xmlns="http://www.w3.org/2000/svg" xmlns:xlink="http://www.w3.org/1999/xlink" version="1.1" x="0px" y="0px" viewBox="0 0 66 82.5" enable-background="new 0 0 66 66" xml:space="preserve"><g><path d="M53.776,28.894c0.174,0.171,0.446,0.19,0.643,0.048c2.978-2.153,5.814-4.598,8.757-6.725   c0.163-0.118,0.239-0.321,0.194-0.516C60.121,7.416,45.895,2.908,42.102,3.349c-0.803-1-2.572-0.62-4.389-0.307   c-4.045,0.697-5.507,0.697-9.553,0c-1.741-0.299-3.564-0.702-4.381,0.298C13.462,4.196,4.911,11.668,2.629,21.701   c-0.044,0.195,0.032,0.398,0.195,0.516c2.946,2.129,5.787,4.578,8.757,6.725c0.196,0.142,0.469,0.123,0.643-0.048   c1.067-1.047,2.597-2.09,3.841-3.147c0.473,12.035-0.653,23.853-3.352,35.14c-0.032,0.134-0.007,0.275,0.067,0.39   c0.075,0.115,0.194,0.194,0.33,0.218c13.406,2.438,27.159,2.369,39.783,0c0.277-0.051,0.461-0.326,0.394-0.608   c-2.698-11.288-3.825-23.105-3.351-35.14C51.181,26.805,52.708,27.846,53.776,28.894z M27.99,4.027   c4.156,0.715,5.729,0.716,9.892,0c1.506-0.259,2.93-0.503,3.386-0.12c1.163,0.981-1.161,5.18-8.332,5.18   c-4.633,0-8.546-2.061-8.546-4.5C24.39,3.587,24.926,3.5,27.99,4.027z M31.927,62.271l0.596-0.596l0.623,0.623   C32.74,62.298,32.333,62.276,31.927,62.271z M33.821,62.283c-0.007-0.009-0.004-0.021-0.012-0.029l-0.932-0.933l1.59-1.59   l0.502,0.502l-0.757,0.757c-0.098,0.098-0.098,0.256,0,0.354c0.098,0.098,0.256,0.098,0.354,0l0.756-0.757l1.021,1.021   c0.098,0.098,0.256,0.098,0.354,0c0.098-0.098,0.098-0.256,0-0.354l-1.021-1.021l0.891-0.891l1.997,1.996   c0.104,0.104,0.172,0.074,0.264,0.037c0.01,0.043,0.017,0.089,0.051,0.123c0.098,0.098,0.256,0.098,0.354,0l0.99-0.989l0.638,0.638   c0.098,0.098,0.256,0.098,0.353,0c0.098-0.098,0.098-0.256,0-0.354l-0.638-0.638l1.357-1.357l1.979,1.979   c-0.312,0.312,0.04,0.667,0.353,0.354c0.201,0.201,0.379,0.44,0.586,0.233c0.098-0.098,0.098-0.256,0-0.354l-0.233-0.233   l1.823-1.823l2.213,2.213C43.794,61.876,38.826,62.253,33.821,62.283z M39.867,60.155l-0.916,0.915   c-0.012-0.029-0.012-0.062-0.035-0.086l-1.997-1.996l0.891-0.89L39.867,60.155z M38.164,57.745l1.357-1.357l2.057,2.057   l-1.357,1.357L38.164,57.745z M36.566,58.635l-0.502-0.502l0.914-0.914c0.012,0.027,0.011,0.058,0.033,0.08l0.445,0.445   L36.566,58.635z M36.213,58.989l-0.891,0.891l-0.502-0.502l0.891-0.89L36.213,58.989z M46.088,58.6l-1.824,1.823l-1.979-1.979   l1.824-1.823L46.088,58.6z M44.462,56.268l0.813-0.813l1.979,1.979l-0.813,0.813L44.462,56.268z M49.882,47.738   c0.114,0.892,0.248,1.779,0.38,2.666l-1.523-1.523L49.882,47.738z M49.832,24.305c-0.141-0.139-0.351-0.182-0.533-0.108   c-0.184,0.072-0.308,0.245-0.317,0.442c-0.304,6.47-0.138,12.877,0.469,19.181c-0.056,0.006-0.112,0.021-0.154,0.064l-0.679,0.679   l-0.523-0.523c-0.098-0.098-0.256-0.098-0.354,0c-0.098,0.098-0.098,0.256,0,0.354l0.523,0.523l-0.834,0.834   c-0.098,0.098-0.098,0.256,0,0.354c0.098,0.098,0.256,0.098,0.354,0l0.834-0.834l1.106,1.106c0.031,0.266,0.053,0.535,0.085,0.8   c-0.043,0.01-0.089,0.017-0.123,0.051l-1.31,1.31c-0.098-0.074-0.234-0.077-0.323,0.013c-0.089,0.089-0.087,0.225-0.012,0.323   l-1.133,1.133l-1.845-1.844c-0.098-0.098-0.256-0.098-0.354,0c-0.098,0.098-0.098,0.256,0,0.354l2.513,2.513   c0.098,0.098,0.256,0.098,0.354,0c0.098-0.098,0.098-0.256,0-0.354l-0.315-0.315l1.124-1.124l1.559,1.559   c0.096,0.096,0.259,0.116,0.368-0.034c0.503,3.319,1.121,6.607,1.881,9.848c-0.975,0.178-1.963,0.317-2.948,0.466   c-0.008-0.012-0.005-0.028-0.016-0.039L46.795,58.6l0.813-0.813l2.025,2.025c0.098,0.098,0.256,0.098,0.353,0   c0.098-0.098,0.098-0.256,0-0.354l-2.025-2.025l1.349-1.349c0.098-0.098,0.098-0.256,0-0.353c-0.098-0.098-0.256-0.098-0.354,0   l-1.349,1.349l-1.124-1.124l1.746-1.746l2.124,2.124c0.098,0.098,0.256,0.098,0.354,0c0.098-0.098,0.098-0.256,0-0.354   l-2.124-2.124l0.99-0.991c0.098-0.098,0.098-0.256,0-0.354c-0.098-0.098-0.256-0.098-0.354,0l-0.991,0.991l-0.756-0.756   c-0.098-0.098-0.256-0.098-0.354,0c-0.098,0.098-0.098,0.256,0,0.354l0.756,0.756l-1.746,1.746l-0.501-0.501l0.73-0.73   c0.098-0.098,0.098-0.256,0-0.354c-0.098-0.098-0.256-0.098-0.354,0l-1.897,1.896l-1.612-1.612c-0.098-0.098-0.256-0.098-0.354,0   c-0.098,0.098-0.098,0.256,0,0.354l1.612,1.612l-1.823,1.823l-2.057-2.057l2.198-2.198c0.098-0.098,0.098-0.256,0-0.354   c-0.098-0.098-0.256-0.098-0.354,0l-2.207,2.207c-0.098-0.074-0.234-0.077-0.324,0.013c-0.089,0.089-0.087,0.225-0.013,0.323   l-1.366,1.366l-0.445-0.445c-0.022-0.022-0.053-0.021-0.08-0.033l0.957-0.957c0.098-0.098,0.098-0.256,0-0.354   c-0.098-0.098-0.256-0.098-0.354,0l-3.422,3.422l-0.212-0.212c-0.098-0.098-0.256-0.098-0.354,0c-0.098,0.098-0.098,0.256,0,0.354   l0.212,0.212l-1.59,1.59l-1.067-1.067c-0.098-0.098-0.256-0.098-0.354,0c-0.098,0.098-0.098,0.256,0,0.354l1.067,1.067   l-0.934,0.935c-5.825-0.101-11.675-0.635-17.427-1.652c2.71-11.556,3.79-23.653,3.21-35.966c-0.009-0.197-0.133-0.37-0.317-0.442   c-0.182-0.073-0.392-0.029-0.533,0.108c-1.213,1.189-2.99,2.348-4.336,3.583C9.091,25.88,6.453,23.63,3.68,21.603   c2.249-9.252,10.073-16.207,19.726-17.21c-0.214,3.141,4.026,5.695,9.531,5.695c5.513,0,9.761-2.564,9.529-5.711   C52.13,5.324,60.051,12.27,62.32,21.603c-2.768,2.023-5.412,4.277-8.152,6.285C52.821,26.653,51.045,25.494,49.832,24.305z    M49.64,45.583l-0.668-0.668l0.539-0.539C49.551,44.779,49.595,45.181,49.64,45.583z"/><path d="M21.641,10.575l-0.762,0.762l-0.539-0.54l0.114-0.114c0.017-0.017,0.032-0.037,0.043-0.058l0.156-0.29   c0.066-0.122,0.02-0.274-0.101-0.339c-0.121-0.065-0.274-0.02-0.339,0.102l-0.139,0.258l-0.088,0.088l-0.383-0.383l0.167-0.167   c0.098-0.098,0.098-0.256,0-0.354c-0.098-0.098-0.256-0.098-0.354,0l-0.167,0.168l-0.583-0.583c-0.098-0.098-0.256-0.098-0.354,0   c-0.098,0.098-0.098,0.256,0,0.354l0.583,0.583l-1.204,1.204l-0.532-0.533c-0.098-0.098-0.256-0.098-0.354,0   c-0.098,0.098-0.098,0.256,0,0.354l0.532,0.533l-0.953,0.953l-0.633-0.633c-0.098-0.098-0.256-0.098-0.354,0   c-0.098,0.098-0.098,0.256,0,0.354l0.633,0.633l-1.254,1.254l-0.633-0.633c-0.098-0.098-0.256-0.098-0.353,0   c-0.098,0.098-0.098,0.256,0,0.354l0.633,0.633l-0.331,0.331c-0.098,0.098-0.098,0.256,0,0.354c0.098,0.098,0.256,0.098,0.354,0   l0.331-0.331l1.276,1.276l-0.8,0.8c-0.098,0.098-0.098,0.256,0,0.354c0.098,0.098,0.256,0.098,0.354,0l0.8-0.8l0.714,0.713   c0.098,0.098,0.256,0.098,0.354,0c0.098-0.098,0.098-0.256,0-0.354l-0.714-0.714l1.254-1.254l0.5,0.5   c0.098,0.098,0.256,0.098,0.354,0c0.098-0.098,0.098-0.256,0-0.353l-0.5-0.501l0.953-0.953l0.483,0.483   c0.098,0.098,0.256,0.098,0.354,0c0.098-0.098,0.098-0.256,0-0.353l-0.483-0.483l1.204-1.204l0.264,0.264   c0.102,0.102,0.267,0.096,0.363-0.009l0.286-0.317c0.092-0.103,0.084-0.261-0.019-0.354c-0.102-0.091-0.26-0.085-0.354,0.019   l-0.109,0.121l-0.077-0.077l0.762-0.762c0.098-0.098,0.098-0.256,0-0.353C21.897,10.478,21.738,10.478,21.641,10.575z    M19.249,10.414l0.383,0.383l-1.204,1.204l-0.383-0.383L19.249,10.414z M16.408,15.809l-1.277-1.276l1.254-1.254l1.276,1.276   L16.408,15.809z M18.015,14.201l-1.276-1.276l0.953-0.953l0.383,0.383l-0.633,0.633c-0.098,0.098-0.098,0.256,0,0.353   c0.098,0.098,0.256,0.098,0.354,0l0.633-0.633l0.54,0.54L18.015,14.201z M19.321,12.895l-0.54-0.54l1.204-1.204l0.54,0.54   L19.321,12.895z"/><path d="M43.493,50.511c-0.098,0.098-0.098,0.256,0,0.354l1.785,1.785c0.098,0.098,0.256,0.098,0.353,0   c0.098-0.098,0.098-0.256,0-0.353l-1.785-1.785C43.749,50.413,43.591,50.413,43.493,50.511z"/></g></svg>