<svg xmlns="http://www.w3.org/2000/svg" version="1.1" viewBox="-5.0 -10.0 110.0 135.0">
 <path d="m56.852 75.969h16.812c0.86328 0 1.5625-0.69922 1.5625-1.5625v-16.812c0-0.86328-0.69922-1.5625-1.5625-1.5625h-16.812c-0.86328 0-1.5625 0.69922-1.5625 1.5625v16.812c0 0.86328 0.69922 1.5625 1.5625 1.5625zm1.5625-16.812h13.688v13.688h-13.688z"/>
 <path d="m41.609 75.969h1.2148c0.86328 0 1.5625-0.69922 1.5625-1.5625s-0.69922-1.5625-1.5625-1.5625h-1.2148c-0.86328 0-1.5625 0.69922-1.5625 1.5625s0.69922 1.5625 1.5625 1.5625z"/>
 <path d="m50.961 7.5547c-0.57031-0.45313-1.375-0.45313-1.9414 0l-45.328 35.969c-0.67578 0.53516-0.78906 1.5195-0.25391 2.1953l5.8516 7.375c0.25781 0.32422 0.63281 0.53125 1.0469 0.58203 0.41016 0.046875 0.82422-0.070312 1.1484-0.32812l2.6992-2.1406v38.453h-7.6523c-0.86328 0-1.5625 0.69922-1.5625 1.5625 0 0.86328 0.69922 1.5625 1.5625 1.5625h86.91c0.86328 0 1.5625-0.69922 1.5625-1.5625 0-0.86328-0.69922-1.5625-1.5625-1.5625h-7.6758v-38.473l2.7227 2.1602c0.27734 0.21875 0.62109 0.33984 0.97266 0.33984 0.058593 0 0.11719-0.003906 0.17969-0.007812 0.41406-0.046876 0.78906-0.25781 1.0469-0.58203l5.8516-7.375c0.53516-0.67578 0.42188-1.6602-0.25391-2.1953zm-4.4102 82.105h-18.68v-30.5h18.68zm36.09 0h-32.969v-32.062c0-0.86328-0.69922-1.5625-1.5625-1.5625h-21.805c-0.86328 0-1.5625 0.69922-1.5625 1.5625v32.062h-7.4375v-40.934l32.684-25.934 32.656 25.914v40.953zm6.5664-39.73-38.25-30.355c-0.28516-0.22656-0.62891-0.33984-0.97266-0.33984s-0.6875 0.11328-0.97266 0.33984l-38.246 30.355-3.9102-4.9258 43.133-34.23 43.129 34.227-3.9102 4.9258z"/>
<text x="0.0" y="117.5" font-size="5.0" font-weight="bold" font-family="Arbeit Regular, Helvetica, Arial-Unicode, Arial, Sans-serif" fill="#000000">Created by Hermawan</text></svg>