<svg xmlns="http://www.w3.org/2000/svg" data-name="Layer 1" viewBox="0 0 100 125" x="0px" y="0px"><title>Clothes</title><path fill="#55595c" d="M27.73,33.16A30.59,30.59,0,0,0,26,38.43l-1,4.39c-.13.55-.24,1.11-.33,1.66L20.1,71.84c-.16,1-.29,2-.38,3l-.86,10a2.17,2.17,0,0,1,.9,2.07l-.33,2.36,5.44.6.21-1.21a3.05,3.05,0,0,1,2.14-2.41l1.13-5.39,0-2h0L28.63,60l.48-14.82c0-.55,0-1.09,0-1.64L28.7,30.87Z"/><path fill="#55595c" d="M81.14,84.87l-.86-10c-.09-1-.22-2-.38-3L75.31,44.48c-.09-.55-.2-1.11-.33-1.66l-1-4.39a30.59,30.59,0,0,0-1.71-5.27l-1-2.29-.41,12.66c0,.55,0,1.09,0,1.64L71.37,60l.25,18.86h0l0,2,1.13,5.39a3.05,3.05,0,0,1,2.14,2.41l.21,1.21,5.44-.6-.33-2.36A2.17,2.17,0,0,1,81.14,84.87Z"/><path fill="#55595c" d="M43.61,31l.35.2a9.2,9.2,0,0,0,12.09,0l.09-.07.29-.15A18.61,18.61,0,0,0,62,26.47l1.65-1.93V17.87a5.09,5.09,0,0,0-1.73-3.82l-2.22-2a13,13,0,0,0-5.5-2.85,18.11,18.11,0,0,0-8.38,0,12.88,12.88,0,0,0-5.51,2.85l-2.22,2a5.09,5.09,0,0,0-1.72,3.82v6.65L38,26.48A18.67,18.67,0,0,0,43.61,31ZM38.68,19.43a4.82,4.82,0,0,1,1.62-3.61L42,14.31a10.83,10.83,0,0,1,4.58-2.41,14.6,14.6,0,0,1,6.83,0A10.79,10.79,0,0,1,58,14.3l1.7,1.51a4.82,4.82,0,0,1,1.62,3.61V25l-8.67,6.55a4.39,4.39,0,0,1-5.3,0L38.68,25Z"/><path fill="#55595c" d="M52,30.71l8.28-6.26v-5A3.84,3.84,0,0,0,59,16.55l-1.7-1.5a9.61,9.61,0,0,0-4.15-2.18,13.54,13.54,0,0,0-6.36,0,9.65,9.65,0,0,0-4.16,2.18L41,16.57a3.83,3.83,0,0,0-1.28,2.86v5L48,30.71A3.38,3.38,0,0,0,52,30.71Z"/><path fill="#55595c" d="M69.89,45.2c0-.57,0-1.13,0-1.7l.47-14.36A4.64,4.64,0,0,0,69,28l-4.69-2.63-1.54,1.8a19.61,19.61,0,0,1-5.86,4.69l-.23.13A10,10,0,0,1,54,33.59V48.28H53V34a10,10,0,0,1-6,0V48.28H46V33.59a10,10,0,0,1-2.66-1.65l-.2-.11a19.47,19.47,0,0,1-5.88-4.71l-1.55-1.8L31,28a4.64,4.64,0,0,0-1.38,1.19l.47,14.36c0,.57,0,1.13,0,1.7L29.63,60l-.26,18.73.13.84A37.58,37.58,0,0,1,29.93,85l0,1.88a.15.15,0,0,0,.1.11,1.91,1.91,0,0,1,1.11,1.54l.27,2.72H68.57l.27-2.72A1.91,1.91,0,0,1,70,87a.15.15,0,0,0,.1-.11l0-1.88a37.58,37.58,0,0,1,.43-5.41l.13-.84L70.37,60Zm-4.24,35a6.69,6.69,0,0,0-1,3.43v2.26H35.3V83.61a6.69,6.69,0,0,0-.95-3.43l-1.43-2.37.27-.27a7.63,7.63,0,0,0,2.08-4.13l0-.22V64.55h0v-.5H64.7v.5h0v.5h0v8.14l0,.22a7.63,7.63,0,0,0,2.08,4.13l.27.27Z"/><path fill="#55595c" d="M63.7,65.05H36.3l0,8.51A8.49,8.49,0,0,1,34.17,78l1,1.72a7.69,7.69,0,0,1,1.09,3.94v1.26H63.7V83.61a7.69,7.69,0,0,1,1.09-3.94l1-1.72a8.49,8.49,0,0,1-2.09-4.39Z"/></svg>