<svg xmlns="http://www.w3.org/2000/svg" version="1.1" viewBox="-5.0 -10.0 110.0 135.0">
 <path d="m21.641 61.371c-0.86328 0-1.5625 0.69922-1.5625 1.5625v5.1406c0 0.86328 0.69922 1.5625 1.5625 1.5625s1.5625-0.69922 1.5625-1.5625v-5.1406c0-0.86328-0.69922-1.5625-1.5625-1.5625z"/>
 <path d="m17.852 59.98c-0.86328 0-1.5625 0.69922-1.5625 1.5625v5.1406c0 0.86328 0.69922 1.5625 1.5625 1.5625 0.86328 0 1.5625-0.69922 1.5625-1.5625v-5.1406c0-0.86328-0.69922-1.5625-1.5625-1.5625z"/>
 <path d="m14.062 58.59c-0.86328 0-1.5625 0.69922-1.5625 1.5625v5.1406c0 0.86328 0.69922 1.5625 1.5625 1.5625s1.5625-0.69922 1.5625-1.5625v-5.1406c0-0.86328-0.69922-1.5625-1.5625-1.5625z"/>
 <path d="m10.27 57.199c-0.86328 0-1.5625 0.69922-1.5625 1.5625v5.1406c0 0.86328 0.69922 1.5625 1.5625 1.5625s1.5625-0.69922 1.5625-1.5625v-5.1406c0-0.86328-0.69922-1.5625-1.5625-1.5625z"/>
 <path d="m95.125 51.922c-9.625 1.1602-15.211-1.5977-16.922-2.6367v-23.922-0.007812c0-0.007813-0.003906-0.015625-0.003906-0.027344 0-0.13672-0.023438-0.27344-0.0625-0.40234-0.011719-0.046875-0.03125-0.085937-0.050781-0.13281-0.035157-0.09375-0.078126-0.17969-0.12891-0.26562-0.023437-0.039063-0.050781-0.078125-0.082031-0.11719-0.0625-0.082031-0.13281-0.15625-0.21094-0.22656-0.03125-0.027344-0.058593-0.054688-0.09375-0.082032-0.015624-0.011718-0.03125-0.03125-0.046874-0.042968-0.10938-0.078125-0.23047-0.13672-0.35156-0.17969l-35.953-13.613c-0.35547-0.13672-0.74609-0.13281-1.1016 0l-35.977 13.477c-0.60938 0.22656-1.0117 0.8125-1.0156 1.4609 0 0.023437 0.007812 0.042969 0.007812 0.0625 0 0.027344-0.007812 0.054687-0.007812 0.078125v43.344c0 0.65234 0.40625 1.2344 1.0156 1.4648l35.961 13.48c0.03125 0.011719 0.0625 0.007813 0.09375 0.015626 0.054688 0.015624 0.11328 0.019531 0.17188 0.03125 0.09375 0.015624 0.1875 0.050781 0.28125 0.050781h0.007812 0.007812c0.015626 0 0.03125-0.007813 0.050782-0.011719 0.14844-0.007812 0.29688-0.03125 0.44141-0.082031 0.023438-0.007813 0.046875-0.003907 0.066406-0.011719l0.050782-0.019531h0.003906l16.988-6.3672c1.4219 3.4766 3.6094 6.5781 6.4922 9.0078 3.168 2.6484 7.0234 4.6406 11.457 5.9141 0.14062 0.039063 0.28906 0.0625 0.42969 0.0625 0.14453 0 0.29297-0.019531 0.43359-0.0625 4.4297-1.2773 8.2812-3.2656 11.449-5.918 5.3047-4.4609 8.3477-11.168 8.3477-18.402v-14.375c0-0.44531-0.19141-0.875-0.52734-1.168-0.33594-0.29688-0.78125-0.4375-1.2227-0.38281zm-54.465-38.527 31.543 11.945-13.531 5.0703-30.258-12.426zm-16.543 6.1992 30.258 12.426-13.711 5.1367-31.539-11.941 14.996-5.6211zm-17.867 8.0078 32.836 12.305v40.016l-32.836-12.309zm35.984 12.309 14.844-5.5625v8.5898c0 0.86328 0.69922 1.5625 1.5625 1.5625s1.5625-0.69922 1.5625-1.5625v-9.7617l14.875-5.5742v21.688c-1.7383 1.0547-7.3242 3.7891-16.922 2.6289-0.44531-0.054688-0.89062 0.085937-1.2227 0.38281-0.33594 0.29688-0.52734 0.72266-0.52734 1.168v14.375c0 2.2148 0.31641 4.3672 0.86328 6.4297l-1.6328 0.60937c-0.007813 0.003907-0.011719 0.007813-0.019531 0.011719l-13.383 5.0156v-40.004zm51.516 27.934c0 6.3125-2.6367 12.148-7.2305 16.008-2.7266 2.2812-6.0469 4.0234-9.875 5.1836-3.832-1.1562-7.1562-2.8984-9.8828-5.1797-2.8633-2.4062-4.9609-5.5781-6.1406-9.1523-0.015625-0.039063-0.019532-0.078125-0.035156-0.11719-0.69141-2.1328-1.0547-4.4062-1.0547-6.7461v-12.648c9.3398 0.75 14.973-1.9062 17.113-3.1992 2.1367 1.2969 7.7695 3.9492 17.102 3.1992v12.648z"/>
 <path d="m83.797 63.785-8.0703 8.0742-4.9531-4.9531c-0.60938-0.60938-1.5977-0.60938-2.2109 0-0.60938 0.60938-0.60938 1.5977 0 2.2109l6.0586 6.0586c0.29297 0.29297 0.6875 0.45703 1.1055 0.45703 0.41406 0 0.8125-0.16406 1.1055-0.45703l9.1758-9.1797c0.60938-0.60938 0.60938-1.5977 0-2.2109-0.60937-0.60938-1.5977-0.60938-2.2109 0z"/>
</svg>