<svg xmlns="http://www.w3.org/2000/svg" data-name="Layer 1" viewBox="0 0 100 125" x="0px" y="0px"><title>Clothes</title><path d="M34.92,39.5l-2.33-1.08-.52-8.07v-2H28.42q.27,5.83,0,11.65c-.15,3.25-.18,6.54-.1,9.78l.5,20.64h6.29ZM31.83,67.36l-1,0,.75-14.84,1,.05Z"/><path d="M43.7,28.37H33.07v1.21l5.31,1.36,5.32-1.36Zm-5.32,2.07a.94.94,0,1,1,.93-.94A.94.94,0,0,1,38.38,30.44Z"/><path d="M48.43,18.64l-9.67,2.85-.68-8-9.87,4.85a6.59,6.59,0,0,0-.57.34L27.79,20c.27,2.44.44,4.91.58,7.37h23.3V19.61a7.39,7.39,0,0,0-3.37-1.19Zm1.57.55a.93.93,0,1,1-.93.93A.93.93,0,0,1,50,19.19Z"/><path d="M44.7,30.35l-.52,8.07-2.18,1-.24,31h9.91V28.37h-7ZM50,29.19a.93.93,0,1,1-.93.93A.93.93,0,0,1,50,29.19Zm0,10a.93.93,0,1,1-.93.93A.93.93,0,0,1,50,39.19Zm0,11a.93.93,0,1,1-.93.93A.93.93,0,0,1,50,50.19Zm0,11a.93.93,0,1,1-.93.93A.93.93,0,0,1,50,61.19Z"/><path d="M30.24,75.46H51.67v-4H29.38ZM50,72.19a.93.93,0,1,1-.93.93A.93.93,0,0,1,50,72.19Z"/><path d="M52.67,27.37h19c.14-2.46.31-4.93.58-7.37l.15-1.38c-.19-.11-.37-.23-.58-.33l-9.86-4.85-.68,8L52.67,19Z"/><polygon points="43.22 37.76 43.68 30.61 42.06 31.03 42.01 38.32 43.22 37.76"/><polygon points="41.06 31.29 38.39 31.97 38.39 31.98 38.38 31.97 38.38 31.98 38.37 31.97 35.86 31.32 35.91 38.86 38.38 40.01 41 38.79 41.06 31.29"/><polygon points="33.55 37.76 34.91 38.4 34.85 31.07 33.08 30.61 33.55 37.76"/><polygon points="36.15 70.44 40.76 70.44 40.99 39.9 38.39 41.11 35.92 39.97 36.15 70.44"/><polygon points="58 39.43 55.82 38.42 55.3 30.35 55.3 28.37 52.67 28.37 52.67 70.44 58.24 70.44 58 39.43"/><polygon points="66.45 37.76 66.92 30.61 65.14 31.07 65.09 38.4 66.45 37.76"/><polygon points="64.14 31.32 61.63 31.97 61.63 31.98 61.62 31.97 61.61 31.98 61.61 31.97 58.94 31.29 59 38.79 61.62 40.01 64.09 38.86 64.14 31.32"/><polygon points="57.94 31.03 56.32 30.61 56.78 37.76 57.99 38.32 57.94 31.03"/><polygon points="59.01 39.9 59.24 70.44 63.85 70.44 64.08 39.97 61.61 41.11 59.01 39.9"/><polygon points="46.91 18.04 41.68 9.28 39.03 12.82 39.64 20.19 46.91 18.04"/><polygon points="61.49 12.67 61.49 12.67 61.49 12.67 61.49 12.67"/><polygon points="60.36 20.19 60.97 12.82 58.32 9.28 53.09 18.04 60.36 20.19"/><polygon points="44.56 12.13 55.45 12.13 57.27 9.08 42.73 9.08 44.56 12.15 44.56 12.13"/><path d="M45.15,13.13l2.53,4.24a8.55,8.55,0,0,1,4,1.09l3.18-5.33Z"/><polygon points="15.07 90.92 25.35 90.92 25.57 87.92 15.07 87.92 15.07 90.92"/><path d="M27.46,40a130.71,130.71,0,0,0-.67-19.88l-.09-.86a9.92,9.92,0,0,0-2.32,2.43,19.82,19.82,0,0,0-2.87,7L18.44,43.85c-.35,2.41-.61,4.68-.86,6.87s-.47,4-.76,6.08L16,64a158.68,158.68,0,0,0-.95,17.31v5.57H25.64l.06-.84a86.41,86.41,0,0,1,1.2-9.34l1-5.31-.53-21.61C27.28,46.56,27.31,43.25,27.46,40Z"/><polygon points="52.67 75.46 69.93 75.46 70.78 71.44 52.67 71.44 52.67 75.46"/><path d="M84,64l-.8-7.26c-.29-2.06-.52-4-.75-6.05s-.52-4.47-.88-6.91L78.49,28.66a19.82,19.82,0,0,0-2.87-7,9.92,9.92,0,0,0-2.32-2.43l-.09.86A130.71,130.71,0,0,0,72.54,40c.14,3.25.18,6.56.1,9.84l-.53,21.61,1,5.31a86.41,86.41,0,0,1,1.2,9.34l.06.84H84.93V81.35A159,159,0,0,0,84,64Z"/><polygon points="74.65 90.92 84.93 90.92 84.93 87.92 74.43 87.92 74.65 90.92"/><path d="M71.58,28.37H67.93v2l-.52,8.07L65.08,39.5l-.23,30.94h6.29l.5-20.64c.08-3.26,0-6.55-.1-9.78Q71.3,34.21,71.58,28.37Zm-3.41,39-.75-14.84,1-.05.75,14.84Z"/><path d="M66.93,28.37H56.3v1.21l5.32,1.36,5.31-1.36Zm-5.31,2.07a.94.94,0,1,1,.93-.94A.93.93,0,0,1,61.62,30.44Z"/><text x="0" y="115" fill="#000000" font-size="5px" font-weight="bold" font-family="'Helvetica Neue', Helvetica, Arial-Unicode, Arial, Sans-serif">Created by Idris Rizal</text><text x="0" y="120" fill="#000000" font-size="5px" font-weight="bold" font-family="'Helvetica Neue', Helvetica, Arial-Unicode, Arial, Sans-serif">from the Noun Project</text></svg>