<svg xmlns="http://www.w3.org/2000/svg" version="1.1" viewBox="-5.0 -10.0 110.0 135.0">
 <path d="m55.379 31.625c-0.33594-0.29688-0.78125-0.4375-1.2227-0.38281-14.895 1.7969-22.211-3.8203-22.277-3.875-0.57422-0.46094-1.3906-0.46094-1.9609 0-0.070313 0.058593-7.2734 5.6875-22.293 3.875-0.44531-0.058594-0.89062 0.085937-1.2227 0.38281-0.33594 0.29688-0.52734 0.72266-0.52734 1.168v18.055c0 8.9688 3.7695 17.285 10.344 22.812 3.9336 3.293 8.7266 5.7656 14.246 7.3516 0.14062 0.039062 0.28906 0.0625 0.42969 0.0625 0.14453 0 0.29297-0.019531 0.43359-0.0625 0.57812-0.16797 1.1133-0.38281 1.6758-0.57031 2.8438 5.3906 7.1523 9.7969 12.559 12.766 4.75 2.6016 9.8906 3.8359 14.961 3.8359 11.055 0 21.789-5.8672 27.473-16.227 6.2305-11.391 4.6016-25-3.0391-34.566l4.6094-8.418c0.41406-0.75781 0.13672-1.707-0.61719-2.1211l-7.7695-4.2578 1.0156-1.8516c1.25-2.2812 1.5391-4.918 0.80859-7.418-0.49609-1.6992-0.30078-3.4883 0.55078-5.0391l1.6133-2.9492c0.41406-0.75781 0.13672-1.707-0.61719-2.1211-0.75781-0.41406-1.707-0.13672-2.1211 0.61719l-1.6133 2.9492c-1.25 2.2812-1.5391 4.918-0.80859 7.418 0.49609 1.6992 0.30078 3.4883-0.55078 5.0391l-1.0156 1.8516-7.7695-4.2578c-0.75781-0.41406-1.707-0.13672-2.1211 0.61719l-4.625 8.4375c-2.6602-0.28906-5.3516-0.23438-8.0195 0.16797v-2.1289c0-0.44531-0.19141-0.875-0.52734-1.168zm-24.48 46.258c-4.9141-1.4688-9.1758-3.6953-12.668-6.6172-5.8633-4.9297-9.2266-12.371-9.2266-20.414v-16.32c12.219 1.0781 19.41-2.4961 21.898-4.0469 2.4844 1.5547 9.668 5.1328 21.883 4.0469v16.32c0 8.0469-3.3633 15.488-9.2227 20.414-3.4922 2.9258-7.75 5.1484-12.66 6.6211zm39.641-48.691 7.7695 4.2578h0.003906l7.7695 4.2578-3.332 6.0781c-2.0625-2.082-4.4453-3.918-7.1406-5.3984-2.6602-1.4492-5.4922-2.4766-8.4062-3.1094zm3.5703 11.938c13.59 7.4531 18.59 24.586 11.152 38.188-7.457 13.598-24.594 18.598-38.188 11.152-4.7422-2.6016-8.543-6.4258-11.102-11.105 3.5859-1.4844 6.8164-3.3828 9.5977-5.707 6.5703-5.5234 10.34-13.836 10.34-22.809v-12.762c6.2031-1.0508 12.625-0.003907 18.203 3.0391z"/>
 <path d="m40.16 46.031-10.422 10.422-6.5039-6.5039c-0.60938-0.60938-1.5977-0.60938-2.2109 0-0.60938 0.60938-0.60938 1.5977 0 2.2109l7.6094 7.6094c0.30469 0.30469 0.70313 0.45703 1.1055 0.45703 0.39844 0 0.80078-0.15234 1.1055-0.45703l11.527-11.527c0.60938-0.60938 0.60938-1.5977 0-2.2109-0.60938-0.60938-1.5977-0.60938-2.2109 0z"/>
 <path d="m66.953 89.91c0.14062 0 0.28516-0.019531 0.42578-0.058594 6.5156-1.8398 11.891-6.1172 15.137-12.035 2.8555-5.2188 3.75-11.305 2.5234-17.137-0.17578-0.84375-1.0078-1.3867-1.8516-1.207-0.84375 0.17969-1.3828 1.0078-1.207 1.8516 1.0742 5.1055 0.28906 10.43-2.207 14.992-2.8398 5.1797-7.5469 8.918-13.25 10.531-0.82813 0.23438-1.3125 1.0977-1.0781 1.9297 0.19531 0.6875 0.82031 1.1406 1.5 1.1406z"/>
 <path d="m88.938 4.0742c-0.75781-0.41406-1.707-0.13672-2.1211 0.61719l-1.2305 2.2461c-0.41406 0.75781-0.13672 1.707 0.61719 2.1211 0.23828 0.12891 0.49609 0.19141 0.75 0.19141 0.55469 0 1.0859-0.29297 1.3711-0.8125l1.2305-2.2461c0.41406-0.75781 0.13672-1.707-0.61719-2.1211z"/>
 <path d="m92.555 16.469-2.2461-1.2305c-0.75781-0.41406-1.707-0.13672-2.1211 0.61719-0.41406 0.75781-0.13672 1.707 0.61719 2.1211l2.2461 1.2305c0.23828 0.12891 0.49609 0.19141 0.75 0.19141 0.55469 0 1.0859-0.29297 1.3711-0.8125 0.41406-0.75781 0.13672-1.707-0.61719-2.1211z"/>
 <path d="m77.289 11.664c0.23828 0.12891 0.49609 0.19141 0.75 0.19141 0.55469 0 1.0859-0.29297 1.3711-0.8125 0.41406-0.75781 0.13672-1.707-0.61719-2.1211l-2.2461-1.2305c-0.75781-0.41406-1.707-0.13672-2.1211 0.61719-0.41406 0.75781-0.13672 1.707 0.61719 2.1211l2.2461 1.2305z"/>
 <path d="m92.125 9.3906-2.457 0.71875c-0.82812 0.24219-1.3047 1.1094-1.0625 1.9375 0.19922 0.68359 0.82031 1.125 1.5 1.125 0.14453 0 0.29297-0.019531 0.4375-0.0625l2.457-0.71875c0.82812-0.24219 1.3047-1.1094 1.0625-1.9375s-1.1094-1.3047-1.9375-1.0625z"/>
 <path d="m81.957 8.707c0.14453 0 0.29297-0.019531 0.4375-0.0625 0.82812-0.24219 1.3047-1.1094 1.0625-1.9375l-0.71875-2.457c-0.24219-0.82812-1.1055-1.3047-1.9375-1.0625-0.82812 0.24219-1.3047 1.1094-1.0625 1.9375l0.71875 2.457c0.19922 0.68359 0.82031 1.125 1.5 1.125z"/>
</svg>