<svg xmlns="http://www.w3.org/2000/svg" xmlns:xlink="http://www.w3.org/1999/xlink" version="1.1" x="0px" y="0px" viewBox="0 0 66 82.5" enable-background="new 0 0 66 66" xml:space="preserve"><g><path fill="#55595c" d="M6.4,49.102C6.256,58.108,8.593,61.82,19.674,62.159c26.367,0.863,27.823,1.147,31.462,0.215   c3.204-0.834,5.737-2.692,6.952-5.101c1.07-2.14,1.103-4.599,1.133-6.768c0.442-31.612,0.735-32.471-0.45-35.756   c-1.568-4.356-6.201-7.487-10.89-7.47c-0.392-1.891-1.74-3.377-3.484-3.758c-0.011-0.002-0.021,0.002-0.032,0   c-0.014-0.002-0.025-0.01-0.039-0.011c-8.739-0.619-15.908-0.618-22.561,0.001c-0.012,0.001-0.021,0.008-0.033,0.01   c-0.009,0.002-0.018-0.002-0.027,0c-2.303,0.5-3.498,2.647-3.585,4.638c-4.776-0.149-9.1,3.011-10.614,9.454   C6.657,21.157,6.813,22.526,6.4,49.102z M44.409,4.556c1.547,0.454,2.401,1.95,2.564,3.282c0.362,3.055-4.831,9.031-5.831,9.695   c-1.109,0.737-3.186,0.557-5.053-0.444c-1.567-0.839-2.54-2.011-2.54-3.059c0-1.187,1.391-2.227,3.587-3.731   C38.486,9.377,37.688,9.983,44.409,4.556z M35.921,36.076l-0.293-0.293c-0.098-0.098-0.256-0.098-0.354,0   c-0.098,0.098-0.098,0.256,0,0.354l0.293,0.293l-0.397,0.397c-0.098,0.098-0.098,0.256,0,0.354c0.098,0.098,0.256,0.098,0.354,0   l0.397-0.397l0.88,0.88c0.014,0.138,0.029,0.275,0.043,0.413l-1.152,1.151c-0.098,0.098-0.098,0.256,0,0.354   c0.098,0.098,0.256,0.098,0.354,0l0.855-0.854c0.065,0.68,0.118,1.359,0.177,2.039l-0.112,0.112l-1.128-1.128   c-0.098-0.098-0.256-0.098-0.354,0c-0.098,0.098-0.098,0.256,0,0.354l1.128,1.128l-0.919,0.919c-0.098,0.098-0.098,0.256,0,0.354   c0.021,0.021,0.05,0.019,0.075,0.031c-0.047,0.094-0.049,0.204,0.03,0.282l1.202,1.201c0.029,0.029,0.068,0.031,0.104,0.043   c-0.052,0.007-0.106,0.02-0.146,0.06l-1.192,1.192l-0.136-0.136c-0.098-0.098-0.256-0.098-0.354,0   c-0.098,0.098-0.098,0.256,0,0.354l0.136,0.136l-0.345,0.345c-0.098,0.098-0.098,0.256,0,0.354c0.098,0.098,0.256,0.098,0.354,0   l0.345-0.345l0.737,0.737c-0.058,0.004-0.116,0.022-0.16,0.067l-1.099,1.099l-0.867-0.867c-0.013-0.013-0.031-0.009-0.045-0.019   l0.006-0.006c0.098-0.098,0.098-0.256,0-0.354c-0.098-0.098-0.256-0.098-0.354,0l-1.767,1.767c-0.064,0-0.128,0.024-0.177,0.073   c-0.049,0.049-0.073,0.113-0.073,0.177l-1.159,1.159l-0.919-0.92c-0.098-0.098-0.256-0.098-0.354,0   c-0.098,0.098-0.098,0.256,0,0.354l0.92,0.92l-0.579,0.579c-0.589-0.43-1.086-0.983-1.41-1.628   c-0.848-1.688-0.627-3.691-0.278-5.947l3.361-21.679c1.02,0.263,2.022,0.132,2.964-0.456c0.835,4.747,1.509,9.553,2.042,14.368   L35.921,36.076z M36.623,36.081c0.028,0.262,0.061,0.524,0.089,0.786l-0.437-0.437L36.623,36.081z M32.18,51.229l-1.02-1.02   l1.108-1.108L33.167,50l-0.606,0.606c-0.098,0.098-0.098,0.256,0,0.354c0.098,0.098,0.256,0.098,0.354,0l0.606-0.606l0.946,0.946   c-0.646,0.29-1.35,0.446-2.049,0.411c-0.741-0.03-1.469-0.266-2.116-0.642l0.506-0.506l1.02,1.02   C32.059,51.815,32.416,51.464,32.18,51.229z M32.621,48.748l1.382-1.382c0.009,0.014,0.006,0.033,0.019,0.045l0.867,0.867   l-1.369,1.369L32.621,48.748z M33.874,50l1.369-1.369l0.832,0.832c0.098,0.098,0.256,0.098,0.354,0   c0.098-0.098,0.098-0.256,0-0.354l-0.832-0.832l1.099-1.099c0.044-0.044,0.062-0.103,0.067-0.16l0.242,0.243   c0.049,0.049,0.113,0.073,0.177,0.073c0.047,0,0.09-0.027,0.131-0.054c-0.116,0.793-0.338,1.54-0.747,2.211   c-0.394,0.647-0.969,1.183-1.631,1.57L33.874,50z M36.118,45.668l1.192-1.192c0.042-0.042,0.057-0.097,0.063-0.152   c0.055,0.893,0.073,1.765-0.013,2.59c-0.002-0.002-0.001-0.005-0.003-0.007L36.118,45.668z M37.31,44.122   c-0.029-0.029-0.068-0.031-0.104-0.043c0.052-0.007,0.106-0.02,0.146-0.061c0,0,0-0.001,0.001-0.002   c0.006,0.083,0.011,0.166,0.016,0.248C37.361,44.214,37.349,44.162,37.31,44.122z M36.15,42.464   c-0.013-0.013-0.031-0.009-0.046-0.019l1.029-1.029c0.062,0.741,0.138,1.483,0.193,2.223L36.15,42.464z M31.459,20.452   c-0.062-0.051-0.133-0.09-0.217-0.106c-0.861-0.44-1.33-1.211-1.45-2.046c1.217-0.521,2.579-1.468,3.258-2.601   c0.588,0.978,1.672,1.811,2.731,2.35C34.809,19.894,33.385,21.226,31.459,20.452z M42.976,4.428   c-5.811,4.692-5.099,4.154-6.404,5.046c-1.187,0.812-2.515,1.727-3.293,2.694c-0.139,0.018-0.278,0.034-0.418,0.05   c-0.774-0.979-2.112-1.902-3.31-2.724c-1.321-0.906-0.577-0.342-6.453-5.087C29.015,3.929,35.404,3.935,42.976,4.428z M21.69,4.556   c6.747,5.449,5.937,4.832,7.295,5.764c2.184,1.498,3.564,2.537,3.564,3.71c0,2.515-5.326,5.014-7.596,3.501   c-0.452-0.295-0.798-0.719-1.164-1.168c-2.481-3.08-4.48-5.274-4.681-7.708C18.995,7.028,19.862,5.087,21.69,4.556z M8.477,17.844   c1.176-5.007,4.488-8.873,9.685-8.69c0.423,2.65,2.496,4.915,4.853,7.841c1.495,1.834,2.974,2.508,5.832,1.645   c0.203,1,0.791,1.94,1.749,2.502l-3.398,21.92c-0.376,2.428-0.608,4.597,0.373,6.549c0.905,1.801,2.792,3.018,4.807,3.101   c2.02,0.081,3.997-0.98,5.043-2.7c1.136-1.864,1.073-4.168,0.911-6.368c-0.745-10.125-2.571-22.277-2.943-23.277   c0.479-0.492,0.916-1.13,1.321-1.912c1.358,0.508,3.053,0.762,4.386,0.223c1.087-0.44,1.576-1.102,4.146-4.363   c1.366-1.734,2.788-3.788,2.762-6.044c4.247,0.025,8.41,2.884,9.828,6.82c1.116,3.094,0.837,3.461,0.391,35.403   c-0.046,3.422,0.092,8.981-7.335,10.913c-3.462,0.888-4.812,0.617-31.181-0.246C9.204,60.841,7.265,57.567,7.4,49.117   C7.812,22.589,7.661,21.26,8.477,17.844z"/><path fill="#55595c" d="M44.444,41.819l4.158,0.216c2.588,0.145,3.733-0.685,3.785-3.758l0.17-10.034c0.002-0.137-0.051-0.268-0.148-0.363   c-0.096-0.097-0.227-0.136-0.364-0.146c-3.558,0.087-7.014,0.01-10.553,0.098c-0.263,0.007-0.477,0.217-0.487,0.48l-0.388,9.813   C40.527,40.347,41.126,41.65,44.444,41.819z M42.987,40.615l0.316-0.316l0.398,0.398c0.048,0.048,0.11,0.071,0.173,0.072   C43.564,40.735,43.261,40.691,42.987,40.615z M44.496,40.821c-0.208-0.011-0.412-0.03-0.615-0.052   c0.063-0.001,0.126-0.024,0.174-0.072c0.098-0.098,0.098-0.256,0-0.354l-0.398-0.398l0.642-0.642l0.854,0.854l-0.306,0.306   c-0.098,0.098-0.098,0.256,0,0.354c0.018,0.018,0.043,0.015,0.064,0.026L44.496,40.821z M45.112,40.853   c0.03-0.012,0.064-0.012,0.089-0.037l0.306-0.306l0.322,0.322c0.045,0.045,0.103,0.063,0.161,0.067L45.112,40.853z M48.654,41.036   L46.018,40.9c0.06-0.003,0.119-0.023,0.165-0.068c0.098-0.098,0.098-0.256,0-0.354l-0.322-0.322l0.642-0.642l0.764,0.764   l-0.185,0.185c-0.098,0.098-0.098,0.256,0,0.354c0.049,0.049,0.113,0.073,0.177,0.073c0.064,0,0.128-0.024,0.177-0.073l0.185-0.185   l0.261,0.26c0.098,0.098,0.256,0.098,0.354,0c0.098-0.098,0.098-0.256,0-0.354l-0.261-0.261l0.944-0.945l1.502,1.502   C49.945,41.064,49.321,41.07,48.654,41.036z M46.857,39.16l0.944-0.945l0.764,0.764l-0.944,0.945L46.857,39.16z M50.815,40.522   l-1.543-1.543l0.944-0.944l0.94,0.94c0.049,0.049,0.113,0.073,0.177,0.073c0.005,0,0.009-0.005,0.014-0.006   C51.293,39.622,51.144,40.153,50.815,40.522z M51.436,35.408l-0.353-0.353l0.365-0.365L51.436,35.408z M51.463,33.805l-0.527-0.527   c-0.037-0.037-0.086-0.047-0.134-0.056l0.652-0.652l0.03,0.03L51.463,33.805z M51.495,31.905l-0.68-0.68   c-0.014-0.014-0.033-0.01-0.049-0.02l0.753-0.753L51.495,31.905z M41.615,38.163l0.37-9.343c3.133-0.067,6.374-0.01,9.563-0.075   l-0.017,1.007c-0.01,0.007-0.023,0.004-0.032,0.013l-1.52,1.521c-0.098,0.098-0.098,0.256,0,0.354c0.098,0.098,0.256,0.098,0.354,0   l0.109-0.109c0.01,0.015,0.007,0.035,0.02,0.049l0.638,0.638l-1.06,1.061c-0.098,0.098-0.098,0.256,0,0.354   c0.098,0.098,0.256,0.098,0.354,0l0.134-0.134c0.009,0.048,0.019,0.097,0.056,0.134l0.608,0.608l-0.461,0.461l-0.155-0.155   c-0.233-0.232-0.588,0.119-0.354,0.354l0.155,0.155l-0.88,0.88c-0.098,0.098-0.098,0.256,0,0.354c0.098,0.098,0.256,0.098,0.354,0   l0.88-0.88l0.695,0.695l-0.036,2.157c-0.001,0.075-0.007,0.153-0.01,0.23l-0.809-0.809l0.01-0.01c0.098-0.098,0.098-0.256,0-0.354   c-0.098-0.098-0.256-0.098-0.354,0l-0.01,0.01l-0.668-0.668c-0.098-0.098-0.256-0.098-0.354,0c-0.098,0.098-0.098,0.256,0,0.354   l0.668,0.668l-0.944,0.944l-0.764-0.764l0.581-0.581c0.098-0.098,0.098-0.256,0-0.353c-0.098-0.098-0.256-0.098-0.354,0   l-1.879,1.879l-0.276-0.276c-0.098-0.098-0.256-0.098-0.354,0c-0.098,0.098-0.098,0.256,0,0.354l0.276,0.276l-0.642,0.642   l-0.854-0.853l1.506-1.506c0.098-0.098,0.098-0.256,0-0.354c-0.098-0.098-0.256-0.098-0.354,0l-1.53,1.53   c-0.092-0.042-0.198-0.043-0.274,0.033c-0.076,0.076-0.075,0.182-0.033,0.274l-0.666,0.665l-0.578-0.578   c-0.098-0.098-0.256-0.098-0.354,0c-0.098,0.098-0.098,0.256,0,0.354l0.578,0.578l-0.472,0.472   C41.585,39.956,41.575,39.19,41.615,38.163z"/><path fill="#55595c" d="M38.552,10.935c-0.098-0.098-0.256-0.098-0.353,0c-0.098,0.098-0.098,0.256,0,0.354l0.372,0.372l-0.289,0.289l-0.513-0.513   c-0.098-0.098-0.256-0.098-0.354,0c-0.098,0.098-0.098,0.256,0,0.354l0.513,0.513l-0.995,0.995l-0.294-0.294   c-0.098-0.098-0.256-0.098-0.354,0c-0.098,0.098-0.098,0.256,0,0.354l0.294,0.294l-0.607,0.608c-0.098,0.098-0.098,0.256,0,0.354   c0.098,0.098,0.256,0.098,0.354,0l0.607-0.607l0.288,0.288c0.098,0.098,0.256,0.098,0.354,0c0.098-0.098,0.098-0.256,0-0.354   l-0.288-0.288l0.995-0.995l0.148,0.148c0.098,0.098,0.256,0.098,0.354,0c0.098-0.098,0.098-0.256,0-0.354l-0.148-0.148l0.289-0.289   l0.039,0.039c0.098,0.098,0.256,0.098,0.354,0c0.098-0.098,0.098-0.256,0-0.354l-0.039-0.039l0.682-0.682l0.013,0.013   c0.098,0.098,0.256,0.098,0.353,0c0.098-0.098,0.098-0.256,0-0.353l-0.013-0.013l0.289-0.289l0.308,0.308   c0.098,0.098,0.256,0.098,0.353,0c0.098-0.098,0.098-0.256,0-0.354l-0.308-0.308l0.638-0.638c0.098-0.098,0.098-0.256,0-0.354   c-0.098-0.098-0.256-0.098-0.353,0l-0.638,0.638l-0.2-0.199c-0.098-0.098-0.256-0.098-0.354,0c-0.098,0.098-0.098,0.256,0,0.354   l0.2,0.199l-0.289,0.289l-0.404-0.403c-0.232-0.232-0.588,0.119-0.354,0.354l0.404,0.404l-0.681,0.681L38.552,10.935z"/><path fill="#55595c" d="M12.11,30.523l1.83-1.83l1.999,1.998l-1.548,1.548c-0.098,0.098-0.098,0.256,0,0.353c0.098,0.098,0.256,0.098,0.354,0   l1.548-1.548l0.265,0.265c0.098,0.098,0.256,0.098,0.353,0c0.098-0.098,0.098-0.256,0-0.354l-0.265-0.265l0.587-0.587l0.807,0.807   c0.098,0.098,0.256,0.098,0.354,0c0.098-0.098,0.098-0.256,0-0.354l-0.807-0.807l1.591-1.591l0.67,0.67   c0.098,0.098,0.256,0.098,0.354,0c0.098-0.098,0.098-0.256,0-0.354l-0.67-0.67l1.34-1.34l1.182,1.182   c0.098,0.098,0.256,0.098,0.354,0c0.098-0.098,0.098-0.256,0-0.354l-1.182-1.182l1.58-1.58c0.098-0.098,0.098-0.256,0-0.354   c-0.098-0.098-0.256-0.098-0.354,0l-1.58,1.58l-0.431-0.431l1.037-1.037c0.098-0.098,0.098-0.256,0-0.354   c-0.098-0.098-0.256-0.098-0.354,0l-1.037,1.037l-1.215-1.214l1.237-1.237c0.098-0.098,0.098-0.256,0-0.354   c-0.098-0.098-0.256-0.098-0.353,0l-1.238,1.237l-0.764-0.764c-0.098-0.098-0.256-0.098-0.354,0c-0.098,0.098-0.098,0.256,0,0.354   l0.764,0.764l-1.34,1.34l-0.45-0.45c-0.098-0.098-0.256-0.098-0.354,0c-0.098,0.098-0.098,0.256,0,0.354l0.45,0.45l-1.591,1.591   l-0.764-0.764c-0.098-0.098-0.256-0.098-0.354,0c-0.098,0.098-0.098,0.256,0,0.354l0.764,0.764l-0.587,0.587l-1.454-1.454   c-0.098-0.098-0.256-0.098-0.353,0c-0.098,0.098-0.098,0.256,0,0.353l1.454,1.454l-1.83,1.83c-0.098,0.098-0.098,0.256,0,0.353   C11.854,30.62,12.012,30.62,12.11,30.523z M20.517,26.113l-1.34,1.34l-0.431-0.431l1.34-1.34L20.517,26.113z M18.518,24.115   l1.214,1.214l-1.34,1.34l-1.214-1.214L18.518,24.115z M16.825,25.808l1.214,1.214l-1.391,1.391c-0.098,0.098-0.098,0.256,0,0.354   c0.098,0.098,0.256,0.098,0.354,0l1.391-1.391l0.431,0.431l-1.591,1.591l-1.998-1.999L16.825,25.808z M14.881,27.752l1.998,1.999   l-0.587,0.587l-1.999-1.998L14.881,27.752z"/></g></svg>