<svg xmlns="http://www.w3.org/2000/svg" xmlns:xlink="http://www.w3.org/1999/xlink" version="1.1" x="0px" y="0px" viewBox="0 0 66 82.5" enable-background="new 0 0 66 66" xml:space="preserve"><g><path d="M29.75,25.124c3.719,1.658,8.409,0.679,11.154-2.326c2.745-3.005,3.297-7.766,1.312-11.319v0   c-0.893-1.597-2.332-2.964-4.054-3.848c-2.847-1.463-6.257-1.402-9.125,0.162c-2.872,1.565-4.698,4.291-5.014,7.48   C23.623,19.324,26.031,23.467,29.75,25.124z M36.033,7.885c0.389,0.105,0.769,0.241,1.142,0.402l-0.422,0.422l-0.772-0.772   L36.033,7.885z M33.993,7.588c0.493,0.012,0.982,0.069,1.466,0.164l-0.87,0.869l-0.815-0.815L33.993,7.588z M32.894,7.632   c0.002,0.002,0.001,0.004,0.002,0.006l0.17,0.17l-1.508,1.507L30.47,8.225C31.256,7.909,32.071,7.715,32.894,7.632z M27.886,9.812   l0.592,0.592l-1.811,1.811l-0.437-0.437C26.677,11.049,27.228,10.386,27.886,9.812z M25.97,12.224l1.34,1.34l-1.767,1.767   l-0.445-0.445C25.245,13.94,25.536,13.044,25.97,12.224z M25.347,18.613l0.664,0.665l-0.31,0.31   C25.565,19.269,25.446,18.944,25.347,18.613z M26.364,19.631l0.088,0.088c0.099,0.099,0.257,0.096,0.354,0   c0.098-0.098,0.098-0.256,0-0.354l-0.088-0.088l2.049-2.048c0.098-0.098,0.098-0.256,0-0.354c-0.098-0.098-0.256-0.098-0.354,0   l-2.049,2.048l-1.238-1.239c-0.131-0.716-0.174-1.447-0.115-2.178l0.177,0.177l-0.083,0.083c-0.098,0.098-0.098,0.256,0,0.354   c0.097,0.097,0.255,0.098,0.354,0l0.083-0.083l1.235,1.235c0.097,0.097,0.255,0.098,0.354,0c0.098-0.098,0.098-0.256,0-0.354   l-1.235-1.235l1.767-1.767l0.923,0.923c0.097,0.097,0.255,0.098,0.354,0c0.098-0.098,0.098-0.256,0-0.354l-0.923-0.923l0.742-0.742   c0.098-0.098,0.098-0.256,0-0.354c-0.098-0.098-0.256-0.098-0.354,0l-0.742,0.742l-0.642-0.642l1.811-1.811l1.395,1.395   c0.097,0.097,0.255,0.098,0.354,0c0.098-0.098,0.098-0.256,0-0.354l-1.395-1.395l0.689-0.689c0.098-0.098,0.098-0.256,0-0.354   c-0.098-0.098-0.256-0.098-0.354,0l-0.689,0.689l-0.553-0.553c0.386-0.301,0.792-0.584,1.236-0.826   c0.154-0.084,0.315-0.146,0.473-0.22l1.218,1.218l-0.733,0.733c-0.098,0.098-0.098,0.256,0,0.354c0.097,0.097,0.255,0.098,0.353,0   l0.733-0.733l0.825,0.825c0.097,0.097,0.255,0.098,0.354,0c0.098-0.098,0.098-0.256,0-0.353l-0.825-0.825l1.508-1.507l0.815,0.815   l-0.559,0.559c-0.098,0.098-0.098,0.256,0,0.353c0.097,0.097,0.255,0.098,0.354,0l0.559-0.559l0.347,0.347   c0.097,0.097,0.255,0.098,0.354,0c0.098-0.098,0.098-0.256,0-0.354l-0.347-0.347l0.685-0.685l0.844,0.844   c0.007,0.053,0.02,0.107,0.061,0.148c0.041,0.041,0.095,0.055,0.148,0.061l0.467,0.467c0.097,0.097,0.255,0.098,0.354,0   c0.098-0.098,0.098-0.256,0-0.354l-0.395-0.395l0.559-0.559c0.013,0.007,0.026,0.011,0.039,0.017   c1.548,0.795,2.84,2.02,3.638,3.447v0c1.781,3.189,1.286,7.461-1.177,10.157c-2.463,2.696-6.669,3.575-10.01,2.088   c-1.85-0.825-3.336-2.337-4.234-4.139L26.364,19.631z"/><path d="M9.848,63.945c15.25,1.491,30.715,1.69,45.962,0.592c1.864-0.125,3.963-0.383,5.28-1.867c0,0,0.001-0.001,0.001-0.001   c1.608-1.822,1.219-4.439,0.56-6.997l-4.041-15.57c-2.329-8.918-4.989-9.731-14.146-10.51c7.809-14.602,3.775-24.164-2.72-27.479   c-6.501-3.326-19.645-0.319-22.21,7.142c-1.162,3.362-0.171,6.969,1.073,10.365c1.233,3.379,2.639,6.661,4.17,9.781   C8.232,27.767,8.912,35.255,4.129,56.447C3.085,61.065,4.192,63.388,9.848,63.945z M41.047,64.178l0.255-0.255l0.229,0.229   c0.011,0.011,0.027,0.008,0.039,0.016C41.396,64.172,41.221,64.175,41.047,64.178z M55.74,63.539   c-4.611,0.332-9.243,0.53-13.882,0.624c0.008-0.006,0.019-0.004,0.026-0.011c0.098-0.098,0.098-0.256,0-0.353l-0.229-0.229   l0.616-0.616l1.082,1.082c0.097,0.097,0.255,0.098,0.354,0c0.098-0.098,0.098-0.256,0-0.354L42.625,62.6l1.208-1.208l1.37,1.37   l-0.846,0.846c-0.098,0.098-0.098,0.256,0,0.354c0.097,0.097,0.255,0.098,0.353,0l0.846-0.846l0.522,0.522   c0.097,0.097,0.255,0.098,0.354,0c0.098-0.098,0.098-0.256,0-0.354l-0.522-0.522l1.262-1.262l1.42,1.421   c-0.001,0.065,0.022,0.13,0.072,0.18c0.049,0.049,0.112,0.073,0.177,0.073c0.001,0,0.002-0.001,0.003-0.001l0.483,0.483   c0.097,0.097,0.255,0.098,0.354,0c0.098-0.098,0.098-0.256,0-0.354l-0.432-0.432l2.069-2.069l1.37,1.37l-0.254,0.254   c-0.098,0.098-0.098,0.256,0,0.353c0.097,0.097,0.255,0.098,0.354,0l0.254-0.254l0.289,0.289c0.097,0.097,0.255,0.098,0.354,0   c0.098-0.098,0.098-0.256,0-0.354l-0.289-0.289l1.316-1.316l1.154,1.154l-0.2,0.2c-0.098,0.098-0.098,0.256,0,0.354   c0.097,0.097,0.255,0.098,0.354,0l0.2-0.2l1.023,1.023C56.74,63.459,56.232,63.506,55.74,63.539z M47.526,61.147l2.085-2.085   c0.01,0.017,0.007,0.039,0.022,0.054l1.331,1.331l-2.069,2.069L47.526,61.147z M54.71,60.147l-1.369-1.369l1.192-1.192   c0.009,0.046,0.018,0.094,0.054,0.13l1.277,1.277L54.71,60.147z M56.218,59.346l1.154,1.154l-1.154,1.154l-1.154-1.154   L56.218,59.346z M54.357,60.501l-1.316,1.316l-1.37-1.37l1.316-1.316L54.357,60.501z M50.562,31.741   c0.015-0.015,0.012-0.037,0.023-0.055c0.515,0.174,1.009,0.389,1.475,0.655l0.156,0.156l-0.867,0.867   c-0.003-0.004-0.002-0.009-0.005-0.013l-1.196-1.195L50.562,31.741z M50.069,31.527l-0.275,0.275l-0.461-0.461   C49.581,31.397,49.826,31.458,50.069,31.527z M47.802,31.066l-0.881,0.882l-1.125-1.125C46.554,30.905,47.065,30.961,47.802,31.066   z M44.568,30.696l-0.521,0.521l-0.626-0.626C43.81,30.624,44.193,30.659,44.568,30.696z M42.507,33.111   c0.097,0.097,0.255,0.098,0.354,0l1.187-1.187l0.62,0.621l-1.4,1.399l-1.448-1.448c0.316-0.526,0.878-1.502,1.028-1.771   l0.846,0.846l-1.187,1.186C42.409,32.855,42.409,33.013,42.507,33.111z M20.546,19.275c-1.181-3.223-2.128-6.628-1.067-9.695   c2.343-6.817,14.8-9.653,20.81-6.577c4.853,2.477,10.355,10.558,2.732,25.288c-2.452,4.811-4.942,8.027-5.824,9.349   c-4.975,7.463-4.832,4.572-6.889,1.4c-3.288-5.18-5.244-9.275-5.244-9.275C24.052,27.853,22.106,23.552,20.546,19.275z    M40.041,35.516l-0.48,0.48c0.067-0.098,0.327-0.478,0.389-0.571L40.041,35.516z M35.885,41.171   c0.346-0.422,0.734-0.94,1.041-1.369l0.945,0.945c-0.024,0.012-0.052,0.01-0.072,0.03l-1.154,1.154L35.885,41.171z M36.292,42.285   l-1.546,1.546l-0.815-0.815c0.6-0.363,1.17-0.936,1.63-1.462L36.292,42.285z M5.104,56.667c4.251-18.827,4.505-20.969,6.725-23.426   c3.695-4.115,9.691-3.024,12.466-2.779c1.26,2.528,6.756,13.715,9.164,12.788l0.934,0.934c-0.212,0.212-0.473,0.403-0.261,0.615   c0.097,0.097,0.255,0.098,0.354,0l0.261-0.261l0.356,0.356c0.097,0.097,0.255,0.098,0.354,0c0.098-0.098,0.098-0.256,0-0.354   l-0.356-0.356l1.546-1.546l0.077,0.077c0.097,0.097,0.255,0.098,0.353,0c0.098-0.098,0.098-0.256,0-0.353l-0.077-0.077l1.154-1.154   c0.02-0.02,0.018-0.048,0.03-0.072l0.174,0.174c0.099,0.099,0.257,0.097,0.353,0c0.098-0.098,0.098-0.256,0-0.354l-1.492-1.493   c0.938-1.347,0.506-0.847,1.472-1.813l1.258,1.258c0.097,0.097,0.255,0.098,0.354,0c0.098-0.098,0.098-0.256,0-0.354l-1.258-1.258   l1.351-1.351l0.9,0.9c0.097,0.097,0.255,0.098,0.354,0c0.098-0.098,0.098-0.256,0-0.354l-0.902-0.901   c0.094-0.098,0.095-0.253-0.002-0.349c-0.096-0.097-0.251-0.096-0.349-0.002l-0.164-0.165c0.644-0.97,0.604-0.9,1.318-2.065   l1.365,1.364l-1.382,1.382c-0.098,0.098-0.098,0.256,0,0.354c0.097,0.097,0.255,0.098,0.354,0l1.382-1.382l0.138,0.138   c0.097,0.097,0.255,0.098,0.354,0c0.098-0.098,0.098-0.256,0-0.354l-0.137-0.137l1.399-1.399l0.299,0.3   c0.099,0.099,0.257,0.096,0.354,0c0.098-0.098,0.098-0.256,0-0.354l-1.273-1.274l0.726-0.726c0.006,0.008,0.004,0.019,0.011,0.026   l1.43,1.43l-0.262,0.262c-0.098,0.098-0.098,0.256,0,0.354c0.097,0.097,0.255,0.098,0.353,0l0.262-0.262l0.945,0.945   c0.097,0.097,0.255,0.098,0.354,0c0.098-0.098,0.098-0.256,0-0.354l-0.945-0.945l1.14-1.141c0.137,0.023,0.272,0.049,0.408,0.075   c-0.07,0.098-0.073,0.23,0.015,0.318l0.603,0.602l-0.992,0.992c-0.098,0.098-0.098,0.256,0,0.354c0.099,0.099,0.257,0.096,0.354,0   l0.992-0.992l1.196,1.195c0.004,0.004,0.009,0.002,0.013,0.005l-0.217,0.217c-0.098,0.098-0.098,0.256,0,0.354   c0.097,0.097,0.255,0.098,0.354,0l1.43-1.43c0.202,0.202,1.283,1.406,1.534,1.293c1.25,1.627,1.908,3.795,2.539,6.211l4.04,15.569   c0.962,3.728,0.959,6.553-2.842,7.355l-1.269-1.269l1.154-1.154l1.096,1.096c0.097,0.097,0.255,0.098,0.354,0   c0.098-0.098,0.098-0.256,0-0.354L58.079,60.5l1.008-1.008c0.069-0.069,0.071-0.162,0.044-0.248l0.249,0.249   c0.097,0.097,0.255,0.098,0.353,0c0.098-0.098,0.098-0.256,0-0.354l-1.811-1.811c0.025,0.008,0.046,0.03,0.072,0.03   c0.063,0,0.128-0.024,0.177-0.073l1.277-1.277l0.203,0.203c0.097,0.097,0.255,0.098,0.354,0c0.098-0.098,0.098-0.256,0-0.354   l-0.203-0.203l0.42-0.42c0.098-0.098,0.098-0.256,0-0.354c-0.097-0.097-0.255-0.099-0.354,0l-0.42,0.42l-1.277-1.277   c-0.043-0.043-0.1-0.06-0.157-0.065l1.004-0.86c0.105-0.089,0.119-0.247,0.029-0.353c-0.088-0.105-0.247-0.117-0.352-0.029   l-1.416,1.199l-0.107,0.108c-0.098,0.098-0.098,0.256,0,0.354c0.097,0.096,0.255,0.099,0.354-0.001l0.226-0.193   c-0.005,0.07,0.013,0.14,0.066,0.194l1.277,1.277l-1.277,1.277c-0.069,0.069-0.071,0.162-0.043,0.249l-0.895-0.895   c-0.098-0.098-0.256-0.098-0.353,0c-0.098,0.098-0.098,0.256,0,0.354l2.456,2.456c-0.086-0.028-0.18-0.025-0.248,0.044   l-1.008,1.008l-1.154-1.154l0.759-0.759c0.098-0.098,0.098-0.256,0-0.354c-0.098-0.098-0.256-0.098-0.354,0l-0.759,0.759   l-1.277-1.277c-0.036-0.036-0.084-0.045-0.131-0.054l0.316-0.316c0.098-0.098,0.098-0.256,0-0.354   c-0.098-0.098-0.256-0.098-0.354,0l-1.785,1.785l-0.954-0.954c-0.098-0.098-0.256-0.098-0.353,0c-0.098,0.098-0.098,0.256,0,0.354   l0.954,0.954l-1.316,1.316l-1.331-1.331c-0.084-0.084-0.207-0.081-0.303-0.021c-0.012-0.025-0.01-0.054-0.031-0.075   c-0.098-0.098-0.256-0.098-0.354,0l-2.127,2.127l-0.631-0.631c-0.098-0.098-0.256-0.098-0.354,0c-0.098,0.098-0.098,0.256,0,0.354   l0.631,0.631l-1.262,1.262l-1.37-1.37l0.936-0.936c0.098-0.098,0.098-0.256,0-0.354c-0.098-0.098-0.256-0.098-0.354,0l-2.498,2.498   l-0.361-0.361c-0.098-0.098-0.256-0.098-0.353,0c-0.098,0.098-0.098,0.256,0,0.354l0.361,0.361l-0.616,0.616l-0.685-0.684   c-0.099-0.098-0.257-0.097-0.353,0c-0.098,0.098-0.098,0.256,0,0.354l0.685,0.684l-0.622,0.622   c-10.139,0.149-20.308-0.257-30.381-1.242C4.884,62.452,4.203,60.652,5.104,56.667z"/><path d="M8.328,55.115l0.328,0.034l-0.517,1.767c-0.038,0.132,0.037,0.271,0.17,0.31c0.024,0.007,0.047,0.01,0.07,0.01   c0.108,0,0.208-0.071,0.24-0.18l0.543-1.855l0.816,0.085c0.009,0.001,0.018,0.002,0.026,0.002c0.127,0,0.235-0.096,0.249-0.224   c0.014-0.137-0.086-0.26-0.223-0.274l-0.726-0.076l0.576-1.968l0.386,0.155c0.031,0.012,0.063,0.018,0.094,0.018   c0.099,0,0.192-0.059,0.233-0.157c0.051-0.128-0.011-0.273-0.139-0.325l-0.432-0.174l0.796-2.718l0.297,0.029   c0.009,0,0.017,0.001,0.024,0.001c0.127,0,0.236-0.097,0.249-0.226c0.014-0.137-0.087-0.26-0.225-0.273l-0.203-0.02l0.766-2.614   l1.416,0.42c0.024,0.007,0.048,0.01,0.071,0.01c0.108,0,0.207-0.07,0.239-0.179c0.04-0.133-0.036-0.272-0.168-0.311l-1.418-0.421   l0.624-2.13c0.038-0.132-0.037-0.271-0.17-0.31c-0.131-0.038-0.272,0.037-0.311,0.169l-0.623,2.128L9.65,45.304   c-0.313-0.093-0.461,0.384-0.142,0.479l1.741,0.517l-0.793,2.707l-1.199-0.118c-0.138-0.007-0.26,0.087-0.273,0.225   c-0.014,0.137,0.087,0.26,0.225,0.273l1.105,0.109l-0.756,2.581l-0.404-0.162c-0.13-0.052-0.274,0.01-0.326,0.139   c-0.051,0.128,0.011,0.273,0.139,0.325l0.45,0.181l-0.616,2.103l-0.418-0.044c-0.132-0.011-0.261,0.085-0.275,0.223   C8.092,54.978,8.192,55.101,8.328,55.115z"/></g></svg>