<svg xmlns="http://www.w3.org/2000/svg" xmlns:xlink="http://www.w3.org/1999/xlink" version="1.1" x="0px" y="0px" viewBox="0 0 70 87.5" style="enable-background:new 0 0 70 70;" xml:space="preserve"><g><path d="M63.2369194,44.3628578c0.6139793,0,0.6141281-4.1073608,0-4.1073608   C62.6229401,40.255497,62.6227951,44.3628578,63.2369194,44.3628578z"/><path d="M64.9684296,43.1428261c0.6141052,0,0.6139145-4.1073608,0-4.1073608   C64.3545914,39.0354652,64.3541489,43.1428261,64.9684296,43.1428261z"/><path d="M54.541729,36.55933c0.4091797-0.0673828,0.6855469-0.4536133,0.6181641-0.8623047   c-0.0722656-0.4375,0.234375-0.9384766,0.6572266-1.0727539c0.4248047-0.1357422,0.9628906,0.0981445,1.15625,0.4975586   c0.1796875,0.3725586,0.6298828,0.5292969,1.0009766,0.3486328c1.2591972-0.6098213-0.5836563-2.9221611-2.6103516-2.2758789   c-1.2093163,0.3834152-1.7590218,1.5811081-1.7162132,2.441288C53.6769943,36.2228127,53.9820824,36.6526031,54.541729,36.55933z"/><path d="M55.7013969,37.9345741c-0.7677612,0.4370117-1.1463623,1.2196045-0.8456421,1.7479248   c0.3007813,0.5283203,1.1669312,0.602356,1.9346924,0.1653442s1.1463623-1.2196045,0.8455811-1.7479248   C57.3353081,37.5715981,56.4690971,37.4975624,55.7013969,37.9345741z"/><path d="M26.6403637,29.5251503c0.2636719,0,0.5185547-0.1386719,0.65625-0.3847656   c0.5421772-0.9736443,1.7871857-1.3204861,2.7558594-0.765625c0.359375,0.2084961,0.8183594,0.0820313,1.0234375-0.2773438   c0.2208023-0.3850994,0.0820522-0.7473259-0.2714386-1.01828c-0.9834461-0.7538204-3.6290016-0.8011971-4.8184052,1.33078   C25.7848949,28.7717323,26.0725536,29.5251503,26.6403637,29.5251503z"/><path d="M46.3596001,22.6101112c0.3087158-0.6144409,0.1712646-1.3773804-0.1782837-1.9695435   c-0.428463-0.7258511-0.970192-1.1229897-3.1679077-2.991333c-0.1624146,0.9473877-0.3249512,1.9174194-0.1588745,2.8642578   C43.0677299,21.7289467,45.1919975,24.9342079,46.3596001,22.6101112z"/><path d="M21.5788403,52.4104042c0.0585938,0.3701172,0.3769531,0.6337891,0.7402344,0.6337891   c0.4588814,0,0.8142223-0.4088936,0.7421875-0.8662109c-0.328125-2.0849609-1.3310547-4.0537109-2.8261719-5.5429688   c-0.2939453-0.2924805-0.7685547-0.2915039-1.0605469,0.0019531s-0.2919922,0.7680664,0.0019531,1.0605469   C20.4470043,48.9641151,21.3005199,50.6379433,21.5788403,52.4104042z"/><path d="M3.5153627,37.0041542c1.4907537,1.8771324,3.7363353,2.72295,5.8751221,3.4161377   c0.1818848,1.2882996,0.458704,2.4949837,1.0841064,4.0778809c0.4739609,1.9409409,1.9899893,4.7334824,4.1022339,6.2996216   c0.9869385,0.7377319,2.1333628,1.276001,2.9607553,2.1732178c1.4454956,1.5651245,1.6748047,3.7981567,2.3028564,5.7321777   c0.1594849,0.4884644-0.1096802,1.0068359,0.2392578,1.4653931c0.0036621,0.0048828,0.0100098,0.006897,0.0137939,0.0117188   c0.0859985,0.1948242,0.25,0.3499146,0.4609375,0.4156494c1.1771679,0.3684502,2.2423096,0.6280441,3.4252319,0.8139648   c0.2365723,0.1084595,0.4738159,0.203125,0.7131958,0.2399902c0.944519,0.1454468,1.7997437-0.6394043,2.2097778-1.5025635   c0.4100952-0.8632202,0.5368652-1.8396606,0.9487305-2.7020264c0.8421707,0.2554665,1.3403416,0.4978867,2.9078369,0.8395386   c2.9880962,0.651577,6.1078434,0.7081032,9.1187725,0.1627197c3.1214256-0.565258,2.6213417-1.1789169,2.8389893,0.5046387   c0.222187,1.7156677,0.1632462,2.7331276,1.9907837,2.9154663c-0.0135498-0.0100708-0.0217285-0.0246582-0.0343018-0.0355835   c1.1126785,0.0322037,2.5519638,0.3998642,3.6742554-0.3762817c2.1970901-0.3379326,1.7311325-2.2732277,2.0203857-3.2717285   c0.1993408-0.6879272,0.7124023-1.2507935,1.3066406-1.6505737c1.9105606-1.2853508,9.0540657-2.7175789,13.4176674-7.6607056   c0.8430176-0.5737915,1.6087646-1.2392578,2.0577393-2.0463867c0.9124603-1.6371384,0.5970612-5.8923836,0.2695313-7.75   c-0.0917969-0.4804688-0.1962891-1.0253906-0.578125-1.4770508c-0.7841339-0.980484-2.2796555-0.9589081-2.4414063-0.9785156   c-1.8480568-0.1357346-1.8936348-0.2371674-4.1972694-4.4345703c-1.5348511-2.7941895-3.1185303-5.6437378-5.2160034-8.0529175   c-0.0219154-0.2120075,1.0247154-1.8724155-1.3250122-5.5857544c-0.8812599-1.3776722-1.9156723-2.8638163-1.8847656-4.3798838   c0.0127373-0.6261816-0.7062111-0.9925652-1.2060547-0.6113281c-2.9036636,2.27946-2.9079018,2.1029234-3.0639038,2.4867563   c-1.72686-2.1560564-3.6807671-3.5270567-6.1499634-5.236268c-0.528614-0.3672695-1.2523232,0.0665464-1.1708984,0.7104492   c0.2309799,1.8299427-0.4441528,3.6969538-0.9660034,5.5806284c-1.3315392-0.1582584-2.2470932-0.2821999-3.5874023-0.2393188   c0.8438454-6.027545-3.8896637-9.5346813-9.3860455-8.6777353c-6.2535686,0.9758368-9.7902298,7.1306906-6.8537598,12.3193979   C13.4235344,24.7629719,8.9450665,31.3655167,9.2447939,38.7855873c-2.3842278-0.8086166-4.8901148-2.033596-5.4159546-4.4972534   c1.3374023,1.5287018,3.2133431,1.7288551,4.4599609,0.9301758c1.0380859-0.6660156,1.5537109-2.0463867,1.2265625-3.2817383   c-0.616271-2.3300247-3.6328325-3.3380852-5.6689453-1.7382813c-0.0209103-1.6498241,0.7824087-3.1543083,1.9853516-4.0756836   c0.3291016-0.2514648,0.3916016-0.722168,0.1396484-1.0512695c-0.2509766-0.3286133-0.7226563-0.3930664-1.0517578-0.1391602   c-2.0347655,1.5585079-3.070569,4.2530861-2.3378906,6.9614258C1.8766248,33.6065712,2.3453255,35.5303917,3.5153627,37.0041542z    M50.4460258,15.5412626c0.6568069,2.5824347,3.2156944,4.7785444,3.2381592,7.2290049   c-1.3463249-1.2817936-2.4656715-2.078474-4.0865479-2.9243164c-0.2971535-1.0005779-0.7528229-1.9041748-1.3369141-2.7896118   C48.6808052,17.0169621,48.6498718,16.8576946,50.4460258,15.5412626z M27.8132153,9.5598173   c1.0039063,0,1.9853516,0.175293,2.8515625,0.5175781c6.0417919,2.3840208,3.6898136,11.6104975-1.642334,13.3033457   c-0.7360153,0.0521088-1.210928,0.142786-1.7635498,0.2764282c-2.5786743,0.006958-5.1513672-1.5769043-6.449585-3.678894   C17.8922024,15.2522297,21.8814125,9.5598173,27.8132153,9.5598173z M20.2391186,21.7392616   c1.098999,1.3303223,2.6248779,2.3987427,4.3196411,2.9734497c-1.0595703,0.5862427-2.0259399,1.3408813-2.8344116,2.2416382   c-0.2763672,0.3085938-0.2509766,0.7827148,0.0576172,1.059082c0.3110447,0.2782478,0.7839088,0.2493629,1.0595703-0.0571289   c1.2216187-1.3618774,2.8601074-2.3334961,4.6312866-2.7927856c0.6049194-0.020874,1.2116089-0.1179199,1.8132324-0.2941284   c1.4263916-0.0766602,2.8724957,0.1661377,4.187315,0.7255859c0.3769531,0.1621094,0.8203125-0.0146484,0.984375-0.3959961   c0.1621094-0.3813477-0.015625-0.8217773-0.3964844-0.9838867c-0.7113037-0.3030396-1.4569702-0.5216675-2.216856-0.6658936   c1.6190166-1.2530518,2.8408184-3.1243286,3.4540997-5.1751099c1.3799324-0.0752392,2.2169609,0.031126,3.5723877,0.1930542   c-0.3088989,1.6069946-0.3964233,3.5248413,0.5253296,5.1694336c1.0761719,1.9243164,3.109375,2.8652344,5.2734375,3.7363281   c0.3787422,0.1531067,0.8195534-0.02738,0.9765625-0.4160156c0.1542969-0.3842773-0.0322266-0.8208008-0.4160156-0.9755859   c-4.3979759-1.7686539-5.9902878-3.3630619-4.5957031-8.472168c0.423439-1.5477333,0.9624557-3.0996494,1.0761719-4.7265635   c2.6735725,1.8928442,5.3332863,4.0729532,6.3916016,7.1796885c0.2465477,0.7192268,0.3743591,1.7103424,0.5957031,2.5380859   c0.1074219,0.3999023,0.5185547,0.6381836,0.9179688,0.53125c0.4003906-0.1069336,0.6376953-0.5180664,0.53125-0.9179688   c-0.0327148-0.1224365-0.0567627-0.2572632-0.0854492-0.3850098c6.2423592,3.8622284,8.8246002,12.223278,11.2147827,14.9699707   c-0.0244751,0.0220337-0.0546265,0.0343018-0.0765991,0.0600586c-1.90625,2.2373047-2.3417969,5.6474609-1.0595703,8.2924805   c0.1829758,0.3769569,0.6341362,0.5264549,1.0019531,0.3476563c0.3730469-0.1806641,0.5283203-0.6293945,0.3476563-1.0019531   c-1.0302734-2.1259766-0.6806641-4.8671875,0.8525391-6.6655273c0.0292358-0.0342407,0.0408936-0.0757446,0.0628662-0.1132813   c0.6629066,0.321682,1.3278542,0.3551331,2.0279579,0.4091797c1.262352,0.0973206,1.3551788,0.4094543,1.5126953,1.2265625   c0.3085938,1.7568359,0.3828125,3.5415039,0.2207031,5.3110352c-0.0353394,0.4248047-0.0942993,0.8955078-0.2614136,1.279541   c-0.1402588-0.0310669-0.2875977-0.0357056-0.4319458,0.0202637c-3.2265663,1.2666016-7.073246,0.9365234-10.0390663-0.8613281   c-0.3554688-0.2163086-0.8154297-0.1015625-1.0302734,0.2524414s-0.1015625,0.8154297,0.2529297,1.0297852   c2.5562439,1.5504456,5.7991905,2.1975975,8.9885864,1.6359863c-0.9100952,0.5518723-1.6570892,0.9161072-2.3928833,1.3513184   c-2.2710152,1.3261909-4.8456421,2.6357422-7.3076172,3.5639648c-2.3769531,0.8974609-5.0712891,1.9145508-5.9501953,4.706543   c-0.1376953,0.4433594-0.1494141,0.8916016-0.1591797,1.324707c-0.0287895,1.1795998,0.0066566,1.628746-2.3066406,1.4194336   c-0.2539063-0.0234375-0.5029297-0.0458984-0.7441406-0.0561523c-0.2226563-0.9863281,0.0800781-4.1904297,0.2275391-4.7587891   c0-0.0009766,0-0.0019531,0-0.0029297c0.0233765-0.0776978,0.0234985-0.1553955,0.0217896-0.2323608   c0.3630371-1.3673096,0.8962402-2.6898804,1.6276245-3.8980103c0.2148438-0.3544922,0.1015625-0.8154297-0.2529297-1.0302734   c-0.3574219-0.2158203-0.8164063-0.1000977-1.0302734,0.2529297c-0.8041382,1.3285522-1.3905029,2.7825317-1.7901001,4.2857666   c-0.4160233,0.1863213-1.2917252,0.4266586-1.6141968,0.5247803c-3.5018501,1.2169189-7.3767242,1.389698-10.9033184,0.6425781   c-1.2732086-0.2679558-2.4894753-0.8645859-3.9558716-1.2759399c-0.2188721-1.7960815-0.8919678-3.5413818-1.96698-4.9872437   c-0.2451172-0.3325195-0.7177734-0.4013672-1.0488281-0.1547852c-0.3330078,0.2475586-0.4013672,0.7172852-0.1542969,1.0493164   c1.4580078,1.9619141,2.0576172,4.5668945,1.6015625,6.96875c-0.109499,0.5737686-0.8460598,2.1519547-1.0576172,2.2485352   c-0.2057705,0.0160751-1.6249123-0.2433624-3.0048828-0.6552734c-0.3497124-4.2670898-1.1552906-7.7838402-5.0664063-9.5893555   c-1.0380278-0.482502-1.2914295-0.7891769-1.3916025-0.855957c-2.0070419-1.7224808-3.6042347-5.2885132-4.1064453-8.2685547   C9.6665506,33.140461,14.1352663,26.1106472,20.2391186,21.7392616z M8.0651674,32.3200722   c0.1621094,0.6137695-0.0898438,1.3168945-0.5869141,1.6357422c-0.9041662,0.5801239-2.4884048,0.0875511-3.28125-1.9418945   C5.3111448,30.2627888,7.6629214,30.8014107,8.0651674,32.3200722z"/><path d="M26.4255199,16.7360878c0.0046997,0.0007324,0.0095215,0.0013428,0.0142212,0.0020752   c0.0299072,0.6107178,0.071228,1.2202759,0.1063843,1.8309326c-0.0478516-0.0141602-0.0953369-0.0143433-0.1430664-0.03125   c-0.3095703-0.109375-0.5263672-0.262207-0.5966797-0.4194336c-0.1679688-0.3793945-0.6123047-0.5483398-0.9892578-0.3823242   c-0.9524307,0.4222107-0.3526077,2.0482788,1.8201294,2.4005127c0.0182495,0.2808838,0.0296631,0.5632324,0.0490112,0.8436279   c0.0273438,0.3955078,0.3564453,0.6982422,0.7470703,0.6982422c0.436615,0,0.7786751-0.3687267,0.7490234-0.8017578   c-0.0182495-0.2648926-0.0290527-0.5316772-0.0462646-0.7969971c1.6773891-0.4156265,2.5470886-1.8628178,2.2279053-2.9647217   c-0.1875-0.6425781-0.8535156-1.2915049-1.5185547-1.47754c-0.3220215-0.0895996-0.6420898-0.149231-0.9595947-0.2005005   c-0.0201416-0.4666138-0.0341187-0.9299927-0.0510864-1.3954468c0.3726196,0.1630859,0.6987305,0.442627,0.9003296,0.802002   c0.203125,0.3613281,0.6601563,0.4897461,1.0214844,0.2871094s0.4892578-0.6601563,0.2871094-1.0214844   c-0.4729004-0.8428955-1.3297729-1.4429932-2.2663574-1.6384888c-0.0064697-0.2237549-0.0189209-0.4508057-0.0246582-0.6740112   c-0.0107422-0.4077148-0.3447266-0.730957-0.75-0.730957c-0.0058594,0-0.0126953,0-0.0195313,0.0004883   c-0.4140625,0.0102539-0.7412109,0.3544922-0.7304688,0.7685547c0.0058594,0.2272339,0.0184937,0.458313,0.0251465,0.6860962   c-1.7931194,0.4782391-2.6242733,2.0322056-2.0212402,3.1151733   C24.7204418,16.4660683,25.7350903,16.6267128,26.4255199,16.7360878z M28.4421215,17.0822792   c0.1601563,0.0449219,0.4384766,0.3061523,0.4804688,0.4506836c0.0341797,0.1166992-0.0419922,0.3237305-0.1845703,0.5024414   c-0.1715698,0.2144775-0.4213867,0.3668213-0.692627,0.480896c-0.0296021-0.5136719-0.0634766-1.0262451-0.0893555-1.5400391   C28.1199169,17.0080605,28.2842846,17.0383339,28.4421215,17.0822792z M25.7927074,14.453372   c0.1539307-0.1605225,0.3424683-0.2800293,0.5422363-0.3753052c0.0137329,0.376709,0.0255737,0.7520752,0.0413818,1.1296387   c-0.3105469-0.0542603-0.7219849-0.1454468-0.8092041-0.3016968C25.5143452,14.7872639,25.7030201,14.547348,25.7927074,14.453372z   "/></g></svg>