<svg xmlns="http://www.w3.org/2000/svg" data-name="Layer 1" viewBox="0 0 100 125" x="0px" y="0px"><title>Clothes</title><path fill="#55595c" d="M50.88,20.78l5.73,2.55a13.9,13.9,0,0,0,4.11-10.67l0-.35L57.51,9.26a17.44,17.44,0,0,1-.66,3.08c-.13.42-.29.84-.45,1.25A15.83,15.83,0,0,1,50.88,20.78Z"/><rect x="48.84" y="34.92" width="2.33" height="0.87"/><path fill="#55595c" d="M55.15,14a23.07,23.07,0,0,1-5.25.58,23.81,23.81,0,0,1-5-.52,14.67,14.67,0,0,0,4.88,6l.25.19.25-.19A14.54,14.54,0,0,0,55.15,14Z"/><path d="M49.9,13.53a20.16,20.16,0,0,0,5.72-.73,17,17,0,0,0,.86-3.24,21,21,0,0,1-6.58,1,21.16,21.16,0,0,1-6.37-.9,16.78,16.78,0,0,0,.87,3.23A20.39,20.39,0,0,0,49.9,13.53Z"/><path fill="#55595c" d="M49.12,20.78a15.84,15.84,0,0,1-5.49-7.11c-.16-.4-.31-.81-.44-1.22a17.8,17.8,0,0,1-.72-3.18l-3.17,3,0,.35a13.9,13.9,0,0,0,4.11,10.67Z"/><polygon points="10.64 39.59 20.57 49.52 22.02 48.38 11.45 38.21 10.64 39.59"/><path fill="#55595c" d="M87.9,37.44,73,19.75l-.51-.4a38.78,38.78,0,0,0-10.75-6A16,16,0,0,1,56.77,24.6h0l-4.61-2.11v14.3H47.84V22.49L43.23,24.6h0a16,16,0,0,1-4.95-11.25,38.78,38.78,0,0,0-10.75,6l-.51.4L12.1,37.44,22.72,47.66l6.46-6.75h0l0,0v50.2H70.79V40.88l0,0h0l6.46,6.75Z"/><polygon points="88.55 38.21 77.98 48.38 79.43 49.52 89.36 39.59 88.55 38.21"/><path fill="#55595c" d="M51.16,22,50,21.49,48.84,22V33.92h2.32ZM50,32.6a.63.63,0,1,1,.62-.62A.62.62,0,0,1,50,32.6Zm0-4.5a.63.63,0,1,1,.62-.62A.62.62,0,0,1,50,28.1Zm0-4.5a.63.63,0,1,1,.62-.62A.62.62,0,0,1,50,23.6Z"/></svg>