<svg xmlns="http://www.w3.org/2000/svg" data-name="Layer 1" viewBox="0 0 100 125" x="0px" y="0px"><title>Clothes</title>
<path fill="#55595c" d="M96.4,71.16c-.17-.51-.36-1-.53-1.55l-9.29,3.75,2,5,9-3.63Z"/>
<path fill="#55595c" d="M50.65,18.25l2.59,3.19,4.2-9.3-.72-2.08-5.93,8A1.07,1.07,0,0,1,50.65,18.25Z"/>
<path fill="#55595c" d="M48.9,18.37a1.19,1.19,0,0,1-.32-.35l-5.34-7.83-.84,2.38,4,8.87Z"/>
<path fill="#55595c" d="M46.26,12.86l3.16,4.62a.33.33,0,0,0,.28.18.35.35,0,0,0,.27-.14l3.44-4.66Z"/>
<polygon points="54.15 11.86 56.06 9.27 43.81 9.27 45.58 11.86 54.15 11.86"/>
<path fill="#55595c" d="M3.6,71.16,2.45,74.71l9,3.63,2-5L4.13,69.61C4,70.13,3.77,70.65,3.6,71.16Z"/>
<path fill="#55595c" d="M41.51,13l-11.7,2.89a6,6,0,0,0-3.95,3.19l-6.6,13.52c-2,4-3.74,8.11-5.33,12.25L12,49.27C9.19,55.59,6.67,62.1,4.45,68.66l9.36,3.77,12-21.11.24-14.11a.5.5,0,0,1,.5-.5h0a.52.52,0,0,1,.5.51l-.72,43.51a46.49,46.49,0,0,0,21.49,6.42V21.29l-1.66,2.06Z"/>
<path fill="#55595c" d="M88,49.27l-1.94-4.39c-1.59-4.14-3.38-8.26-5.33-12.25l-6.6-13.52a6,6,0,0,0-4-3.19l-12-3-4.7,10.43-1.67-2.06V87.16a46.51,46.51,0,0,0,21.85-6.43L73,37.22a.52.52,0,0,1,.5-.51h0a.5.5,0,0,1,.5.5l.24,14.11,12,21.11,9.36-3.77C93.33,62.1,90.81,55.59,88,49.27Zm-19.3-2-7,2.65-7-2.65v-12h14Z"/>
<polygon fill="#55595c" points="55.71 46.57 61.71 48.84 67.71 46.57 67.71 36.23 55.71 36.23 55.71 46.57"/>
<path fill="#55595c" d="M48.82,20.05V87.18c.67,0,1.34,0,2,0V20.05l-1-1.24Zm1,53.2a.66.66,0,1,1,.66-.66A.66.66,0,0,1,49.82,73.25Zm0-10a.66.66,0,1,1,.66-.66A.66.66,0,0,1,49.82,63.25Zm0-9a.66.66,0,1,1,.66-.66A.66.66,0,0,1,49.82,54.25Zm0-9a.66.66,0,1,1,.66-.66A.66.66,0,0,1,49.82,45.25Zm0-9a.66.66,0,1,1,.66-.66A.66.66,0,0,1,49.82,36.25Zm0-8a.66.66,0,1,1,.66-.66A.66.66,0,0,1,49.82,28.25Zm.66-7.66a.66.66,0,1,1-1.32,0,.66.66,0,1,1,1.32,0Z"/></svg>