<svg xmlns="http://www.w3.org/2000/svg" xmlns:xlink="http://www.w3.org/1999/xlink" version="1.1" x="0px" y="0px" viewBox="0 0 66 82.5" enable-background="new 0 0 66 66" xml:space="preserve"><g><g><path fill="#55595c" d="M57.442,33.749c-2.828-1.107-6.044-1.107-8.879-0.01c-1.27-1.312-2.595-2.666-3.938-4.034l0.174-0.174    c0.195-0.195,0.195-0.512,0-0.707c-0.195-0.195-0.512-0.195-0.707,0l-0.168,0.168c-0.402-0.408-0.804-0.817-1.208-1.227    l0.202-0.202c0.195-0.195,0.195-0.512,0-0.707c-0.195-0.195-0.512-0.195-0.707,0l-0.197,0.197    c-0.09-0.092-0.181-0.184-0.271-0.275c-0.341-0.346-0.681-0.692-1.022-1.037l0.182-0.182c0.195-0.195,0.195-0.512,0-0.707    c-0.195-0.195-0.512-0.195-0.707,0l-0.177,0.177c-0.329-0.334-0.654-0.666-0.981-0.998l0.234-0.234    c0.195-0.195,0.195-0.512,0-0.707c-0.195-0.195-0.512-0.195-0.707,0l-0.228,0.228c-0.429-0.438-0.852-0.87-1.274-1.302    l0.062-0.062c0.195-0.195,0.195-0.512,0-0.707c-0.195-0.195-0.512-0.195-0.707,0l-0.053,0.053    c-0.319-0.327-0.634-0.652-0.947-0.974l0.042-0.042c0.195-0.195,0.195-0.512,0-0.707c-0.195-0.195-0.512-0.195-0.707,0    l-0.033,0.033c-3.99-4.059-6.338-3.491-10.416-0.693c-5.314,3.646-6.387,2.328-12.461-2.272c-0.531-0.399-1.165-0.866-2.162-0.874    c-1.919,0.035-2.512,1.609-2.988,2.875L6.635,18.8c-1.73,4.512,1.437-3.228-4.715,12.015c-0.031,0.074-0.061,0.146-0.064,0.167    c-2.087,5.114-0.228,7.412,5.167,8.967c15.161,4.39,30.838,8.93,46.902,10.198c8.398,0.659,11.022-2.646,11.053-6.317    c0,0,0,0,0-0.001C65.003,40.077,62.081,35.555,57.442,33.749z M33.641,20.102c0.057,0.013,0.112,0.01,0.167,0.004    c0.069,0.069,0.137,0.14,0.206,0.21l-2.012,2.012c-0.195,0.195-0.195,0.512,0,0.707c0.195,0.195,0.512,0.195,0.707,0l2.002-2.003    c0.313,0.323,0.628,0.647,0.947,0.974l-1.917,1.917c-0.195,0.195-0.195,0.512,0,0.707c0.195,0.195,0.512,0.195,0.707,0    l1.909-1.908c0.422,0.432,0.845,0.865,1.274,1.302l-1.98,1.98c-0.195,0.195-0.195,0.512,0,0.707c0.195,0.195,0.512,0.195,0.707,0    l1.974-1.974c0.327,0.332,0.652,0.664,0.981,0.998l-1.809,1.809c-0.195,0.195-0.195,0.512,0,0.707    c0.195,0.195,0.512,0.195,0.707,0l1.804-1.804c0.339,0.344,0.677,0.687,1.016,1.032c0.092,0.094,0.184,0.187,0.277,0.281    l-1.894,1.894c-0.195,0.195-0.195,0.512,0,0.707c0.195,0.195,0.512,0.195,0.707,0l1.888-1.888c0.404,0.41,0.806,0.818,1.208,1.227    l-1.608,1.608c-0.195,0.195-0.195,0.512,0,0.707c0.195,0.195,0.512,0.195,0.707,0l1.602-1.601    c0.514,0.523,1.022,1.042,1.528,1.559c-1.133,0.869-2.832,1.113-4.476,0.604c-3.47-1.074-8.542-6.911-9.278-8.875    c-0.345-0.919-0.34-1.848,0.013-2.549C32.081,20.405,32.932,19.939,33.641,20.102z M7.569,19.156l0.06-0.16    c0.767-2.039,1.707-2.985,3.612-1.553c5.972,4.508,7.632,6.408,13.628,2.298c2.921-2.005,4.943-3.088,7.909-0.59    c-1.881,0.44-2.907,2.548-2.024,4.902c0.812,2.161,6.036,8.276,9.918,9.479c1.883,0.582,3.959,0.359,5.462-0.854    c0.658,0.675,1.309,1.344,1.943,2c0.144,0.149,0.364,0.193,0.553,0.113c2.673-1.125,5.751-1.164,8.446-0.109    c3.927,1.528,6.538,5.199,6.862,8.438c-1.958-0.527-4.182-0.122-6.17,0.206c-23.222,3.833-46.643-9.201-54.804-12.432    C9.141,15.591,5.732,23.946,7.569,19.156z M54.004,49.151c-15.962-1.262-31.589-5.787-46.703-10.163    c-4.537-1.307-6.333-2.98-4.698-7.179c8.582,3.402,31.572,16.409,55.621,12.455c1.983-0.33,4.029-0.669,5.734-0.099    C63.636,48.89,58.723,49.516,54.004,49.151z"/><path fill="#55595c" d="M8.108,27.63l1.488-1.488l1.087,1.087l-1.2,1.2c-0.098,0.098-0.098,0.256,0,0.354c0.098,0.098,0.256,0.098,0.354,0    l1.2-1.2l0.864,0.864l-0.175,0.175c-0.098,0.098-0.098,0.256,0,0.354c0.098,0.098,0.256,0.098,0.354,0l0.182-0.182    c0.12,0.097,0.246,0.075,0.331-0.009c0.091-0.091,0.089-0.233,0.009-0.331l0.838-0.838l0.758,0.758    c0.098,0.098,0.256,0.098,0.354,0c0.098-0.098,0.098-0.256,0-0.354l-0.758-0.758l0.831-0.831l0.882,0.882    c0.098,0.098,0.256,0.098,0.354,0c0.098-0.098,0.098-0.256,0-0.354l-0.882-0.882l0.799-0.799l1.298,1.297    c0.098,0.098,0.256,0.098,0.354,0c0.098-0.098,0.098-0.256,0-0.354l-1.298-1.298l0.338-0.338c0.098-0.098,0.098-0.256,0-0.354    c-0.098-0.098-0.256-0.098-0.354,0l-0.338,0.338l-0.863-0.863l0.703-0.703c0.098-0.098,0.098-0.256,0-0.354    c-0.098-0.098-0.256-0.098-0.354,0l-0.703,0.703l-0.368-0.368c-0.098-0.098-0.256-0.098-0.353,0c-0.098,0.098-0.098,0.256,0,0.354    l0.368,0.368l-0.799,0.799l-1.008-1.008c-0.031-0.031-0.073-0.035-0.112-0.047l0.709-0.709c0.098-0.098,0.098-0.256,0-0.354    c-0.098-0.098-0.256-0.098-0.354,0l-1.861,1.861l-0.304-0.303c-0.098-0.098-0.256-0.098-0.354,0c-0.098,0.098-0.098,0.256,0,0.354    l0.304,0.303l-0.831,0.831l-1.168-1.168c-0.098-0.098-0.256-0.098-0.354,0c-0.098,0.098-0.098,0.256,0,0.354l1.168,1.168    l-1.488,1.488c-0.098,0.098-0.098,0.256,0,0.354C7.853,27.728,8.011,27.728,8.108,27.63z M12.254,28.093l-0.863-0.864l0.832-0.831    l0.863,0.863L12.254,28.093z M14.56,24.06l0.863,0.863l-0.799,0.8l-0.863-0.863L14.56,24.06z M14.27,26.076l-0.831,0.831    l-0.863-0.863l0.831-0.831L14.27,26.076z M11.999,23.74c0.011,0.039,0.016,0.081,0.047,0.112l1.008,1.008l-0.831,0.831    l-1.087-1.087L11.999,23.74z M10.782,24.957l1.087,1.087l-0.831,0.831L9.95,25.788L10.782,24.957z"/></g><path fill="#55595c" d="M50.592,38.682c0.098,0.098,0.256,0.098,0.353,0l0.729-0.729l1.531,1.531c0.098,0.098,0.256,0.098,0.354,0   c0.098-0.098,0.098-0.256,0-0.354L52.028,37.6l0.878-0.878l0.847,0.847l-0.551,0.551c-0.098,0.098-0.098,0.256,0,0.354   c0.098,0.098,0.256,0.098,0.354,0l0.551-0.551l0.718,0.718l-0.048,0.049c-0.097,0.099-0.095,0.257,0.004,0.354   c0.095,0.094,0.253,0.097,0.354-0.004l1.982-2.023c0.097-0.099,0.095-0.257-0.004-0.354c-0.098-0.097-0.256-0.094-0.354,0.004   l-1.584,1.618l-0.714-0.714l1.394-1.394c0.098-0.098,0.098-0.256,0-0.354c-0.098-0.098-0.256-0.098-0.354,0l-1.394,1.394   l-0.847-0.847l0.929-0.929c0.098-0.098,0.098-0.256,0-0.354c-0.098-0.098-0.256-0.098-0.354,0l-0.929,0.929L52.42,35.53   c-0.098-0.098-0.256-0.098-0.354,0c-0.098,0.098-0.098,0.256,0,0.354l0.485,0.485l-0.878,0.878L51,36.572   c-0.098-0.098-0.256-0.098-0.354,0c-0.098,0.098-0.098,0.256,0,0.354l0.675,0.675l-0.728,0.729   C50.495,38.426,50.495,38.584,50.592,38.682z"/></g></svg>