<svg xmlns="http://www.w3.org/2000/svg" version="1.1" viewBox="-5.0 -10.0 110.0 135.0">
 <path  d="m90.848 47.109h-4.1211v-6.9414c0-9.8008-3.8164-19.023-10.75-25.977-6.9492-6.9297-16.176-10.75-25.977-10.75-20.25 0-36.727 16.477-36.727 36.727v6.9414h-4.1211c-3.3242 0-6.0273 2.7031-6.0273 6.0273v13.277c0 3.3242 2.7031 6.0273 6.0273 6.0273h4.2812c0.45312 1.5703 1.8867 2.7344 3.6016 2.7344h7.6758c2.0742 0 3.7617-1.6875 3.7617-3.7617v-23.273c0-2.0742-1.6875-3.7617-3.7617-3.7617h-7.6758c-0.21875 0-0.42969 0.027344-0.63672 0.0625v-4.2734c0-18.527 15.074-33.602 33.602-33.602 8.9688 0 17.41 3.4922 23.766 9.832 6.3438 6.3594 9.8359 14.801 9.8359 23.77v4.2734c-0.20703-0.035156-0.41797-0.0625-0.63672-0.0625h-7.6758c-2.0742 0-3.7617 1.6875-3.7617 3.7617v23.273c0 2.0742 1.6875 3.7617 3.7617 3.7617h7.6758c0.21875 0 0.42969-0.027343 0.63672-0.0625v0.32812c0 7.8672-6.3984 14.266-14.266 14.266h-9.2617c-0.63281-2.0898-2.5508-3.625-4.8438-3.625h-3.293c-2.8047 0-5.082 2.2812-5.082 5.082v0.63281c0 2.8047 2.2812 5.082 5.082 5.082h3.293c2.4492 0 4.4961-1.7422 4.9766-4.0469h9.1328c9.5898 0 17.391-7.8008 17.391-17.391v-2.9961h4.1211c3.3242 0 6.0273-2.7031 6.0273-6.0273v-13.277c0-3.3242-2.7031-6.0273-6.0273-6.0273zm-84.598 19.305v-13.277c0-1.6016 1.3008-2.9023 2.9023-2.9023h4.1211v19.082h-4.1211c-1.6016 0-2.9023-1.3008-2.9023-2.9023zm10.785-18.914h7.6758c0.35156 0 0.63672 0.28516 0.63672 0.63672v23.273c0 0.35156-0.28516 0.63672-0.63672 0.63672h-7.6758c-0.35156 0-0.63672-0.28516-0.63672-0.63672v-23.273c0-0.35156 0.28516-0.63672 0.63672-0.63672zm40.152 44.293c0 1.0781-0.87891 1.957-1.957 1.957h-3.293c-1.0781 0-1.957-0.87891-1.957-1.957v-0.63281c0-1.0781 0.87891-1.957 1.957-1.957h3.293c1.0781 0 1.957 0.87891 1.957 1.957zm25.777-19.746h-7.6758c-0.35156 0-0.63672-0.28516-0.63672-0.63672v-23.273c0-0.35156 0.28516-0.63672 0.63672-0.63672h7.6758c0.35156 0 0.63672 0.28516 0.63672 0.63672v23.273c0 0.35156-0.28516 0.63672-0.63672 0.63672zm10.785-5.6328c0 1.6016-1.3008 2.9023-2.9023 2.9023h-4.1211v-19.082h4.1211c1.6016 0 2.9023 1.3008 2.9023 2.9023z"/>
 <path  d="m49.516 72.059c0.15625 0.050781 0.32031 0.078125 0.48438 0.078125s0.32812-0.027344 0.48438-0.078125c4.6094-1.5039 8.3672-3.7656 11.164-6.7266 3.1758-3.3555 4.9219-7.9609 4.9219-12.969v-12.258c0-0.46484-0.20703-0.90625-0.56641-1.2031s-0.83203-0.41797-1.2891-0.32812c-9.1484 1.7578-13.516-1.8164-13.688-1.9609-0.58203-0.50781-1.4531-0.50781-2.0469-0.007812-0.17969 0.15234-4.5469 3.7305-13.695 1.9688-0.45703-0.089844-0.92969 0.03125-1.2891 0.32812s-0.56641 0.73828-0.56641 1.2031v12.258c0 5.0078 1.75 9.6133 4.9219 12.969 2.7969 2.9609 6.5547 5.2188 11.164 6.7266zm-12.961-30.117c7.1172 0.92969 11.566-1.0938 13.445-2.25 1.8828 1.1562 6.3359 3.1797 13.445 2.25v10.422c0 4.2031-1.4453 8.0469-4.0703 10.82-2.3398 2.4727-5.4922 4.4023-9.3789 5.7383-3.8867-1.3359-7.0391-3.2656-9.3789-5.7383-2.625-2.7734-4.0703-6.6172-4.0703-10.82v-10.422z"/>
 <path  d="m48.359 58.395c0.29297 0.29297 0.69141 0.45703 1.1055 0.45703 0.41406 0 0.8125-0.16406 1.1055-0.45703l6.6562-6.6562c0.60938-0.60938 0.60938-1.5977 0-2.2109-0.60937-0.60938-1.5977-0.60938-2.2109 0l-5.5547 5.5547-3.2695-3.2695c-0.60938-0.60938-1.5977-0.60938-2.2109 0-0.60938 0.60938-0.60938 1.5977 0 2.2109l4.375 4.375z"/>
</svg>