<svg xmlns="http://www.w3.org/2000/svg" data-name="Layer 1" viewBox="0 0 100 125" x="0px" y="0px"><title>Clothes</title><path fill="#55595c" d="M39.22,15.47l-10,4.17a11.54,11.54,0,0,0-3.83,2.63L26,23a17.81,17.81,0,0,1,3.93,8.48,26.71,26.71,0,0,1,.39,4.55V48.59c0,2.64,0,5.29-.1,7.94h0l1.16,12.18a5.47,5.47,0,0,1-.06,1.51l-.16.88a8,8,0,0,0-.07,2.29L31.28,75a4.59,4.59,0,0,1,0,1.17l-.33,2.24a3.89,3.89,0,0,0,0,1.18l.29,2.16a4.9,4.9,0,0,1,0,1.48l-.37,2.26a2.74,2.74,0,0,0,1.68,2.39l.58.25H49.49V21.84C44,21.68,39.57,18.92,39.22,15.47Zm-5.5,54.75-1-.15,2.73-18,1,.15Z"/><path fill="#55595c" d="M53,15.55H50.49v5.29c5.12-.15,9.22-2.65,9.29-5.71L58,10.94l-.65,1.65A4.64,4.64,0,0,1,53,15.55Z"/><path fill="#55595c" d="M47.24,14.55H53a3.64,3.64,0,0,0,3.41-2.33l1-2.57a1.58,1.58,0,0,0-1.37-.81H43.91a1.56,1.56,0,0,0-1.35.79l1.37,2.84A3.7,3.7,0,0,0,47.24,14.55Z"/><path fill="#55595c" d="M43,12.91l-1-2.09L40.2,15.13c.07,3.06,4.17,5.56,9.29,5.71V15.55H47.24A4.71,4.71,0,0,1,43,12.91Z"/><path fill="#55595c" d="M25.24,23.67,24.7,23a11.3,11.3,0,0,0-1.26,1.89l-.14.26a27.81,27.81,0,0,0-2.83,8.42l-.7,4.18c-.17,1-.3,2.1-.38,3.15l-.53,7.24c-.49,6.77-.74,13.65-.74,20.44V90.52l1,.24a15.07,15.07,0,0,0,6.94,0l1-.25L28.4,73.38c.62-8.21.93-16.55.93-24.79V36.06A25.64,25.64,0,0,0,29,31.68,16.9,16.9,0,0,0,25.24,23.67Z"/><path fill="#55595c" d="M81.14,48.16l-.53-7.24c-.08-1.05-.21-2.11-.38-3.15l-.7-4.18a27.81,27.81,0,0,0-2.83-8.42l-.14-.26A11.3,11.3,0,0,0,75.3,23l-.54.65a16.9,16.9,0,0,0-3.72,8,25.64,25.64,0,0,0-.37,4.38V48.59c0,8.24.31,16.58.93,24.79l1.29,17.13,1,.25a15.07,15.07,0,0,0,6.94,0l1-.24V68.6C81.88,61.81,81.63,54.93,81.14,48.16Z"/><path fill="#55595c" d="M70.06,31.51A17.81,17.81,0,0,1,74,23l.64-.76a11.54,11.54,0,0,0-3.83-2.63l-10-4.18c-.33,3.46-4.76,6.22-10.26,6.38V88.11H66.93l.58-.25a2.77,2.77,0,0,0,1.68-2.49l-.37-2.16a4.9,4.9,0,0,1,0-1.48l.29-2.16a3.89,3.89,0,0,0,0-1.18l-.33-2.24a4.59,4.59,0,0,1,0-1.17l.18-1.59a8,8,0,0,0-.07-2.29l-.16-.88a5.47,5.47,0,0,1-.06-1.51l1.16-12.18h0c-.06-2.65-.1-5.3-.1-7.94V36.06A26.71,26.71,0,0,1,70.06,31.51ZM55.32,48.6h-1V26.1h1Zm11,21.62-2.73-18,1-.15,2.73,18Z"/></svg>